<svg xmlns="http://www.w3.org/2000/svg" width="512" height="512" viewBox="0 0 512 512">
  <g id="Group_420" data-name="Group 420" transform="translate(-7499 -7095)">
    <path id="Path_2194" data-name="Path 2194" d="M80,0H432a80,80,0,0,1,80,80V432a80,80,0,0,1-80,80H80A80,80,0,0,1,0,432V80A80,80,0,0,1,80,0Z" transform="translate(7499 7095)" fill="none"/>
    <g id="Group_419" data-name="Group 419">
      <g id="Group_418" data-name="Group 418">
        <path id="Path_2191" data-name="Path 2191" d="M387.5,363.86a51.84,51.84,0,0,1-51.78-51.78v-2.37H169.83v2.37a51.778,51.778,0,1,1-103.555,0l0-2.37H63.91A15.69,15.69,0,0,1,48.23,294V252a15.75,15.75,0,0,1,12.49-15.36l92-19.07,58.79-58.79a36.06,36.06,0,0,1,25.67-10.64h141.2A36.42,36.42,0,0,1,405,159.69l52.86,56.71a22,22,0,0,1,5.94,15.08v56.11a22.14,22.14,0,0,1-22.12,22.12h-2.37v2.37a51.84,51.84,0,0,1-51.81,51.78Z" transform="translate(7499 7112)" fill="#ededed"/>
        <path id="Path_2192" data-name="Path 2192" d="M378.41,150.51a34.08,34.08,0,0,1,24.83,10.8L456.1,218a19.7,19.7,0,0,1,5.3,13.47v56.11a19.77,19.77,0,0,1-19.75,19.75h-4.74v4.74a49.41,49.41,0,1,1-98.82,0v-4.74H167.46v4.74a49.408,49.408,0,1,1-98.815,0l.005-4.74H63.91A13.32,13.32,0,0,1,50.6,294V252a13.35,13.35,0,0,1,10.61-13l91.33-19,1.38-.29,1-1,58.29-58.29a33.69,33.69,0,0,1,24-9.94h141.2m0-4.74H237.21a38.7,38.7,0,0,0-27.35,11.33l-58.29,58.29L60.24,234.32A18.06,18.06,0,0,0,45.86,252v42a18,18,0,0,0,18,18.05,54.147,54.147,0,1,0,108.295,0h161.2a54.15,54.15,0,1,0,108.3,0,24.49,24.49,0,0,0,24.49-24.49V231.48a24.473,24.473,0,0,0-6.583-16.7l-52.847-56.7a38.7,38.7,0,0,0-28.3-12.31Z" transform="translate(7499 7112)"/>
      </g>
    </g>
  </g>
</svg>
