<svg id="Component_31_6" data-name="Component 31 – 6" xmlns="http://www.w3.org/2000/svg" width="91.346" height="91.346" viewBox="0 0 91.346 91.346">
  <path id="Path_36526" data-name="Path 36526" d="M29.294,0H62.052A29.294,29.294,0,0,1,91.346,29.294V62.052A29.294,29.294,0,0,1,62.052,91.346H29.294A29.294,29.294,0,0,1,0,62.052V29.294A29.294,29.294,0,0,1,29.294,0Z" fill="none"/>
  <g id="Group_13212" data-name="Group 13212" transform="translate(775.56 -255.414)">
    <path id="Path_36471" data-name="Path 36471" d="M-751.35,318.4a7.882,7.882,0,0,1-5.419-2.284,7.879,7.879,0,0,1-2.488-4.958l-.007-.01A4.559,4.559,0,0,1-763.1,307a28.741,28.741,0,0,1,.028-5.347,4.4,4.4,0,0,1,3.471-3.9c1.606-.439,3.242-.874,4.823-1.295,2.537-.675,5.161-1.373,7.724-2.1a4.3,4.3,0,0,0,1.779-1.1c.837-.849,1.66-1.755,2.455-2.632,1.037-1.144,2.111-2.327,3.252-3.424a12.628,12.628,0,0,1,9-3.389c3.552-.025,6.489-.036,9.242-.036,2.842,0,5.44.012,7.942.037a13.337,13.337,0,0,1,10.6,5.116q.89,1.084,1.782,2.166c.942,1.143,1.915,2.324,2.865,3.493.072.09.141.181.207.277a6.8,6.8,0,0,1,1.043,2.38l.109.467a7.17,7.17,0,0,1,.182,1.529l.01.9c.026,2.175.053,4.424-.092,6.643a4.914,4.914,0,0,1-4.191,4.338.845.845,0,0,0-.094.019c-.007.031-.016.075-.024.138a8.081,8.081,0,0,1-8.1,7.106c-.077,0-.153,0-.229,0a8.232,8.232,0,0,1-7.758-7.107c-4.65-.013-9.317-.02-13.879-.02-4.088,0-8.2.005-12.228.016a7.869,7.869,0,0,1-5.135,6.52A8.413,8.413,0,0,1-751.35,318.4Z" fill="#fff"/>
    <path id="Path_36472" data-name="Path 36472" d="M-721.328,284.69q3.968,0,7.935.037a12.454,12.454,0,0,1,9.9,4.782c1.546,1.887,3.106,3.763,4.644,5.657.058.072.114.147.168.224a5.93,5.93,0,0,1,.9,2.064l.109.467a6.224,6.224,0,0,1,.158,1.332c.026,2.494.083,4.994-.08,7.478a4.013,4.013,0,0,1-3.434,3.5c-.611.1-.795.366-.869.939a7.178,7.178,0,0,1-7.194,6.312l-.205,0a7.275,7.275,0,0,1-6.907-6.612.731.731,0,0,0-.507-.495q-7.122-.021-14.245-.021-6.286,0-12.571.017c-.183,0-.5.328-.526.532a6.966,6.966,0,0,1-4.6,6.049,7.477,7.477,0,0,1-2.706.537,6.992,6.992,0,0,1-4.8-2.043,6.953,6.953,0,0,1-2.21-4.466.975.975,0,0,0-.572-.69,3.712,3.712,0,0,1-3.256-3.371,27.894,27.894,0,0,1,.028-5.177,3.492,3.492,0,0,1,2.8-3.106c4.183-1.143,8.387-2.212,12.557-3.4a5.226,5.226,0,0,0,2.177-1.332c1.942-1.969,3.7-4.125,5.69-6.039a11.77,11.77,0,0,1,8.371-3.136q4.617-.031,9.234-.035m0-1.822c-2.755,0-5.693.011-9.246.036a13.515,13.515,0,0,0-9.622,3.644c-1.163,1.118-2.247,2.313-3.3,3.468-.789.87-1.6,1.769-2.429,2.605a3.4,3.4,0,0,1-1.379.859c-2.557.729-5.177,1.425-7.711,2.1-1.582.421-3.218.856-4.828,1.3a5.329,5.329,0,0,0-4.136,4.691,29.63,29.63,0,0,0-.029,5.518,5.381,5.381,0,0,0,3.935,4.78,8.662,8.662,0,0,0,2.682,4.917,8.758,8.758,0,0,0,6.036,2.525,9.312,9.312,0,0,0,3.364-.66,8.645,8.645,0,0,0,5.564-6.46c3.785-.01,7.639-.014,11.472-.014,4.311,0,8.715.006,13.108.018a9.041,9.041,0,0,0,2.6,4.593,8.881,8.881,0,0,0,5.9,2.516l.253,0a8.979,8.979,0,0,0,8.922-7.4,5.787,5.787,0,0,0,4.393-5.056c.147-2.254.12-4.52.094-6.712,0-.3-.007-.6-.01-.9a8.091,8.091,0,0,0-.206-1.724l-.108-.467a7.71,7.71,0,0,0-1.184-2.7c-.083-.119-.163-.227-.247-.33-.953-1.173-1.928-2.357-2.872-3.5q-.889-1.08-1.777-2.162a14.211,14.211,0,0,0-11.294-5.448c-2.505-.026-5.106-.038-7.953-.038Z" fill="#1a1818"/>
  </g>
</svg>
