<svg xmlns="http://www.w3.org/2000/svg" width="33.443" height="33.443" viewBox="0 0 33.443 33.443">
  <g id="Group_13226" data-name="Group 13226" transform="translate(872.283 4316.869)">
    <g id="Group_13219" data-name="Group 13219">
      <rect id="Rectangle_8057" data-name="Rectangle 8057" width="32.802" height="32.802" rx="10.634" transform="translate(-871.963 -4316.548)" fill="none"/>
      <path id="Path_36481" data-name="Path 36481" d="M-849.795-4316.227a10.314,10.314,0,0,1,10.314,10.313v11.534a10.314,10.314,0,0,1-10.314,10.313h-11.533a10.314,10.314,0,0,1-10.314-10.313v-11.534a10.314,10.314,0,0,1,10.314-10.313h11.533m0-.642h-11.533a10.968,10.968,0,0,0-10.955,10.955v11.534a10.967,10.967,0,0,0,10.955,10.954h11.533a10.967,10.967,0,0,0,10.955-10.954v-11.534a10.968,10.968,0,0,0-10.955-10.955Z" fill="#fff"/>
    </g>
    <path id="Path_36482" data-name="Path 36482" d="M-844.218-4301.262a2.182,2.182,0,0,1,.056.469c.009.878.029,1.758-.028,2.633a1.414,1.414,0,0,1-1.209,1.232c-.215.036-.28.128-.306.33a2.529,2.529,0,0,1-2.6,2.222,2.563,2.563,0,0,1-2.432-2.328.26.26,0,0,0-.179-.175q-4.72-.014-9.441,0c-.064,0-.176.116-.185.187a2.452,2.452,0,0,1-1.618,2.13,2.392,2.392,0,0,1-2.644-.53,2.456,2.456,0,0,1-.778-1.572.346.346,0,0,0-.2-.244,1.305,1.305,0,0,1-1.146-1.186,9.741,9.741,0,0,1,.01-1.823,1.228,1.228,0,0,1,.987-1.093c1.472-.4,2.952-.779,4.421-1.2a1.828,1.828,0,0,0,.766-.469c.684-.693,1.3-1.452,2-2.126a4.15,4.15,0,0,1,2.948-1.1c2.015-.014,4.03-.02,6.044,0a4.383,4.383,0,0,1,3.487,1.683c.544.665,1.094,1.325,1.635,1.992.021.025.04.052.059.079a2.081,2.081,0,0,1,.318.727Z" fill="#fff"/>
  </g>
</svg>
