<svg xmlns="http://www.w3.org/2000/svg" width="24" height="24" viewBox="0 0 24 24">
  <g id="Group_13253" data-name="Group 13253" transform="translate(-39 -662)">
    <g id="Group_13252" data-name="Group 13252">
      <g id="Ellipse_3150" data-name="Ellipse 3150" transform="translate(39 662)" fill="none" stroke="#1d1d1d" stroke-width="1">
        <circle cx="12" cy="12" r="12" stroke="none"/>
        <circle cx="12" cy="12" r="11.5" fill="none"/>
      </g>
      <path id="Icon_awesome-check" data-name="Icon awesome-check" d="M4.889,15.1.211,10.422a.72.72,0,0,1,0-1.018L1.229,8.387a.72.72,0,0,1,1.018,0L5.4,11.538l6.75-6.75a.72.72,0,0,1,1.018,0l1.018,1.018a.72.72,0,0,1,0,1.018L5.907,15.1A.72.72,0,0,1,4.889,15.1Z" transform="translate(43.803 664.056)" fill="#e50019"/>
    </g>
  </g>
</svg>
