<svg id="Layer_1" data-name="Layer 1" xmlns="http://www.w3.org/2000/svg" viewBox="0 0 256 256"><rect width="256" height="256" rx="27"/><path d="M73.64,75c.06-1.45.09-2.55.17-3.65A11.65,11.65,0,0,1,85,60.2c.59,0,1.19-.05,1.78-.05q58.46,0,116.93,0c5.21,0,9.29,1.83,11.64,6.55a13.2,13.2,0,0,1,1.32,5.66q.14,38.27,0,76.53c0,7.43-5.1,12.15-12.84,12.17-13.81,0-27.61,0-41.41,0h-2.78c2.87,4,1.63,7.39,0,10.91a105.07,105.07,0,0,0-4.86,11.43c-2.41,7.24-8,10.26-14.78,11.79-6.12,1.39-12.18.58-18.11-1.16-11.39-3.34-21.43-9.25-30.83-16.36-16.79-12.71-31-27.79-41.82-45.92-4.69-7.85-8.23-16.18-9.55-25.3-1.12-7.69,0-15,4.85-21.29a11.06,11.06,0,0,1,3.83-3.25c5.66-2.63,11.43-5,17.17-7.49A8.73,8.73,0,0,1,73.64,75Zm71.67-7Q116,68,86.77,68c-3.76,0-5.11,1.37-5.13,5.13,0,4.14,0,8.28,0,12.42a6.52,6.52,0,0,0,.81,3c2.3,4,4.67,8.08,7.11,12a8.78,8.78,0,0,1,.26,9.66c-2.62,4.63-5,9.39-7.58,14a2,2,0,0,0,.35,2.87q12.66,12.57,25.18,25.28a2,2,0,0,0,2.85.36c4.72-2.59,9.54-5,14.24-7.64a8.67,8.67,0,0,1,9.49.27c3.75,2.3,7.52,4.57,11.36,6.72a7.42,7.42,0,0,0,3.49,1c18,.06,36,0,54,0,4.33,0,5.57-1.27,5.57-5.69q0-36.87,0-73.74c0-4.54-1.16-5.68-5.76-5.68Q174.2,68,145.31,68Zm8.25,98c-.57-.38-1-.73-1.53-1-7-4.16-14-8.28-21-12.49a2.81,2.81,0,0,0-3.23,0c-4.84,2.66-9.7,5.28-14.6,7.82-3.79,2-7.06,1.4-10.05-1.6L76.77,132.4c-3.65-3.66-4.12-6.64-1.71-11.17,2.5-4.7,5.09-9.36,7.52-14.09a3.24,3.24,0,0,0,0-2.64C78.46,97.27,74.16,90.11,70,82.9c-.65-1.1-1.25-1.22-2.37-.73-4.89,2.11-9.83,4.11-14.7,6.24a6.1,6.1,0,0,0-2.24,1.8c-3.11,3.89-3.67,8.48-3.3,13.24.76,9.81,5.11,18.31,10.08,26.48C66,144,77,156,89.6,166.46c10.12,8.42,21,15.67,33.65,19.7,5.21,1.65,10.53,2.35,15.94,1,2.71-.66,5.7-1.53,7-4.07C148.89,177.61,151.09,171.83,153.56,166.06Z" fill="#fff"/><path d="M133.57,197.32a43,43,0,0,1-12.1-1.92c-10.41-3.06-20.35-8.33-31.29-16.61C72.59,165.48,58.4,149.9,48,132.47c-5.32-8.91-8.51-17.36-9.75-25.83-1.28-8.92.39-16.24,5.14-22.38a12.17,12.17,0,0,1,4.38-3.67c4.34-2,8.74-3.9,13.15-5.78l4-1.73a9.68,9.68,0,0,1,7.32-.26c0-.55,0-1.06.08-1.57A13,13,0,0,1,84.9,58.76c.62,0,1.24-.06,1.87-.06h27.51q44.66,0,89.42,0h0c6.14,0,10.48,2.47,12.9,7.34a14.84,14.84,0,0,1,1.48,6.31q.12,38.27,0,76.54c0,8.11-5.75,13.58-14.28,13.6-9.49,0-19,0-28.48,0H162.13c1.51,3.65.27,7-1.19,10.09l-.28.59a97.74,97.74,0,0,0-4.52,10.67c-3,8.87-10.44,11.52-15.83,12.75A30.07,30.07,0,0,1,133.57,197.32ZM68.92,75.12a7.07,7.07,0,0,0-2.81.6L62,77.46C57.66,79.33,53.29,81.2,49,83.2A9.55,9.55,0,0,0,45.66,86c-4.24,5.49-5.74,12.1-4.55,20.2s4.23,16.2,9.36,24.77c10.22,17.1,24.16,32.42,41.45,45.5,10.65,8.06,20.3,13.19,30.37,16.13,6.66,2,12.19,2.33,17.39,1.14,7.56-1.72,11.8-5.06,13.73-10.84a98.06,98.06,0,0,1,4.64-11l.27-.59c1.57-3.33,2.57-6.15.17-9.46l-1.66-2.29h18.55c9.46,0,19,0,28.47,0,7,0,11.38-4.13,11.39-10.73q.1-38.27,0-76.52a11.84,11.84,0,0,0-1.18-5c-1.95-3.92-5.22-5.75-10.31-5.75h0q-44.73.07-89.42,0H86.77c-.57,0-1.12,0-1.67,0a10.24,10.24,0,0,0-9.85,9.82c-.06.7-.08,1.38-.11,2.17L75,77.38l-2-1.12A8.38,8.38,0,0,0,68.92,75.12Zm64.47,114.2a34.89,34.89,0,0,1-10.57-1.78c-11.2-3.56-22-9.9-34.15-20C75,156.19,64.37,144.12,56.2,130.68c-4.88-8-9.5-16.81-10.3-27.11-.48-6,.67-10.58,3.61-14.26a7.54,7.54,0,0,1,2.78-2.22c2.59-1.13,5.21-2.22,7.81-3.32,2.3-1,4.61-1.94,6.9-2.93a3,3,0,0,1,4.2,1.34q2.65,4.54,5.34,9.08c2.46,4.16,4.92,8.33,7.34,12.52a4.67,4.67,0,0,1,0,4c-1.51,3-3.08,5.86-4.64,8.76-1,1.79-1.94,3.57-2.89,5.36-2.11,4-1.76,6.27,1.46,9.48Q91,144.57,104.14,157.74c2.59,2.58,5.19,3,8.37,1.34,4.9-2.53,9.74-5.15,14.57-7.8a4.23,4.23,0,0,1,4.69,0c4.85,2.94,9.75,5.83,14.63,8.72l6.37,3.77c.37.21.72.46,1.1.72l1.48,1-.47,1.09c-.69,1.63-1.37,3.27-2,4.9-1.68,4.05-3.41,8.24-5.39,12.23-1.64,3.29-5.56,4.25-7.9,4.83A25.57,25.57,0,0,1,133.39,189.32Zm-64.88-106s-.17.07-.36.15c-2.3,1-4.62,2-6.93,2.94-2.6,1.09-5.19,2.18-7.77,3.3a4.72,4.72,0,0,0-1.67,1.36c-2.47,3.09-3.41,7-3,12.25.75,9.7,5.19,18.15,9.88,25.84,8,13.17,18.44,25,31.86,36.17,11.8,9.83,22.34,16,33.17,19.43,5.63,1.8,10.59,2.12,15.17,1,2.61-.64,5-1.38,6-3.31,1.94-3.9,3.65-8,5.31-12.06l1.61-3.84a4.66,4.66,0,0,0-.47-.3l-6.37-3.77c-4.89-2.89-9.79-5.79-14.66-8.73a1.44,1.44,0,0,0-1.81,0c-4.83,2.66-9.7,5.29-14.62,7.83-4.33,2.25-8.27,1.62-11.74-1.86L75.74,133.42c-4.06-4.09-4.64-7.81-1.95-12.87.95-1.8,1.92-3.59,2.89-5.38,1.57-2.89,3.12-5.78,4.62-8.7a2,2,0,0,0,.08-1.25C79,101,76.51,96.88,74.05,92.73q-2.68-4.55-5.35-9.1A1.78,1.78,0,0,0,68.51,83.34Zm40.8,71.37a3.51,3.51,0,0,1-2.52-1.25q-12.54-12.69-25.17-25.27a3.41,3.41,0,0,1-.61-4.58c1.15-2.08,2.25-4.16,3.36-6.24,1.38-2.63,2.78-5.25,4.25-7.83a7.37,7.37,0,0,0-.25-8.19q-3.69-6-7.14-12.1a8.2,8.2,0,0,1-1-3.63c-.07-3.32-.06-6.65,0-10V73.16c0-4.54,2-6.56,6.57-6.56h116.3c5.39,0,7.2,1.8,7.2,7.13v73.74c0,5.2-1.9,7.13-7,7.13H193.13c-14.69,0-29.27,0-43.88,0a8.85,8.85,0,0,1-4.21-1.13c-3.34-1.88-6.86-4-11.4-6.76a7.21,7.21,0,0,0-8-.23c-2.56,1.43-5.15,2.8-7.76,4.17-2.16,1.15-4.33,2.3-6.48,3.47A4.19,4.19,0,0,1,109.31,154.71Zm21.37-85.23H86.77c-2.94,0-3.67.73-3.69,3.7v2.48c0,3.3,0,6.6.05,9.89a5.1,5.1,0,0,0,.63,2.28c2.3,4,4.64,8,7.08,12A10.18,10.18,0,0,1,91.12,111c-1.44,2.56-2.83,5.16-4.21,7.76-1.11,2.1-2.23,4.2-3.38,6.28-.36.67-.36.67.12,1.14q12.67,12.58,25.19,25.3c.34.34.47.37.47.37h0a1.65,1.65,0,0,0,.65-.26c2.16-1.19,4.35-2.34,6.52-3.49,2.58-1.37,5.16-2.73,7.71-4.15a10.09,10.09,0,0,1,11,.3c4.51,2.77,8,4.84,11.31,6.7a6.28,6.28,0,0,0,2.8.76q21.92.08,43.87,0h10.12c3.52,0,4.14-.64,4.14-4.25V73.72c0-3.73-.53-4.24-4.32-4.24Z" fill="#fff"/><path d="M126.89,112c-3.36-2.92-6.61-5.77-9.89-8.6Q104.18,92.28,91.33,81.2c-1.56-1.35-2.54-2.89-1.78-5,1-2.78,4.14-3.38,6.63-1.25,4,3.42,8,6.88,11.93,10.33l36.2,31.39c.25.21.53.38,1,.7l7.72-6.65,40.24-34.87a17,17,0,0,1,2-1.58,3.85,3.85,0,0,1,5.21,5.47,12.77,12.77,0,0,1-1.92,2Q182,96,165.45,110.36c-.49.43-.94.89-1.53,1.44.53.45.94.85,1.39,1.19l33,25.38a14.09,14.09,0,0,1,1.51,1.27,4,4,0,0,1,.37,5.52,3.58,3.58,0,0,1-5.14.52c-2.8-2-5.47-4.09-8.18-6.17Q173,128.86,159.2,118.2c-1.13-.88-1.86-1-3,0-2.64,2.46-5.4,4.8-8.17,7.13-2,1.66-3.68,1.64-5.66,0-2.67-2.23-5.36-4.46-7.92-6.81-1.1-1-1.79-1-3-.07-7.72,6.24-15.5,12.4-23.26,18.58l-.31.25c-2.32,1.78-4.6,1.69-6.09-.24s-1.08-4.05,1.12-5.84c3.78-3.07,7.6-6.08,11.4-9.12s7.49-6,11.23-9C126,112.8,126.37,112.44,126.89,112Z" fill="#fff"/><path d="M197.48,148a5.81,5.81,0,0,1-3.28-1.1c-2.18-1.52-4.27-3.14-6.36-4.77L182,137.6q-11.85-9.1-23.68-18.27a1.73,1.73,0,0,0-.63-.38,1.63,1.63,0,0,0-.49.35c-2.7,2.54-5.54,4.94-8.22,7.18-2.48,2.1-5,2.09-7.51,0l-.33-.29c-2.58-2.15-5.16-4.31-7.64-6.58a1.94,1.94,0,0,0-.52-.38,3.68,3.68,0,0,0-.56.38c-5.87,4.75-11.79,9.45-17.71,14.16l-5.56,4.42a2.9,2.9,0,0,1-.38.3c-2.86,2.22-6.06,2-8.05-.54s-1.42-5.58,1.35-7.84c2.52-2.05,5.07-4.07,7.61-6.1l15-12,0,0L123,110.51q-3.51-3.06-7-6.05-12.81-11.1-25.66-22.17c-.86-.75-3.49-3-2.19-6.59a5.1,5.1,0,0,1,3.51-3.31,6.08,6.08,0,0,1,5.41,1.45c2.95,2.52,5.87,5.06,8.79,7.6l39.29,34.08,47.08-40.77a18.3,18.3,0,0,1,2.18-1.7,5.29,5.29,0,0,1,7.15,7.53,13.4,13.4,0,0,1-2.15,2.22q-14.28,12.4-28.64,24.81l-4.43,3.85-.32.29.12.11,33,25.37a16.14,16.14,0,0,1,1.66,1.39,5.47,5.47,0,0,1,.47,7.45A4.84,4.84,0,0,1,197.48,148Zm-39.8-31.92a4,4,0,0,1,2.4,1q11.8,9.16,23.67,18.25l5.86,4.52c2,1.59,4.11,3.18,6.24,4.67a2.19,2.19,0,0,0,3.19-.24,2.57,2.57,0,0,0-.29-3.62,11.65,11.65,0,0,0-1.19-1l-33.13-25.5c-.3-.24-.58-.49-.9-.76l-1.77-1.52,1.75-1.66c.35-.33.66-.64,1-.93l4.44-3.84Q183.28,93,197.58,80.61a10.58,10.58,0,0,0,1.69-1.72,2.31,2.31,0,0,0-.22-3,2.28,2.28,0,0,0-3-.38,16.88,16.88,0,0,0-1.83,1.45l-48.85,42.3-1.37-1c-.23-.17-.43-.31-.61-.46L104,83.62c-2.92-2.54-5.82-5.07-8.77-7.58a3.16,3.16,0,0,0-2.8-.86,2.23,2.23,0,0,0-1.53,1.51c-.38,1-.28,2,1.37,3.41Q105.14,91.19,118,102.27l7,6.06,4.15,3.6-1.68,1.54c-.32.3-.6.55-.9.79l-15,12c-2.53,2-5.07,4-7.57,6.07-1.58,1.29-1.88,2.59-.9,3.85,1.23,1.6,2.91.88,4.07,0l1.18.9-.9-1.13,5.56-4.41c5.91-4.71,11.83-9.41,17.69-14.16,1.73-1.39,3.22-1.37,4.85.13,2.45,2.23,5,4.37,7.54,6.49l.33.28c1.42,1.19,2.34,1.22,3.81,0,2.65-2.22,5.45-4.59,8.11-7.08A3.62,3.62,0,0,1,157.68,116.05Z" fill="#fff"/></svg>