<svg xmlns="http://www.w3.org/2000/svg" width="12.567" height="10.211" viewBox="0 0 12.567 10.211">
  <path id="Icon_awesome-list" data-name="Icon awesome-list" d="M1.964,11.229H.393A.393.393,0,0,0,0,11.622v1.571a.393.393,0,0,0,.393.393H1.964a.393.393,0,0,0,.393-.393V11.622A.393.393,0,0,0,1.964,11.229Zm0-7.854H.393A.393.393,0,0,0,0,3.768V5.339a.393.393,0,0,0,.393.393H1.964a.393.393,0,0,0,.393-.393V3.768A.393.393,0,0,0,1.964,3.375Zm0,3.927H.393A.393.393,0,0,0,0,7.695V9.266a.393.393,0,0,0,.393.393H1.964a.393.393,0,0,0,.393-.393V7.695A.393.393,0,0,0,1.964,7.3Zm10.211,4.32H4.32a.393.393,0,0,0-.393.393V12.8a.393.393,0,0,0,.393.393h7.854a.393.393,0,0,0,.393-.393v-.785A.393.393,0,0,0,12.174,11.622Zm0-7.854H4.32a.393.393,0,0,0-.393.393v.785a.393.393,0,0,0,.393.393h7.854a.393.393,0,0,0,.393-.393V4.16A.393.393,0,0,0,12.174,3.768Zm0,3.927H4.32a.393.393,0,0,0-.393.393v.785a.393.393,0,0,0,.393.393h7.854a.393.393,0,0,0,.393-.393V8.088A.393.393,0,0,0,12.174,7.695Z" transform="translate(0 -3.375)" fill="#fff"/>
</svg>
