<svg xmlns="http://www.w3.org/2000/svg" width="21.247" height="10.5" viewBox="0 0 21.247 10.5">
  <g id="Group_11094" data-name="Group 11094" transform="translate(-11.25 -43.25)">
    <path id="Line_1817" data-name="Line 1817" d="M18.747,1.25H0A1.25,1.25,0,0,1-1.25,0,1.25,1.25,0,0,1,0-1.25H18.747A1.25,1.25,0,0,1,20,0,1.25,1.25,0,0,1,18.747,1.25Z" transform="translate(12.5 44.5)" fill="#1d1d1d"/>
    <path id="Line_1818" data-name="Line 1818" d="M9,1.25H0A1.25,1.25,0,0,1-1.25,0,1.25,1.25,0,0,1,0-1.25H9A1.25,1.25,0,0,1,10.25,0,1.25,1.25,0,0,1,9,1.25Z" transform="translate(12.5 52.5)" fill="#1d1d1d"/>
  </g>
</svg>
