<svg xmlns="http://www.w3.org/2000/svg" width="20.015" height="10.555" viewBox="0 0 20.015 10.555">
  <g id="eye" opacity="0.43">
    <g id="Group_11563" data-name="Group 11563" transform="translate(0 0)">
      <g id="Group_11562" data-name="Group 11562" transform="translate(0 0)">
        <path id="Path_35224" data-name="Path 35224" d="M19.866,125.886c-.179-.2-4.476-4.886-9.858-4.886s-9.68,4.687-9.858,4.886a.586.586,0,0,0,0,.782c.179.2,4.476,4.886,9.858,4.886s9.68-4.687,9.858-4.886A.587.587,0,0,0,19.866,125.886Zm-9.858,4.5a4.1,4.1,0,1,1,4.1-4.1A4.11,4.11,0,0,1,10.007,130.382Z" transform="translate(0.001 -121)" fill="#1d1d1d"/>
      </g>
    </g>
    <g id="Group_11565" data-name="Group 11565" transform="translate(7.076 2.346)">
      <g id="Group_11564" data-name="Group 11564">
        <path id="Path_35225" data-name="Path 35225" d="M184.518,182.759a1.754,1.754,0,0,1,.738-1.428,2.894,2.894,0,0,0-1.325-.331,2.932,2.932,0,1,0,2.882,3.426A1.749,1.749,0,0,1,184.518,182.759Z" transform="translate(-181 -181)" fill="#1d1d1d"/>
      </g>
    </g>
  </g>
</svg>
