<svg xmlns="http://www.w3.org/2000/svg" width="34" height="34" viewBox="0 0 34 34"><g transform="translate(-312 -276)"><path d="M18.747,10.309A10.5,10.5,0,0,0,9.431,4.5,10.5,10.5,0,0,0,.114,10.309a1.059,1.059,0,0,0,0,.956,10.5,10.5,0,0,0,9.317,5.809,10.5,10.5,0,0,0,9.317-5.809A1.059,1.059,0,0,0,18.747,10.309ZM9.431,15.5a4.715,4.715,0,1,1,4.715-4.715A4.715,4.715,0,0,1,9.431,15.5Zm0-7.859a3.121,3.121,0,0,0-.829.124A1.567,1.567,0,0,1,6.411,9.958,3.136,3.136,0,1,0,9.431,7.644Z" transform="translate(319.354 281.902)" fill="#7e7e7e"/><g transform="translate(312 276)" fill="none" stroke="#707070" stroke-width="1"><circle cx="17" cy="17" r="17" stroke="none"/><circle cx="17" cy="17" r="16.5" fill="none"/></g></g></svg>