<svg xmlns="http://www.w3.org/2000/svg" width="19.473" height="16" viewBox="0 0 19.473 16">
  <g id="Group_13156" data-name="Group 13156" transform="translate(0.75 0.064)">
    <path id="Line_1845" data-name="Line 1845" d="M17.973.75H0A.75.75,0,0,1-.75,0,.75.75,0,0,1,0-.75H17.973a.75.75,0,0,1,.75.75A.75.75,0,0,1,17.973.75Z" transform="translate(0 2.86)" fill="#fff"/>
    <path id="Line_1846" data-name="Line 1846" d="M17.973.75H0A.75.75,0,0,1-.75,0,.75.75,0,0,1,0-.75H17.973a.75.75,0,0,1,.75.75A.75.75,0,0,1,17.973.75Z" transform="translate(0 12.513)" fill="#fff"/>
    <rect id="Rectangle_8016" data-name="Rectangle 8016" width="6" height="6" rx="2" transform="translate(10.445 -0.064)" fill="#fff"/>
    <rect id="Rectangle_8017" data-name="Rectangle 8017" width="5" height="6" rx="2" transform="translate(4.445 9.936)" fill="#fff"/>
  </g>
</svg>
