<svg id="Component_64_7" data-name="Component 64 – 7" xmlns="http://www.w3.org/2000/svg" width="35.784" height="35.784" viewBox="0 0 35.784 35.784">
  <g id="Group_16642" data-name="Group 16642" transform="translate(4.525 5.017)">
    <g id="Group_16634" data-name="Group 16634" transform="translate(0 5.355)">
      <path id="Path_50042" data-name="Path 50042" d="M1.718-355.327H-3.457c0,1.2-.01,2.372.014,3.539,0,.128.185.266.312.377a1.616,1.616,0,0,1,.046,2.574,2.41,2.41,0,0,1-3.043.021,1.664,1.664,0,0,1-.024-2.587,1.077,1.077,0,0,0,.339-.684c.036-1.06.016-2.122.016-3.23h-5.137c0,1.18-.008,2.363.012,3.546,0,.115.154.241.264.34a1.644,1.644,0,0,1,.034,2.617,2.435,2.435,0,0,1-3,.006,1.64,1.64,0,0,1,.015-2.615.751.751,0,0,0,.281-.445c.023-1.133.013-2.267.013-3.462-.263-.012-.487-.031-.711-.031-1.75,0-3.5,0-5.249,0-1.1,0-1.5-.346-1.5-1.278,0-1.406.014-2.813-.015-4.219a1.068,1.068,0,0,0-.325-.693,1.669,1.669,0,0,1-.017-2.547,2.457,2.457,0,0,1,3.048-.039,1.591,1.591,0,0,1,.048,2.528,1.038,1.038,0,0,0-.394.907c.018,1.063.014,2.127.022,3.191,0,.032.033.063.067.124h5.024c0-1.272.009-2.527-.014-3.781,0-.128-.183-.266-.307-.379a1.635,1.635,0,0,1,.044-2.617,2.45,2.45,0,0,1,2.951.013,1.64,1.64,0,0,1,.013,2.618c-.133.121-.29.289-.293.438-.024,1.222-.013,2.445-.013,3.7H-5.8c0-1.267.009-2.523-.014-3.779,0-.127-.185-.263-.31-.374a1.639,1.639,0,0,1-.009-2.579,2.457,2.457,0,0,1,3.005-.022,1.659,1.659,0,0,1,.056,2.586,1.255,1.255,0,0,0-.369.786c-.041,1.113-.017,2.228-.017,3.38H1.718v-2.133c0-.288-.012-.577,0-.865a1.531,1.531,0,0,0-.514-1.361,1.553,1.553,0,0,1,.28-2.464,2.439,2.439,0,0,1,2.949.137,1.661,1.661,0,0,1,0,2.505,1.146,1.146,0,0,0-.353.737c-.024,2.9-.011,5.806-.022,8.708a.948.948,0,0,0,.38.8,1.626,1.626,0,0,1-.063,2.535,2.419,2.419,0,0,1-3.045-.042,1.649,1.649,0,0,1,.014-2.545,1.159,1.159,0,0,0,.354-.74C1.74-353.188,1.718-354.247,1.718-355.327Z" transform="translate(21.715 364.656)"/>
    </g>
    <g id="Group_16635" data-name="Group 16635" transform="translate(8.318 0.052)">
      <path id="Path_50043" data-name="Path 50043" d="M44.114-407.011h-.83v-2.642l-.815.238v-.629l1.569-.543h.076Z" transform="translate(-42.469 410.586)"/>
    </g>
    <g id="Group_16636" data-name="Group 16636" transform="translate(8.064 23.946)">
      <path id="Path_50044" data-name="Path 50044" d="M42.61-199.6H40.115v-.54l1.149-1.208a1.372,1.372,0,0,0,.425-.769.535.535,0,0,0-.1-.351.359.359,0,0,0-.292-.12.364.364,0,0,0-.307.161.662.662,0,0,0-.118.4h-.83a1.174,1.174,0,0,1,.165-.608,1.153,1.153,0,0,1,.457-.436,1.356,1.356,0,0,1,.653-.157,1.335,1.335,0,0,1,.893.268.955.955,0,0,1,.313.769,1.116,1.116,0,0,1-.079.411,1.8,1.8,0,0,1-.244.42,6.151,6.151,0,0,1-.534.588l-.462.533H42.61Z" transform="translate(-40.041 203.222)"/>
    </g>
    <g id="Group_16637" data-name="Group 16637" transform="translate(15.616)">
      <path id="Path_50045" data-name="Path 50045" d="M98.708-409.569h.39a.406.406,0,0,0,.464-.454.393.393,0,0,0-.11-.289.42.42,0,0,0-.312-.112.448.448,0,0,0-.286.1.292.292,0,0,0-.122.238h-.828a.847.847,0,0,1,.157-.5,1.038,1.038,0,0,1,.436-.345,1.49,1.49,0,0,1,.613-.124,1.465,1.465,0,0,1,.938.273.906.906,0,0,1,.341.749.756.756,0,0,1-.141.436,1.006,1.006,0,0,1-.411.333.961.961,0,0,1,.447.313.824.824,0,0,1,.162.519.922.922,0,0,1-.368.766,1.529,1.529,0,0,1-.967.287,1.586,1.586,0,0,1-.652-.134,1.022,1.022,0,0,1-.456-.371.964.964,0,0,1-.155-.539h.832a.372.372,0,0,0,.133.285.467.467,0,0,0,.326.12.491.491,0,0,0,.349-.121.406.406,0,0,0,.13-.311.475.475,0,0,0-.135-.383.565.565,0,0,0-.373-.113h-.4Z" transform="translate(-97.849 411.062)"/>
    </g>
    <g id="Group_16638" data-name="Group 16638" transform="translate(15.655 23.997)">
      <path id="Path_50046" data-name="Path 50046" d="M100.38-200.568h.363v.638h-.363v.759h-.827v-.759H98.17l-.049-.506,1.432-2.3v-.007h.827Zm-1.471,0h.644v-1.1l-.052.083Z" transform="translate(-98.121 202.746)"/>
    </g>
    <g id="Group_16639" data-name="Group 16639" transform="translate(23.186 0.052)">
      <path id="Path_50047" data-name="Path 50047" d="M154.369-408.757l.218-1.829h2.09v.643h-1.417l-.081.71a.985.985,0,0,1,.232-.091,1.061,1.061,0,0,1,.281-.039,1.049,1.049,0,0,1,.819.315,1.271,1.271,0,0,1,.286.885,1.269,1.269,0,0,1-.153.622,1.056,1.056,0,0,1-.431.428,1.36,1.36,0,0,1-.656.15,1.465,1.465,0,0,1-.631-.139,1.131,1.131,0,0,1-.462-.38.923.923,0,0,1-.164-.546h.83a.47.47,0,0,0,.125.311.4.4,0,0,0,.3.115q.417,0,.417-.617,0-.571-.511-.571a.51.51,0,0,0-.432.186Z" transform="translate(-154.301 410.586)"/>
    </g>
    <g id="Group_16640" data-name="Group 16640" transform="translate(23.191 23.946)">
      <path id="Path_50048" data-name="Path 50048" d="M156.36-203.222v.651h-.037a1.243,1.243,0,0,0-.763.222.939.939,0,0,0-.367.618.967.967,0,0,1,.707-.275.9.9,0,0,1,.739.339,1.367,1.367,0,0,1,.275.889,1.251,1.251,0,0,1-.161.626,1.148,1.148,0,0,1-.449.446,1.291,1.291,0,0,1-.64.161,1.334,1.334,0,0,1-.68-.173,1.189,1.189,0,0,1-.466-.495,1.628,1.628,0,0,1-.172-.742v-.332a2.062,2.062,0,0,1,.237-.993,1.717,1.717,0,0,1,.677-.691,1.934,1.934,0,0,1,.975-.25Zm-.747,1.849a.473.473,0,0,0-.275.076.482.482,0,0,0-.165.187v.248q0,.678.469.678a.38.38,0,0,0,.316-.169.69.69,0,0,0,.126-.425.678.678,0,0,0-.129-.428A.412.412,0,0,0,155.613-201.373Z" transform="translate(-154.346 203.222)"/>
    </g>
    <g id="Group_16641" data-name="Group 16641" transform="translate(0.27 0.052)">
      <path id="Path_50049" data-name="Path 50049" d="M-17.891-408.275h-.466v1.265h-.862v-3.575h1.407a1.571,1.571,0,0,1,.995.282.956.956,0,0,1,.358.8,1.161,1.161,0,0,1-.151.618,1.072,1.072,0,0,1-.473.4l.747,1.444v.037h-.923Zm-.466-.663h.545a.489.489,0,0,0,.37-.129.5.5,0,0,0,.124-.361.505.505,0,0,0-.125-.363.484.484,0,0,0-.368-.132h-.545Z" transform="translate(19.219 410.586)"/>
    </g>
  </g>
  <path id="Path_50050" data-name="Path 50050" d="M-35.762-405.106H-55.528a8.018,8.018,0,0,1-8.009-8.009v-19.765a8.019,8.019,0,0,1,8.009-8.009h19.766a8.019,8.019,0,0,1,8.009,8.009v19.765A8.018,8.018,0,0,1-35.762-405.106Zm-19.766-34.276a6.508,6.508,0,0,0-6.5,6.5v19.765a6.508,6.508,0,0,0,6.5,6.5h19.766a6.508,6.508,0,0,0,6.5-6.5v-19.765a6.508,6.508,0,0,0-6.5-6.5Z" transform="translate(63.537 440.89)"/>
</svg>
