<svg xmlns="http://www.w3.org/2000/svg" width="8.974" height="15.151" viewBox="0 0 8.974 15.151">
  <g id="Group_16740" data-name="Group 16740" transform="translate(0 0)">
    <path id="Path_50122" data-name="Path 50122" d="M388.876-181.362a1.634,1.634,0,0,1-.119-.344c-.032-.27-.179-.367-.437-.371-.8-.012-.794-.016-.793.786,0,.523-.009,1.045,0,1.567,0,.366.1.448.462.446h.325c.339,0,.428-.074.433-.408,0-.281.142-.389.4-.384q.34.006.68.007c.464,0,.545-.082.546-.555q0-.444,0-.887c0-.266.09-.437.392-.431.243,0,.324-.16.333-.367s0-.414-.005-.621c0-.268.116-.438.4-.436.261,0,.358-.163.361-.376.014-.877.015-1.755.014-2.632a.312.312,0,0,0-.328-.341c-.233-.014-.329-.146-.311-.375.006-.078,0-.158,0-.237a.944.944,0,0,1,.771-1.09.408.408,0,0,1,.32.025,2.084,2.084,0,0,1,.992,1.8q.009,3.342,0,6.684a2.4,2.4,0,0,1-2.3,2.3c-1.37,0-2.742-.032-4.111.01a2.42,2.42,0,0,1-2.535-2.43c.01-1.8.025-3.606.032-5.41,0-.255-.041-.51-.052-.765a2.478,2.478,0,0,1,2.637-2.678,6.23,6.23,0,0,1,1.544.129,1.652,1.652,0,0,1,1.365,1.967c-.031.293-.025.591-.034.886-.009.27.1.424.392.439.331.017.412.117.411.439,0,.343-.087.444-.427.451a.338.338,0,0,0-.374.362c-.011.226,0,.453,0,.68a.322.322,0,0,1-.358.371c-.295-.008-.378.148-.374.405,0,.286.016.573-.006.857a3.278,3.278,0,0,1-.124.525Zm-3.351-.951c0,.519.062.581.573.578.479,0,.544-.072.544-.582s-.068-.579-.547-.581C385.59-182.9,385.525-182.832,385.525-182.313Zm0,1.688c0,.526.04.567.568.567.5,0,.546-.045.549-.527,0-.546-.041-.6-.505-.6C385.579-181.19,385.526-181.141,385.525-180.625Zm.584-3.936c-.555,0-.582.024-.584.513,0,.548.056.612.567.614.49,0,.548-.057.551-.564C386.646-184.525,386.613-184.56,386.109-184.561Zm-.023-1.043c.518,0,.552-.03.556-.512,0-.533-.056-.6-.547-.6-.508,0-.569.06-.57.579S385.547-185.6,386.086-185.6Z" transform="translate(-384.344 192.744)" fill="#e50019"/>
    <path id="Path_50123" data-name="Path 50123" d="M459.12-248.322q.012-.28.025-.56a.9.9,0,0,0-.57-.944,1.068,1.068,0,0,1-.626-.9,21.34,21.34,0,0,1-.219-2.218,1.058,1.058,0,0,1,.966-1.189,5.52,5.52,0,0,1,2.043.069.881.881,0,0,1,.72.912c-.044.8-.08,1.607-.189,2.4a1.25,1.25,0,0,1-.737,1,.7.7,0,0,0-.454.745c.016.463.012.926.006,1.389,0,.322-.156.46-.481.46s-.47-.136-.477-.462c-.006-.236,0-.473,0-.709Z" transform="translate(-453.386 254.196)" fill="#e50019"/>
  </g>
</svg>
