<svg id="Component_65_1" data-name="Component 65 – 1" xmlns="http://www.w3.org/2000/svg" width="28" height="28" viewBox="0 0 28 28">
  <g id="Group_16628" data-name="Group 16628" transform="translate(12.935 1.781)">
    <path id="Path_50032" data-name="Path 50032" d="M375.049-419.634a4.181,4.181,0,0,1,.634.282,2.206,2.206,0,0,1,.991,1.806c0,.069.012.138.021.232.195,0,.381,0,.568,0a1.474,1.474,0,0,1,1.376,1.1c.045.136.1.178.218.172.2-.01.4-.007.606,0a1.375,1.375,0,0,1,1.247,1.222,4,4,0,0,1,.02,1.009,1.417,1.417,0,0,1-1.183,1.335.845.845,0,0,1-.222.014.693.693,0,0,0-.863.513,1.206,1.206,0,0,1-1.183.75c-.188,0-.376,0-.6,0v.314q0,6.546,0,13.091a2.282,2.282,0,0,1-1.2,2.2c-.142.066-.29.111-.436.167h-2.023a4.015,4.015,0,0,1-.635-.28,2.312,2.312,0,0,1-1.008-2.086q0-2.683,0-5.366v-8.045c-.185,0-.351,0-.516,0a1.586,1.586,0,0,1-1.532-1.795q0-1.265,0-2.529a1.593,1.593,0,0,1,1.535-1.8h.5c.021-.188.026-.369.062-.541a2.088,2.088,0,0,1,1.428-1.716c.057-.018.113-.042.169-.063Zm-2.387,8.455v.2q0,6.621,0,13.241c0,.508.25.81.686.818s.85,0,1.275,0c.556,0,.786-.272.786-.92q0-6.538,0-13.076v-.271Zm1.841-4.636h-3.595c-.268,0-.3.042-.3.355q0,1.2,0,2.41c0,.315.045.366.319.366H374.3c.065,0,.13-.008.2-.013Zm1.29,3.132h1.365c.259,0,.305-.053.306-.358,0-.724,0-1.448,0-2.172,0-.681-.014-.6-.519-.6-.381,0-.763,0-1.153,0Zm-3.123-4.648H375.4c0-.474-.237-.791-.621-.8q-.747-.023-1.494,0C372.9-418.121,372.661-417.8,372.67-417.331Zm6.071,3.355h.73c0-.16.007-.3,0-.441,0-.047-.053-.124-.084-.126-.212-.011-.424-.006-.641-.006Z" transform="translate(-369.222 419.634)"/>
    <path id="Path_50033" data-name="Path 50033" d="M368.719-317.747a2.483,2.483,0,0,1,.338.041.469.469,0,0,1,.345.485.457.457,0,0,1-.39.448,2.628,2.628,0,0,1-.542.008.469.469,0,0,1-.445-.483.482.482,0,0,1,.431-.479,1.925,1.925,0,0,1,.261,0Z" transform="translate(-368.025 327.798)"/>
    <path id="Path_50034" data-name="Path 50034" d="M368.709-264.46a2.35,2.35,0,0,1-.262,0,.473.473,0,0,1-.425-.439.457.457,0,0,1,.369-.5,2.212,2.212,0,0,1,.62-.005.459.459,0,0,1,.386.51.473.473,0,0,1-.446.44c-.08.007-.161,0-.242,0Z" transform="translate(-368.02 280.637)"/>
    <path id="Path_50035" data-name="Path 50035" d="M370.484-212.077c.074,0,.148,0,.222,0a.487.487,0,0,1,.47.463.484.484,0,0,1-.429.5,2.488,2.488,0,0,1-.523,0,.474.474,0,0,1-.425-.5.472.472,0,0,1,.464-.464C370.336-212.081,370.41-212.077,370.484-212.077Z" transform="translate(-369.649 232.967)"/>
    <path id="Path_50036" data-name="Path 50036" d="M417.8-313.9q0-2.1,0-4.207a.644.644,0,0,1,.588-.695.627.627,0,0,1,.68.53,1.129,1.129,0,0,1,.014.2q0,4.176,0,8.353a.675.675,0,0,1-.431.706.642.642,0,0,1-.85-.641c0-.89,0-1.78,0-2.67Q417.8-313.11,417.8-313.9Z" transform="translate(-413.627 330.75)"/>
  </g>
  <g id="Group_16629" data-name="Group 16629" transform="translate(5.716 5.335)">
    <path id="Path_50037" data-name="Path 50037" d="M315.025-384.062v1.105h-.785v-3.257h1.3a1.515,1.515,0,0,1,.661.138,1.038,1.038,0,0,1,.445.391,1.069,1.069,0,0,1,.158.576.942.942,0,0,1-.341.762,1.415,1.415,0,0,1-.936.285Zm0-.606h.515a.485.485,0,0,0,.348-.114.424.424,0,0,0,.12-.322.524.524,0,0,0-.123-.365.436.436,0,0,0-.336-.139h-.524Z" transform="translate(-314.24 386.214)"/>
  </g>
  <g id="Group_16630" data-name="Group 16630" transform="translate(5.719 10.44)">
    <path id="Path_50038" data-name="Path 50038" d="M315.45-331.8h-.425v1.152h-.785V-333.9h1.282a1.431,1.431,0,0,1,.906.257.871.871,0,0,1,.327.726,1.057,1.057,0,0,1-.138.563.977.977,0,0,1-.431.362l.68,1.315v.034h-.841Zm-.425-.6h.5a.446.446,0,0,0,.337-.118.456.456,0,0,0,.113-.329.461.461,0,0,0-.114-.331.442.442,0,0,0-.336-.12h-.5Z" transform="translate(-314.24 333.904)"/>
  </g>
  <g id="Group_16631" data-name="Group 16631" transform="translate(5.722 15.544)">
    <path id="Path_50039" data-name="Path 50039" d="M316.96-278.337h-.781l-1.154-2.027v2.027h-.785v-3.257h.785l1.152,2.027v-2.027h.783Z" transform="translate(-314.24 281.594)"/>
  </g>
  <g id="Group_16632" data-name="Group 16632" transform="translate(5.716 21.228)">
    <path id="Path_50040" data-name="Path 50040" d="M314.24-226.027v-3.257h1.049a1.543,1.543,0,0,1,.776.2,1.376,1.376,0,0,1,.538.553,1.67,1.67,0,0,1,.2.8v.15a1.678,1.678,0,0,1-.189.8,1.382,1.382,0,0,1-.532.555,1.509,1.509,0,0,1-.766.2Zm.785-2.651v2.047h.273a.611.611,0,0,0,.519-.24,1.179,1.179,0,0,0,.181-.715v-.141a1.169,1.169,0,0,0-.181-.711.622.622,0,0,0-.528-.239Z" transform="translate(-314.24 229.284)"/>
  </g>
  <path id="Path_50041" data-name="Path 50041" d="M277.129-412.89H261.663a6.274,6.274,0,0,1-6.267-6.267v-15.466a6.274,6.274,0,0,1,6.267-6.267h15.466a6.274,6.274,0,0,1,6.267,6.267v15.466A6.274,6.274,0,0,1,277.129-412.89Zm-15.466-26.82a5.092,5.092,0,0,0-5.087,5.087v15.466a5.092,5.092,0,0,0,5.087,5.087h15.466a5.092,5.092,0,0,0,5.087-5.087v-15.466a5.092,5.092,0,0,0-5.087-5.087Z" transform="translate(-255.396 440.89)"/>
</svg>
