<svg xmlns="http://www.w3.org/2000/svg" xmlns:xlink="http://www.w3.org/1999/xlink" width="146" height="146" viewBox="0 0 146 146">
  <defs>
    <clipPath id="clip-path">
      <rect id="Rectangle_8063" data-name="Rectangle 8063" width="146" height="146" rx="43" transform="translate(-0.182 0.396)" fill="#fff" stroke="#707070" stroke-width="1"/>
    </clipPath>
  </defs>
  <g id="Mask_Group_442" data-name="Mask Group 442" transform="translate(0.182 -0.396)" clip-path="url(#clip-path)">
    <rect id="Rectangle_8062" data-name="Rectangle 8062" width="176" height="184" transform="translate(-17.182 -19.604)" fill="#fff"/>
    <path id="Rectangle_8062_-_Outline" data-name="Rectangle 8062 - Outline" d="M1,1V183H175V1H1M0,0H176V184H0Z" transform="translate(-17.182 -19.604)" fill="#707070"/>
    <g id="Group_13246" data-name="Group 13246" transform="translate(2052.714 354.135)">
      <path id="Path_36485" data-name="Path 36485" d="M-1923.178-76.136c-3.229,0-6.458-.027-9.687.009-2.081.023-4.161.149-6.242.21-2.77.081-5.54.134-8.31.222-1.029.033-2.06.093-3.082.213a2.4,2.4,0,0,0-1.96,1.491,18.891,18.891,0,0,0-.721,2.114,6.9,6.9,0,0,0-.117,1.673c-.045.52-.13,1.037-.2,1.555-.027.21-.152.264-.282.114a1.182,1.182,0,0,1-.337-.579c-.1-1.277-.217-2.557-.217-3.837a6.167,6.167,0,0,1,.648-2.96,1.906,1.906,0,0,1,.722-.689,7.727,7.727,0,0,1,2.292-.69,29.561,29.561,0,0,1,4.873-.232c1.79-.081,3.586-.08,5.368-.242,2.769-.252,5.542-.1,8.31-.193,1.863-.066,3.731-.077,5.586-.241,2.951-.26,5.9-.1,8.855-.2,1.881-.065,3.768-.074,5.641-.237,2.625-.228,5.25-.153,7.875-.129a17.522,17.522,0,0,1,2.343.343c.214.031.436.016.649.053.636.109,1.265.287,1.9.339a25.092,25.092,0,0,1,2.747.521c.633.124,1.262.278,1.9.356.608.074,1.226.069,1.84.089.057,0,.116-.066.174-.1-.057-.088-.094-.223-.174-.255-.426-.175-.863-.325-1.3-.483-.182-.067-.362-.139-.546-.2q-1.089-.351-2.182-.695c-.052-.016-.109-.014-.16-.03-.8-.259-1.584-.542-2.387-.772a14.741,14.741,0,0,0-1.479-.279c-.423-.075-.847-.142-1.271-.215-.334-.058-.41-.244-.211-.525a1.379,1.379,0,0,1,.244-.278,55.22,55.22,0,0,0,4.933-4.8c1.284-1.328,2.563-2.661,3.809-4.024a12.738,12.738,0,0,1,2.309-2.014,15.909,15.909,0,0,1,2.918-1.486c.806-.326,1.684-.35,2.454-.747a.668.668,0,0,1,.213-.038,36.609,36.609,0,0,1,7.045-.208c.882.053,1.764.127,2.643.217.429.044.85.152,1.276.222.388.064.78.112,1.168.177.5.083.991.177,1.486.263.334.058.67.108,1,.169.459.084.917.176,1.376.26.334.061.67.111,1,.175.511.1,1.021.207,1.531.312.175.036.348.08.524.108.6.1,1.207.191,1.81.29.282.046.562.1.843.152l2.12.373c.089.016.176.04.265.049.933.094,1.871.157,2.8.283a56.939,56.939,0,0,0,7.814.144,3.263,3.263,0,0,0,1-.189c.834-.278,1.714-.3,2.565-.554,1.01-.3,1.947-.78,2.974-1.026a10.632,10.632,0,0,0,1.554-.678c.474-.2.958-.376,1.438-.559q.843-.321,1.688-.636c.631-.236,1.262-.47,1.892-.707.381-.144.761-.288,1.138-.443.475-.2.943-.412,1.42-.605.74-.3,1.482-.6,2.229-.879.63-.238,1.265-.46,1.9-.675q1.011-.341,2.032-.653c.289-.088.588-.144.882-.213.366-.086.733-.171,1.1-.253.261-.058.521-.128.786-.163,1-.132,2-.319,3-.358,1.133-.044,2.272.05,3.408.084.036,0,.071.013.107.016.9.084,1.8.153,2.693.257.535.062,1.064.177,1.594.271.264.047.526.1.789.151.368.072.738.14,1.1.22,1.03.226,2.064.434,3.086.693.689.175,1.359.422,2.036.64.659.213,1.318.425,1.974.648.436.149.874.3,1.3.479.537.231,1.053.511,1.59.742.781.336,1.579.634,2.358.976.418.184.811.426,1.214.642.639.343,1.276.689,1.915,1.032s1.279.666,1.906,1.019c.972.546,1.945,1.091,2.9,1.672.781.477,1.509,1.043,2.3,1.5a3.059,3.059,0,0,0,1.846.615c.239-.025.469-.108.478-.336a.629.629,0,0,0-.3-.46c-.622-.335-1.274-.616-1.9-.945-.136-.071-.211-.258-.314-.391.139-.084.281-.245.417-.24.991.035,1.981.111,2.972.158.67.032,1.342.035,2.013.054a4.255,4.255,0,0,1,.6.033.841.841,0,0,1,.741,1.051c-.057.315-.161.621-.227.935-.089.419-.141.848-.248,1.262a13.866,13.866,0,0,1-.426,1.321.456.456,0,0,1-.27.212c-.474.158-.952.306-1.434.44a1.38,1.38,0,0,0-.9,1.07c-.019.616-.012,1.232-.011,1.849a.527.527,0,0,0,.415.546c.767.277,1.52.594,2.271.911a.743.743,0,0,1,.314.286c.411.665.807,1.34,1.206,2.012a.823.823,0,0,1,.134.285c.1.732.181,1.465.271,2.2a5.573,5.573,0,0,1,.122,1.018c-.085,1.3-.214,2.587-.318,3.881a10.739,10.739,0,0,0-.037,1.087,14.5,14.5,0,0,1-.354,2.338,22.052,22.052,0,0,1-.521,2.521,3.961,3.961,0,0,1-1.644,2.621c-.422.258-.837.529-1.271.767a.544.544,0,0,1-.451.044.5.5,0,0,1-.12-.423c.059-.371.174-.732.253-1.1a4.426,4.426,0,0,0,.142-.844c.021-1.269.012-2.539.025-3.808a15.43,15.43,0,0,0-.349-2.387,15.219,15.219,0,0,1-.557-2.177c0-.092-.128-.184-.2-.275-.061.089-.175.18-.172.267.011.284.079.566.1.851a8.69,8.69,0,0,1,.166,2.892,6.852,6.852,0,0,0-.2,1.5,8.3,8.3,0,0,1-.525,2.348,9.677,9.677,0,0,1-.557,1.435,10.286,10.286,0,0,1-1.645,2.464,20.447,20.447,0,0,1-1.646,1.481,3.894,3.894,0,0,1-.82.478q-.839.4-1.7.763a1.443,1.443,0,0,1-.532.083c-.943.009-1.886.022-2.828,0a3.521,3.521,0,0,1-.827-.209,8.749,8.749,0,0,1-3.912-2.464,9.864,9.864,0,0,1-2.145-3.142,9.474,9.474,0,0,1-.735-1.64,12.989,12.989,0,0,1-.551-2.463c.006-.989-.14-1.978-.149-2.968a17.269,17.269,0,0,1,.182-1.88,1.12,1.12,0,0,0,.008-.325,1.633,1.633,0,0,0-.13-.314c-.087.086-.226.159-.254.262-.178.653-.334,1.312-.494,1.97-.085.349-.175.7-.243,1.049a6.552,6.552,0,0,0-.165,1.113c-.02,1.324,0,2.648-.013,3.972a4.985,4.985,0,0,0,.331,1.683,1.281,1.281,0,0,1,.077.369,3.1,3.1,0,0,0,.354,1.34,3.078,3.078,0,0,1,.266,1.036c.032.282-.2.405-.461.41-.363.007-.726,0-1.088,0-.907-.007-1.814,0-2.721-.023-3.26-.067-6.522-.081-9.779-.225-6.217-.274-12.436-.067-18.653-.2q-4.971-.11-9.943-.222-2.659-.063-5.318-.153c-.178-.006-.484-.076-.5-.162a1.158,1.158,0,0,1,.144-.579c.222-.557.458-1.109.688-1.662a3.643,3.643,0,0,0,.2-.5,14.455,14.455,0,0,0,.686-3.249c.017-.919.176-1.836.168-2.753a11.94,11.94,0,0,0-.253-2.852c-.23-.892-.411-1.8-.727-2.686s-.7-1.705-.994-2.58a6.743,6.743,0,0,0-.547-1.027c-.1-.185-.193-.377-.312-.55a1.5,1.5,0,0,0-.27-.244,1.945,1.945,0,0,0-.111.322.548.548,0,0,0,.028.268c.245.666.5,1.33.746,2a1.847,1.847,0,0,1,.073.315,18.684,18.684,0,0,1,.376,2.173,12.179,12.179,0,0,1-.093,3.621c-.125.523-.17,1.064-.271,1.593-.05.261-.148.513-.217.771A14.484,14.484,0,0,1-1857.97-65a14.243,14.243,0,0,1-2.248,2.794,13.689,13.689,0,0,1-2.566,2.033,15.427,15.427,0,0,1-2.548,1.188,8.633,8.633,0,0,1-2.685.691c-.9.032-1.8.21-2.693.2a19.291,19.291,0,0,1-3.016-.274,12.849,12.849,0,0,1-2.085-.659,13.174,13.174,0,0,1-1.518-.627,16.875,16.875,0,0,1-1.693-.974,16.5,16.5,0,0,1-3.445-2.97,14.6,14.6,0,0,1-2.491-3.795,11.456,11.456,0,0,1-.724-1.594,8.422,8.422,0,0,1-.57-2.116,7.851,7.851,0,0,0-.213-1.106c-.079-.551-.154-1.1-.182-1.66a11.508,11.508,0,0,1,.012-1.74c.067-.658.223-1.306.338-1.959.028-.16.034-.323.068-.482a8.074,8.074,0,0,1,.217-.88,18.876,18.876,0,0,1,.678-1.849c.309-.673.687-1.315,1.055-1.958.185-.323.42-.616.62-.93.029-.045-.01-.134-.018-.2-.06.018-.139.018-.178.058a11.007,11.007,0,0,0-1.175,1.221,31.415,31.415,0,0,0-1.9,2.867,15.454,15.454,0,0,0-1.085,2.417,21.625,21.625,0,0,1-.708,2.187.613.613,0,0,0-.066.2,23.129,23.129,0,0,0-.426,4.84c.077.677.217,1.346.327,2.019.021.125.034.251.054.376a12.8,12.8,0,0,0,.25,1.426,12.349,12.349,0,0,0,1.018,2.794c.3.534.543,1.1.825,1.652.124.24.078.388-.186.43a5.035,5.035,0,0,1-.6.027c-2.135.08-4.276.082-6.4.26-2.916.243-5.83.144-8.745.142a5.03,5.03,0,0,1-1.053-.2,7.88,7.88,0,0,1-2.122-.7,3.115,3.115,0,0,1-1.327-1.384,5.943,5.943,0,0,1-.221-3.647,17.443,17.443,0,0,0,.246-1.818c.042-1.25.043-2.5.016-3.753a2.978,2.978,0,0,0-1.177-2.248,4.422,4.422,0,0,0-2.572-1.056c-.427-.031-.846-.166-1.271-.236a7.5,7.5,0,0,0-1.174-.147c-3.283-.012-6.567-.007-9.851-.007Zm114.905-1.134a.606.606,0,0,0,.426-.613,1.01,1.01,0,0,1,.073-.425,6.682,6.682,0,0,0,.548-2.984,13.793,13.793,0,0,0-.215-2.089.376.376,0,0,0-.026-.1,3.379,3.379,0,0,1-.382-1.5c.012-.255-.142-.342-.377-.351-.459-.017-.656.209-.44.71a19.1,19.1,0,0,1,.669,2.311,6.187,6.187,0,0,1,.042,2.938,5.672,5.672,0,0,0-.3,2.118c-.357.059-.444.305-.409.618.008.07.083.133.127.2.068-.048.185-.088.2-.147C-1808.3-76.81-1808.294-77.041-1808.273-77.27ZM-1820.679-98.4l0,.071a15.373,15.373,0,0,0-1.577.01c-.75.078-1.492.233-2.239.343-.622.092-1.251.141-1.869.255a18.644,18.644,0,0,0-1.823.435c-.6.173-1.177.4-1.765.6-.051.018-.108.019-.159.037-.617.219-1.239.425-1.848.663-.5.193-.975.426-1.464.636-.357.153-.714.306-1.077.442-.514.192-1.042.349-1.549.559-.523.216-1.019.5-1.543.712-.492.2-1.011.337-1.508.528a6.184,6.184,0,0,0-1.11.514,2.187,2.187,0,0,0-.566,2.572,1.419,1.419,0,0,0,.766.774,9.363,9.363,0,0,0,2.708.433,10.279,10.279,0,0,1,1.465.083.964.964,0,0,0,.786-.219c.485-.382.959-.779,1.435-1.173a.593.593,0,0,0,.225-.761c-.234-.449.031-.8.169-1.178.182-.5.613-.491,1.037-.466,1.207.071,2.413.168,3.621.212a5.316,5.316,0,0,1,1.838.372c.274.111.587.088.814.352.365.425.253.92.251,1.393s-.083.521-.557.528c-1.052.015-2.1.01-3.156.035-.431.011-.861.121-1.29.114a4.813,4.813,0,0,1-2.085-.09.484.484,0,0,0-.384.109c-.572.443-1.14.893-1.691,1.361a1.875,1.875,0,0,1-1.618.647,4.257,4.257,0,0,0-.92-.066.721.721,0,0,0-.505.17.8.8,0,0,0-.161.622.77.77,0,0,0,.7.563c.646.037,1.289.126,1.932.2.608.071,1.214.156,1.823.225a.432.432,0,0,0,.5-.23c.3-.563.125-.969-.511-1.053-.267-.035-.405-.133-.362-.414s.593-.864.865-.873a7.871,7.871,0,0,1,1.246.053c.712.091,1.417.243,2.129.329.786.1,1.578.147,2.367.215,1.061.091,2.122.178,3.183.268.2.017.4.032.593.062.693.107,1.381.243,2.077.326.8.1,1.614.15,2.422.219q1.537.132,3.075.259c.217.018.435.024.649.054.8.113,1.6.3,2.4.336a24.817,24.817,0,0,1,3.328.393,3.8,3.8,0,0,0,1.226-.078c.3-.046.579-.223.876-.253,1.058-.108,2.047-.5,3.084-.7.191-.035.368-.141.558-.186.99-.232,1.992-.421,2.971-.693a10.2,10.2,0,0,0,2.152-.627c.421-.223.819-.484.9-.967a1.788,1.788,0,0,0-.378-1.67,9.413,9.413,0,0,0-.744-.82,21.413,21.413,0,0,0-1.762-1.248,17.741,17.741,0,0,0-1.625-.9c-.521-.26-1.06-.486-1.6-.706-.573-.234-1.155-.445-1.735-.661-.5-.185-1-.367-1.5-.542-.706-.246-1.4-.522-2.124-.716-1-.269-2.015-.479-3.027-.7-.4-.088-.81-.14-1.214-.216-.21-.039-.418-.1-.627-.141-.4-.088-.805-.2-1.213-.255-.623-.089-1.251-.154-1.878-.209C-1818.411-98.223-1819.545-98.307-1820.679-98.4Zm-38.863,25.224-.013.055c-.451.024-.906.022-1.354.08-.731.094-1.453.259-2.185.334a4.383,4.383,0,0,0-2.5,1.1,4.894,4.894,0,0,0-1.643,3.952c.006.338.153.674.15,1.01a13.007,13.007,0,0,0,.7,3.41,4.962,4.962,0,0,0,.64,1.743c.319.443.629.564,1.1.312a11.447,11.447,0,0,0,2.826-2.026,22.95,22.95,0,0,0,2.07-2.346,16.105,16.105,0,0,0,1.3-2.239,6.514,6.514,0,0,0,.508-1.342,8.4,8.4,0,0,0,.527-2.352c0-.048.052-.095.069-.145a.894.894,0,0,0-.612-1.276A12.041,12.041,0,0,0-1859.542-73.174Zm-25.42-1.417c.085.731.16,1.464.261,2.194.054.39.147.775.23,1.16.079.365.145.736.259,1.091.195.606.406,1.208.639,1.8.386.984.882,1.31,1.869.624a18.24,18.24,0,0,0,2.371-1.942,7.927,7.927,0,0,0,2.366-3.213,4.591,4.591,0,0,0,.078-2.9,4.332,4.332,0,0,0-.759-1.629c-.782-.869-1.6-1.713-2.441-2.521a9.293,9.293,0,0,0-2.315-1.745c-.342-.166-.58-.109-.734.155a7.651,7.651,0,0,0-.845,1.7,20.116,20.116,0,0,0-.565,2.172A21.014,21.014,0,0,0-1884.962-74.591Zm14.2,15.019c.693-.091,1.394-.145,2.077-.285A.857.857,0,0,0-1868-60.9c-.258-.72-.5-1.445-.746-2.169-.029-.085-.025-.181-.057-.264-.2-.527-.386-1.061-.616-1.576-.194-.435-.479-.831-.659-1.27a4.576,4.576,0,0,0-1.827-2.074,2.825,2.825,0,0,0-1.065-.475,5.6,5.6,0,0,0-4.039.689c-.533.343-1.1.643-1.613,1.008-.718.508-1.41,1.053-2.106,1.592a1.073,1.073,0,0,0,.019,1.441,16.322,16.322,0,0,0,4.04,2.961,4.938,4.938,0,0,0,1.113.493c.675.164,1.325.407,2.011.554A16.15,16.15,0,0,0-1870.761-59.572Zm11.475-15.768c.251,0,.652.022,1.049-.006.506-.035,1.017-.563.944-1-.116-.686-.277-1.365-.43-2.045-.039-.172-.145-.329-.182-.5a10.275,10.275,0,0,0-1.05-2.538,14.6,14.6,0,0,0-1.542-2.353,8.475,8.475,0,0,0-2.167-1.927c-.733-.457-1.515-.836-2.274-1.252a.774.774,0,0,0-1.24.587,15.654,15.654,0,0,1-.54,2.011,23.93,23.93,0,0,0-.526,3.127,4.935,4.935,0,0,0,.147,1.764,3.891,3.891,0,0,0,.653,1.5,4.786,4.786,0,0,0,3.911,2.245,1.251,1.251,0,0,1,.27.029A9.315,9.315,0,0,0-1859.286-75.34Zm-14.909-4.534a6.982,6.982,0,0,1,.909-.2,3.674,3.674,0,0,0,2.3-1.2,11.324,11.324,0,0,0,1.7-2.851,6.409,6.409,0,0,0,.454-1.189c.2-.646.345-1.306.543-1.952.156-.508.075-.741-.442-.866a6.494,6.494,0,0,0-1.378-.214c-1.376-.028-2.753-.018-4.129-.01a6.98,6.98,0,0,0-3.421.955,13.644,13.644,0,0,0-3.05,2.347,1.083,1.083,0,0,0,.011,1.6,13.548,13.548,0,0,0,1.34,1.123,28.153,28.153,0,0,0,3.207,1.94C-1875.507-80.086-1874.823-80.129-1874.194-79.874Zm76.624,20.647c.237,0,.563.011.889,0s.576-.192.572-.524a3.882,3.882,0,0,0-.16-1.262c-.248-.685-.357-1.4-.643-2.087a4.566,4.566,0,0,0-1.57-2.38,2.093,2.093,0,0,0-2.066-.12,8.92,8.92,0,0,0-2.728,2.141.928.928,0,0,0-.124,1,8.528,8.528,0,0,0,1.934,1.944,7.783,7.783,0,0,0,1.977.979A4.632,4.632,0,0,0-1797.57-59.227Zm6.274-11.3c.236,0,.472,0,.707,0,.545-.012.6-.093.648-.629a7.473,7.473,0,0,0-.582-3.043,16.72,16.72,0,0,0-1.149-2.257,7.924,7.924,0,0,0-2.36-2.6c-.34-.257-.587-.174-.737.219a4.764,4.764,0,0,0-.456,1.923.812.812,0,0,1-.044.267,5.912,5.912,0,0,0-.322,2.66,5.514,5.514,0,0,0,.658,1.84,2.529,2.529,0,0,0,1.743,1.288A6.888,6.888,0,0,0-1791.3-70.529Zm-4.35,5.474c.061.312.136.626.181.944a17.686,17.686,0,0,0,.7,3.412c.145.412.459.554.826.293a11.76,11.76,0,0,0,.941-.768,8.18,8.18,0,0,0,1.579-1.975,9.6,9.6,0,0,0,.941-1.954,11.445,11.445,0,0,0,.6-2.826c.031-.535-.174-.833-.7-.838a11.408,11.408,0,0,0-2.006.04,3.987,3.987,0,0,0-1.669.639A4.249,4.249,0,0,0-1795.646-65.055Zm-.4-14.308c-.053-.738,0-.6-.638-.87a2.717,2.717,0,0,0-1.215-.141c-.569.04-1.128.224-1.7.261a3.663,3.663,0,0,0-1.457.607,7.1,7.1,0,0,0-2.181,1.9,1.553,1.553,0,0,0-.252.67c-.073.382.187.622.437.859a7.076,7.076,0,0,0,3.187,2.167,1.95,1.95,0,0,0,1.374-.242A3.6,3.6,0,0,0-1797-76.2c.316-.788.493-1.632.733-2.451C-1796.2-78.892-1796.123-79.127-1796.05-79.363Zm-9.584,9.377a8.138,8.138,0,0,0,.2,2.847c.256.628.173,1.346.6,1.934.268.368.566.507.882.194,1.153-1.143,2.39-2.212,2.764-3.929a4.269,4.269,0,0,0-.306-2.775,9.774,9.774,0,0,0-2.375-2.962c-.54-.5-.777-.454-1.109.2a.516.516,0,0,0-.04.1c-.144.533-.289,1.066-.429,1.6a3.766,3.766,0,0,0-.177.782C-1805.651-71.329-1805.635-70.658-1805.635-69.987Zm-8.836,7.452v.027a12.833,12.833,0,0,0,1.468-.012c.554-.064,1.184-.084,1.413-.756a8.9,8.9,0,0,0,.251-1.1c.071-.35.13-.7.195-1.054.085-.458.168-.916.257-1.373.034-.174.09-.344.127-.518.112-.525.229-1.049.32-1.577.016-.092-.086-.2-.134-.307a1.051,1.051,0,0,0-.277.213c-.249.386-.459.8-.719,1.177-.489.716-.983,1.431-1.512,2.117a4.564,4.564,0,0,1-1.513,1.378,8.629,8.629,0,0,1-1.37.42,5.562,5.562,0,0,1-1.892.371,1.17,1.17,0,0,0-.324.027,12.786,12.786,0,0,1-3.264.41,5.547,5.547,0,0,0-1.011.128,2.5,2.5,0,0,0-.466.186,3.78,3.78,0,0,0,.522.082Q-1818.436-62.607-1814.471-62.535ZM-1872.7-74.405a1.789,1.789,0,0,0,1.736,1.859,1.781,1.781,0,0,0,1.723-1.759,1.851,1.851,0,0,0-1.782-1.861A1.706,1.706,0,0,0-1872.7-74.405Zm23.979-5.422-.05-.012a1.536,1.536,0,0,0,0-.217c-.027-.188-.062-.374-.094-.561-.1.2-.217.388-.307.59a1.045,1.045,0,0,0-.022.269,2.363,2.363,0,0,1-.113.689,2.974,2.974,0,0,0-.341,1.346.839.839,0,0,1-.058.319,8.25,8.25,0,0,0-.4,1.666c-.137.773-.344,1.533-.478,2.313a17.869,17.869,0,0,0-.376,2.169,8.167,8.167,0,0,1-.281,1.921,2.536,2.536,0,0,0,.568,2.3,3.85,3.85,0,0,0,1.357,1.076,1.66,1.66,0,0,0,.274.1,1.042,1.042,0,0,0-.11-.294c-.38-.485-.772-.962-1.157-1.443a2.241,2.241,0,0,1-.325-1.322,5.41,5.41,0,0,1,.11-1.016c.035-.3.047-.614.1-.915.1-.6.234-1.194.345-1.791.036-.2.038-.4.075-.592.118-.633.247-1.264.367-1.9.034-.177.044-.358.078-.535.115-.6.236-1.193.353-1.789.048-.246.091-.493.142-.738C-1848.952-78.741-1848.835-79.284-1848.721-79.827Zm33.749-4.224-.006.047c-.308,0-.616-.009-.923,0a.685.685,0,0,0-.571,1.043.436.436,0,0,0,.342.119,6.438,6.438,0,0,1,.726-.114q1.837.1,3.671.249a.914.914,0,0,1,.454.3.712.712,0,0,0,.864.133c.307-.165.336-.345.246-.761a.649.649,0,0,0-.724-.568,4.534,4.534,0,0,1-.488-.028Q-1813.177-83.839-1814.972-84.05Zm16.3,14.314a1.642,1.642,0,0,0,0,.29,1.131,1.131,0,0,0,.651.863.722.722,0,0,0,.88-.22,1.94,1.94,0,0,0,.29-.6,1.544,1.544,0,0,0-.3-1.382.78.78,0,0,0-.318-.167C-1798.147-71.133-1798.771-70.637-1798.673-69.736ZM-1871-77.061a.913.913,0,0,0,.861-.778,1.166,1.166,0,0,0-.834-.924.992.992,0,0,0-.848.882A.911.911,0,0,0-1871-77.061Zm3.93,1.8a.9.9,0,0,0-.795-.895.881.881,0,0,0-.747.834.794.794,0,0,0,.743.871A.776.776,0,0,0-1867.066-75.259Zm-5.22,3.7a.807.807,0,0,0-.81-.869.917.917,0,0,0-.722.812.89.89,0,0,0,.781.864A.789.789,0,0,0-1872.286-71.56Zm-2.62-4c0,.549.265.829.767.814a.932.932,0,0,0,.739-.787.94.94,0,0,0-.805-.853C-1874.655-76.366-1874.907-76.068-1874.906-75.559Zm6.569,4.052c0-.585-.168-.761-.716-.765a.74.74,0,0,0-.793.742.9.9,0,0,0,.81.837C-1868.57-70.7-1868.334-70.97-1868.338-71.507Zm68.351.868c-.01.281.086.492.394.524.245.025.434-.194.442-.484.009-.318-.178-.571-.435-.56C-1799.91-71.143-1799.987-70.916-1799.986-70.639Zm4.079.883a3.448,3.448,0,0,0,.369-.626.506.506,0,0,0-.36-.559.422.422,0,0,0-.463.472C-1796.345-70.258-1796.116-70.065-1795.908-69.756Zm-3.025,1.443a.5.5,0,0,0-.406.534c.013.247.294.58.439.488a.972.972,0,0,0,.38-.5C-1798.453-68.014-1798.739-68.319-1798.933-68.313Zm1.887.49c.1.3.049.6.43.6a.592.592,0,0,0,.483-.485c0-.206-.378-.651-.527-.574S-1796.92-67.982-1797.046-67.823Zm-.258-4.555a1.9,1.9,0,0,0-.416-.453c-.139-.077-.5.339-.5.536a.517.517,0,0,0,.493.463C-1797.374-71.827-1797.387-72.077-1797.3-72.378Zm-51.467-9.275.093.553c.1-.135.251-.26.28-.409a2.253,2.253,0,0,0-.038-.627s-.086-.011-.094,0C-1848.623-81.956-1848.709-81.777-1848.771-81.653Z" transform="translate(-81.709 -197.985)" fill="#e50019"/>
      <g id="Group_13245" data-name="Group 13245" transform="translate(-2046.021 -321.8)">
        <path id="Path_36486" data-name="Path 36486" d="M-2036.162-256.731h9.035a4.2,4.2,0,0,0,.543-.021c.076-.01.2-.079.2-.13a.274.274,0,0,0-.121-.226,3.515,3.515,0,0,0-1.442-.506c-2.194.038-4.39,0-6.584-.03a1.531,1.531,0,0,1-.792-.25.571.571,0,0,1-.187-.7,8.169,8.169,0,0,0,.546-3.008,6.083,6.083,0,0,0-.332-1.464,14.991,14.991,0,0,1-.915-2.621,16.5,16.5,0,0,1-.533-3.522c.06-1.266-.017-2.539.023-3.807a2.343,2.343,0,0,1,1.328-2.008,18.042,18.042,0,0,0,3.857-2.84,1.74,1.74,0,0,0,.382-1.884,8.33,8.33,0,0,1-.369-1.68,7.178,7.178,0,0,0-.227-1.053,6.171,6.171,0,0,1-.181-1.057c-.026-1.051-.032-2.1,0-3.154a6.675,6.675,0,0,1,.214-1.214,12.642,12.642,0,0,1,1.268-2.937c.649-1.29,1.307-2.575,1.954-3.866.389-.777.757-1.564,1.146-2.341.494-.987.955-2,1.513-2.946a5.335,5.335,0,0,1,2.348-2.093,6.956,6.956,0,0,1,3.17-.393,3.35,3.35,0,0,1,1.836.683,26,26,0,0,1,3.389,2.753c1.364,1.2,2.761,2.362,4.143,3.541.42.358.825.735,1.265,1.067a1.028,1.028,0,0,0,.631.224c1.131-.091,2.257-.239,3.388-.338.577-.051,1.16-.025,1.738-.063.252-.016.628.116.709-.213a1.135,1.135,0,0,0-.22-.732,1.734,1.734,0,0,0-1.165-.855,1.514,1.514,0,0,1-1.268-.954,2.163,2.163,0,0,0-.371-.582,2.6,2.6,0,0,1-.175-2.118c.025-.154.236-.279.361-.417a2.742,2.742,0,0,1,.3.325c.268.4.514.812.785,1.207s.318.394.731.167c.389-.214.778-.43,1.161-.654.313-.183.336-.382.143-.717-.247-.429-.489-.863-.7-1.312a.536.536,0,0,1,.037-.472.47.47,0,0,1,.444-.039,4.559,4.559,0,0,1,1.337.844,8.588,8.588,0,0,1,.969,1.7c.049.1-.006.247-.019.372-.051.481-.121.961-.149,1.444a.936.936,0,0,0,.148.446c.25.472.5.948.78,1.4a.832.832,0,0,0,.792.472,1.262,1.262,0,0,1,1.189.61,4.238,4.238,0,0,1,1.008,3.3,1.6,1.6,0,0,0,.311,1.317,13.717,13.717,0,0,1,.958,1.6.6.6,0,0,0,.82.288,5.211,5.211,0,0,1,1.679-.376,3.539,3.539,0,0,0,.675-.173c1.011-.237,2.029-.444,3.031-.712.811-.217,1.6-.524,2.4-.76.667-.2,1.349-.343,2.022-.52.19-.05.369-.14.559-.192.861-.236,1.738-.425,2.582-.711a4.955,4.955,0,0,1,1.658-.431c.084,0,.169-.144.253-.221-.1-.052-.209-.159-.3-.148-.588.068-1.174.16-1.76.25a6.5,6.5,0,0,1-.9.147,7.463,7.463,0,0,0-2.12.376,5.106,5.106,0,0,1-.591.074c-.652.116-1.307.221-1.953.367-.408.092-.681-.042-1.018-.513-.745-1.042-1.47-2.1-2.279-3.1-1.126-1.381-2.275-2.748-3.5-4.043-1.331-1.41-2.755-2.734-4.145-4.089-.726-.707-1.445-1.424-2.2-2.094-1.337-1.182-2.7-2.335-4.058-3.493-1-.853-1.985-1.727-3.024-2.531-1.237-.957-2.542-1.828-3.785-2.777a10.671,10.671,0,0,1-1.6-1.485,1.749,1.749,0,0,1-.4-2.032,2.231,2.231,0,0,1,1.9-1.226c.678-.057,1.348-.213,2.021-.324a2.823,2.823,0,0,1,.428-.061,16.357,16.357,0,0,0,3.38-.409c.262-.057.545-.016.813-.055.818-.118,1.633-.255,2.45-.38a2.959,2.959,0,0,1,.433-.035,13.978,13.978,0,0,0,3.265-.413,1.617,1.617,0,0,1,.379-.029,14.235,14.235,0,0,0,3.106-.4c.227-.051.471-.02.7-.051.909-.122,1.816-.257,2.724-.381a5.272,5.272,0,0,1,.651-.046,12.259,12.259,0,0,0,2.832-.4.586.586,0,0,1,.108-.014c1.407-.077,2.814-.2,4.223-.215a9.577,9.577,0,0,1,2.634.248,17.256,17.256,0,0,1,2.759.7,15.737,15.737,0,0,0,1.843.551,10.8,10.8,0,0,1,1.3.49c.787.367,1.553.777,2.336,1.152.432.207.892.355,1.318.571.568.288,1.117.613,1.671.927,1.24.7,2.482,1.4,3.715,2.119.506.294.992.623,1.486.937.6.381,1.2.756,1.8,1.148.711.47,1.439.921,2.112,1.441,1.277.985,2.559,1.97,3.77,3.033a64.6,64.6,0,0,1,6.177,5.9c1.356,1.552,2.661,3.15,3.967,4.744.991,1.209,1.971,2.429,2.911,3.677.533.707.976,1.482,1.461,2.226.155.238.306.48.478.7a.271.271,0,0,0,.244.054.253.253,0,0,0,.139-.193,2.537,2.537,0,0,0-.079-.636c-.105-.359-.237-.711-.374-1.059-.235-.6-.5-1.182-.722-1.781q-.393-1.049-.737-2.115c-.079-.245-.032-.47.3-.512.427-.053.851-.134,1.278-.184q1.77-.209,3.542-.4c.27-.029.543-.029.815-.031a42.718,42.718,0,0,0,5.185-.4,4.3,4.3,0,0,1,.489-.014c1.27-.02,2.548.049,3.807-.077,2.294-.23,4.594-.094,6.887-.228,4.656-.274,9.315-.094,13.972-.152,1.36-.017,2.723-.025,4.08.038,1.041.049,2.076.22,3.115.327a8.665,8.665,0,0,0,.923.046,8.557,8.557,0,0,1,2.5.388,1.579,1.579,0,0,0,.215.032c.55.083,1.106.138,1.648.257.767.169,1.521.4,2.286.579s1.534.345,2.3.515a1.5,1.5,0,0,1,.162.018c.554.192,1.1.4,1.662.581.728.241,1.466.453,2.19.7a11.739,11.739,0,0,1,1.12.478c.835.388,1.663.794,2.5,1.178.724.333,1.463.634,2.184.972.415.195.809.436,1.213.656.637.348,1.275.693,1.909,1.046.665.37,1.326.746,1.988,1.121.692.393,1.381.792,2.075,1.182a1.011,1.011,0,0,0,.311.087,18.321,18.321,0,0,0,3.673.219c1.142-.021,2.285.009,3.427.017a1.947,1.947,0,0,1,1.262.536,1.568,1.568,0,0,1,.315,1.739,3.7,3.7,0,0,0-.377,1.5,5.513,5.513,0,0,1-.226,1.053,12.339,12.339,0,0,0-.121,4.266,4.077,4.077,0,0,0,.848,2,5.156,5.156,0,0,1,.867,2.214,14.759,14.759,0,0,1,.141,4.38c-.146,1.3-.123,2.6-.2,3.892a9.778,9.778,0,0,1-.226,1.275,32.115,32.115,0,0,1-.653,3.157,5.01,5.01,0,0,1-2.091,3.239,16.328,16.328,0,0,1-2.326,1.274c-.347.133-.669.331-1.012.475-.328.138-.672.234-1,.369-.1.039-.161.152-.24.231.083.056.16.149.249.16a5.111,5.111,0,0,0,.651.022l12.9,0a3.445,3.445,0,0,1,.542.027.254.254,0,0,1,.172.162.245.245,0,0,1-.118.2c-.713.319-1.43.63-2.149.936-.377.161-.764.3-1.139.467a26.023,26.023,0,0,1-2.579,1.148,13.6,13.6,0,0,1-1.893.585c-.828.142-1.656.1-2.475.208-2.131.274-4.271.09-6.405.187-1.79.081-3.587.086-5.368.26-2.371.231-4.744.075-7.114.188-1.554.074-3.116.081-4.661.245-2.28.242-4.563.077-6.842.186-1.609.077-3.224.087-4.824.248-2.442.246-4.889.079-7.331.2-1.5.071-3.006.085-4.5.238-2.514.258-5.035.08-7.549.2-1.481.072-2.962.167-4.444.222-2.134.079-4.27.121-6.4.2-1.772.064-3.55.085-5.312.256-2.389.231-4.78.074-7.167.189-1.427.069-2.86.087-4.28.233-2.568.264-5.143.087-7.712.207-1.464.069-2.934.081-4.388.239-2.171.236-4.345.079-6.515.179-1.7.078-3.4.09-5.1.252-2.605.25-5.215.083-7.821.2-1.191.055-2.383.147-3.573.137-1.155-.01-2.311-.119-3.464-.21-.392-.031-.777-.153-1.168-.207-.57-.079-1.146-.119-1.715-.2-.693-.1-1.381-.239-2.074-.343a6.52,6.52,0,0,0-.973-.075,6.17,6.17,0,0,1-1.9-.347,3.608,3.608,0,0,0-1.184-.093,10.083,10.083,0,0,1-2.78-.364,2.655,2.655,0,0,0-.649-.054,13.679,13.679,0,0,1-3.05-.405,1.924,1.924,0,0,0-.433-.032,13.771,13.771,0,0,1-3.048-.405c-.21-.046-.435-.014-.65-.044-.872-.122-1.743-.254-2.615-.38-.107-.016-.217-.019-.324-.033-1.072-.138-2.144-.281-3.217-.413-.251-.031-.51-.009-.76-.044-.818-.114-1.634-.251-2.452-.364a6.6,6.6,0,0,0-.921-.063,10,10,0,0,1-2.56-.379,1.4,1.4,0,0,0-.215-.029l-2.641-.261c-.843-.083-1.688-.145-2.528-.252-.5-.063-.987-.2-1.481-.295a2.854,2.854,0,0,0-.534-.074,13.966,13.966,0,0,1-3.1-.408,2.11,2.11,0,0,0-.488-.035,13.207,13.207,0,0,1-2.939-.4,3.41,3.41,0,0,0-.7-.044,13.617,13.617,0,0,1-2.776-.393,3.109,3.109,0,0,0-.65-.043,14.113,14.113,0,0,1-2.833-.387,4.5,4.5,0,0,0-.921-.057,8.13,8.13,0,0,1-2.068-.36,6.636,6.636,0,0,0-1.079-.1,2.944,2.944,0,0,1-.431-.047.2.2,0,0,1-.108-.157.2.2,0,0,1,.12-.147,6.108,6.108,0,0,1,.7-.043q4.517,0,9.035,0Zm9.884-24.2.014.013c.025-.194-.014-.435.087-.574a9.126,9.126,0,0,1,1.054-1.257c.793-.756,1.617-1.48,2.448-2.194a3.657,3.657,0,0,1,.788-.451c.084-.041.278-.042.3,0,.217.476.644.289,1,.335-.1.206.1.519-.256.645a4.347,4.347,0,0,0-.686.36c-.154.088-.278.159-.389-.069-.047-.1-.181-.149-.275-.222a1.125,1.125,0,0,0-.041.385c.195.742.149.844-.533,1.127-.08.033-.129.143-.192.218.065.052.128.145.2.149.444.025.629.362.835.671a1.07,1.07,0,0,0,1.729.068,2.851,2.851,0,0,0,.5-1.608,2.528,2.528,0,0,0-.446-1.444c-.138-.2-.245-.28-.46-.264-.087-.373.086-.476.436-.47.834.015,1.67.021,2.5-.009a.707.707,0,0,0,.509-.291c.1-.172.01-.374-.164-.567a1.289,1.289,0,0,0-1.1-.437c-.326.013-.653-.009-.979,0-.463.014-.947-.059-1.31.359-.066.076-.236.064-.359.089a1.224,1.224,0,0,0-.369.074c-.39.231-.748.523-1.153.722a11.106,11.106,0,0,0-2.259,1.657,13.171,13.171,0,0,0-2.857,3.459,4.692,4.692,0,0,0-.765,2.795,1.406,1.406,0,0,0,1.648,1.324.927.927,0,0,0,.26-.145,1.174,1.174,0,0,0-.185-.254,4.12,4.12,0,0,1-.429-.284c-.546-.572-.343-1.283-.326-1.955,0-.051.126-.1.193-.149.046.068.126.133.132.2a4.711,4.711,0,0,0,.02.65c.05.213.129.5.288.589a2.284,2.284,0,0,1,.815.753c.165.247.5.285.6.117.278-.462.684-.4,1.09-.4a.4.4,0,0,0,.423-.331,2.511,2.511,0,0,0-.443-.1c-.4-.019-.8,0-1.191-.032-.079-.006-.146-.163-.218-.251.085-.048.172-.14.255-.137a1,1,0,0,0,.782-.28,2.514,2.514,0,0,0,.712-1.892,2.622,2.622,0,0,0-.656-1.58c-.051-.077-.212-.08-.322-.117-.026.108-.112.265-.069.316.185.221-.006.322-.131.369C-2025.569-281.117-2025.927-281.03-2026.278-280.927Zm21.39,6.807v-.017c3.284,0,6.567-.005,9.851.007a7.5,7.5,0,0,1,1.174.147c.425.07.844.206,1.271.236a4.421,4.421,0,0,1,2.572,1.056,2.977,2.977,0,0,1,1.177,2.248c.027,1.251.026,2.5-.016,3.753a17.444,17.444,0,0,1-.246,1.818,5.942,5.942,0,0,0,.221,3.647,3.115,3.115,0,0,0,1.327,1.384,7.879,7.879,0,0,0,2.122.7,5.031,5.031,0,0,0,1.053.2c2.915,0,5.829.1,8.745-.142,2.126-.177,4.268-.18,6.4-.26a5.038,5.038,0,0,0,.6-.027c.263-.042.31-.19.186-.43-.282-.547-.52-1.118-.825-1.652a12.35,12.35,0,0,1-1.018-2.794,12.773,12.773,0,0,1-.25-1.426c-.021-.125-.034-.251-.054-.376-.11-.673-.25-1.342-.327-2.019a23.129,23.129,0,0,1,.426-4.84.611.611,0,0,1,.066-.2,21.656,21.656,0,0,0,.708-2.187,15.465,15.465,0,0,1,1.085-2.417,31.392,31.392,0,0,1,1.9-2.867,11,11,0,0,1,1.175-1.221c.039-.039.118-.039.178-.058.008.069.047.157.018.2-.2.314-.435.608-.62.93-.368.643-.746,1.286-1.055,1.958a18.876,18.876,0,0,0-.678,1.849,8.047,8.047,0,0,0-.217.88c-.034.158-.04.322-.068.482-.114.653-.271,1.3-.338,1.959a11.507,11.507,0,0,0-.012,1.74c.028.555.1,1.109.182,1.66a7.852,7.852,0,0,1,.213,1.106,8.422,8.422,0,0,0,.57,2.116,11.458,11.458,0,0,0,.724,1.594,14.6,14.6,0,0,0,2.491,3.795,16.5,16.5,0,0,0,3.445,2.97,16.9,16.9,0,0,0,1.693.974,13.167,13.167,0,0,0,1.518.627,12.847,12.847,0,0,0,2.085.659,19.291,19.291,0,0,0,3.016.274c.9.011,1.794-.167,2.693-.2a8.633,8.633,0,0,0,2.685-.691,15.424,15.424,0,0,0,2.549-1.188,13.688,13.688,0,0,0,2.566-2.033,14.238,14.238,0,0,0,2.248-2.794,14.483,14.483,0,0,0,1.588-3.706c.069-.258.168-.51.217-.771.1-.529.146-1.07.271-1.593a12.175,12.175,0,0,0,.093-3.621,18.659,18.659,0,0,0-.376-2.173,1.871,1.871,0,0,0-.073-.315c-.247-.666-.5-1.329-.747-2a.548.548,0,0,1-.028-.268,1.945,1.945,0,0,1,.111-.322,1.508,1.508,0,0,1,.271.244c.118.174.21.365.312.55a6.723,6.723,0,0,1,.547,1.027c.294.874.682,1.712.994,2.58s.5,1.794.728,2.686a11.952,11.952,0,0,1,.253,2.852c.008.917-.151,1.834-.168,2.753a14.461,14.461,0,0,1-.686,3.249,3.675,3.675,0,0,1-.2.5c-.23.554-.466,1.105-.688,1.662a1.157,1.157,0,0,0-.144.579c.017.086.324.156.5.162q2.659.09,5.318.153,4.971.117,9.943.222c6.217.138,12.437-.069,18.653.2,3.257.143,6.519.158,9.779.225.907.019,1.814.016,2.721.023.363,0,.726.01,1.088,0,.264-.005.493-.128.461-.41a3.075,3.075,0,0,0-.266-1.036,3.1,3.1,0,0,1-.354-1.34,1.285,1.285,0,0,0-.077-.369,4.991,4.991,0,0,1-.331-1.683c.015-1.324-.007-2.648.013-3.972a6.564,6.564,0,0,1,.165-1.113c.067-.352.158-.7.243-1.049.16-.658.316-1.317.494-1.97.028-.1.167-.175.254-.262a1.649,1.649,0,0,1,.13.314,1.133,1.133,0,0,1-.008.325,17.24,17.24,0,0,0-.183,1.88c.009.99.155,1.979.149,2.968a13.008,13.008,0,0,0,.551,2.463,9.484,9.484,0,0,0,.735,1.64,9.866,9.866,0,0,0,2.145,3.142,8.75,8.75,0,0,0,3.912,2.464,3.522,3.522,0,0,0,.827.209c.942.025,1.885.012,2.828,0a1.442,1.442,0,0,0,.532-.083q.858-.359,1.7-.763a3.9,3.9,0,0,0,.82-.478,20.465,20.465,0,0,0,1.646-1.481,10.29,10.29,0,0,0,1.645-2.464,9.7,9.7,0,0,0,.557-1.435,8.307,8.307,0,0,0,.525-2.348,6.844,6.844,0,0,1,.2-1.5,8.687,8.687,0,0,0-.166-2.892c-.019-.284-.088-.566-.1-.851,0-.087.111-.178.172-.267.069.092.2.184.2.275a15.235,15.235,0,0,0,.557,2.177,15.417,15.417,0,0,1,.349,2.387c-.013,1.269,0,2.539-.025,3.808a4.426,4.426,0,0,1-.142.844c-.079.368-.194.729-.253,1.1a.5.5,0,0,0,.12.423.544.544,0,0,0,.451-.044c.434-.238.849-.509,1.271-.767a3.96,3.96,0,0,0,1.644-2.621,22.053,22.053,0,0,0,.521-2.521,14.51,14.51,0,0,0,.354-2.338,10.74,10.74,0,0,1,.037-1.087c.1-1.294.232-2.586.318-3.881a5.606,5.606,0,0,0-.122-1.018c-.09-.733-.174-1.466-.271-2.2a.826.826,0,0,0-.134-.285c-.4-.673-.8-1.347-1.206-2.012a.743.743,0,0,0-.314-.286c-.751-.317-1.5-.634-2.271-.911a.527.527,0,0,1-.414-.546c0-.616-.008-1.233.011-1.849a1.379,1.379,0,0,1,.9-1.07c.482-.134.96-.282,1.434-.44a.456.456,0,0,0,.27-.212,13.829,13.829,0,0,0,.426-1.321c.107-.414.159-.843.248-1.262.066-.313.171-.62.227-.934a.841.841,0,0,0-.741-1.051,4.251,4.251,0,0,0-.6-.033c-.671-.019-1.342-.023-2.012-.054-.991-.047-1.981-.123-2.972-.158-.136,0-.278.156-.417.24.1.133.179.32.314.391.626.329,1.278.61,1.9.945a.629.629,0,0,1,.3.46c-.009.228-.239.312-.478.336a3.059,3.059,0,0,1-1.846-.615c-.792-.457-1.52-1.023-2.3-1.5-.951-.581-1.924-1.126-2.9-1.672-.628-.353-1.271-.679-1.906-1.019s-1.277-.688-1.915-1.032c-.4-.217-.8-.459-1.214-.642-.779-.342-1.577-.64-2.358-.976-.537-.231-1.053-.511-1.59-.742-.423-.182-.86-.331-1.3-.479-.655-.223-1.315-.435-1.974-.648-.677-.219-1.348-.465-2.036-.64-1.022-.259-2.056-.468-3.086-.693-.366-.08-.736-.148-1.1-.22-.263-.052-.526-.1-.789-.151-.531-.094-1.06-.209-1.594-.271-.9-.1-1.8-.173-2.693-.257-.036,0-.071-.015-.107-.016-1.136-.035-2.275-.128-3.408-.084-1,.039-2,.226-3,.358-.264.035-.525.1-.786.163-.367.082-.734.168-1.1.253-.295.069-.594.125-.882.213q-1.02.313-2.032.653c-.638.215-1.273.437-1.9.675-.747.282-1.489.579-2.229.879-.476.193-.944.409-1.419.605-.376.155-.757.3-1.137.443-.63.238-1.262.471-1.893.708q-.845.316-1.688.636c-.48.183-.964.359-1.438.559a10.633,10.633,0,0,1-1.554.678c-1.026.246-1.963.73-2.974,1.026-.851.25-1.731.276-2.565.554a3.263,3.263,0,0,1-1,.189,56.939,56.939,0,0,1-7.814-.144c-.929-.126-1.866-.189-2.8-.283-.089-.009-.177-.034-.265-.049l-2.12-.373c-.281-.05-.561-.106-.843-.152-.6-.1-1.207-.191-1.81-.29-.176-.029-.349-.073-.524-.108-.51-.1-1.02-.213-1.531-.312-.333-.065-.669-.114-1-.175-.459-.084-.917-.177-1.377-.26-.334-.061-.67-.111-1-.169-.5-.086-.99-.18-1.486-.263-.388-.065-.779-.112-1.168-.177-.426-.071-.848-.178-1.276-.222-.879-.09-1.761-.164-2.643-.217a36.6,36.6,0,0,0-7.045.208.67.67,0,0,0-.213.038c-.77.4-1.648.421-2.454.747a15.907,15.907,0,0,0-2.918,1.486,12.737,12.737,0,0,0-2.309,2.014c-1.246,1.363-2.525,2.7-3.809,4.024a55.218,55.218,0,0,1-4.933,4.8,1.371,1.371,0,0,0-.244.278c-.2.281-.124.467.211.525.423.073.848.14,1.271.215a14.741,14.741,0,0,1,1.479.279c.8.229,1.592.513,2.387.772.051.017.109.014.16.03q1.091.345,2.182.695c.184.059.364.132.546.2.433.158.87.308,1.3.483.079.033.117.168.174.255-.058.035-.117.1-.174.1-.614-.02-1.232-.015-1.84-.089-.639-.078-1.268-.232-1.9-.356a25.1,25.1,0,0,0-2.747-.521c-.64-.053-1.268-.23-1.9-.339-.213-.037-.435-.022-.649-.053a17.531,17.531,0,0,0-2.343-.343c-2.625-.024-5.25-.1-7.875.129-1.873.163-3.76.172-5.641.237-2.951.1-5.9-.062-8.855.2-1.855.164-3.723.175-5.586.241-2.769.1-5.541-.059-8.31.193-1.782.162-3.578.161-5.368.242a29.559,29.559,0,0,0-4.873.232,7.724,7.724,0,0,0-2.292.69,1.905,1.905,0,0,0-.722.689,6.165,6.165,0,0,0-.649,2.96c0,1.279.116,2.56.217,3.837a1.181,1.181,0,0,0,.336.579c.13.15.255.1.282-.114.066-.518.151-1.035.2-1.555a6.91,6.91,0,0,1,.117-1.673,18.943,18.943,0,0,1,.721-2.114,2.4,2.4,0,0,1,1.96-1.491c1.022-.119,2.053-.18,3.082-.213,2.769-.088,5.54-.14,8.31-.222,2.081-.061,4.161-.187,6.242-.21C-2011.346-274.147-2008.117-274.121-2004.887-274.121Zm-22.206,13.894v-.013c.744,0,1.487.01,2.231,0,.429-.008.608-.2.534-.555a6.472,6.472,0,0,0-.255-.929c-.239-.636-.106-.872.556-.889q3.583-.1,7.166-.181c.653-.015,1.306-.009,1.959-.011q5.685-.021,11.371-.045c.429,0,.831.025,1.073.442a10.587,10.587,0,0,1,.576,1.062,1.235,1.235,0,0,0,1.327.865c2.1-.044,4.2-.1,6.3-.143.236-.005.472.006.707-.005.385-.019.534-.229.351-.562-.306-.555-.642-1.095-.991-1.624a3.274,3.274,0,0,1-.75-2.068,1.244,1.244,0,0,0-.027-.379,13.374,13.374,0,0,1-.384-3.159,7.031,7.031,0,0,0-.067-1.03c-.1-.675-.27-1.342-.325-2.019a1.2,1.2,0,0,0-.536-.937,2.13,2.13,0,0,0-1.252-.427c-2.376,0-4.752-.048-7.127-.021-4.239.047-8.479-.111-12.717.158-2.383.151-4.774.185-7.162.252-1.432.04-2.865.053-4.3.056a2.8,2.8,0,0,0-1.379.4.739.739,0,0,0-.425.689,3.94,3.94,0,0,1-.041.868,17.681,17.681,0,0,0-.422,3.483,13.459,13.459,0,0,1-.283,1.754,3.273,3.273,0,0,0,.126,2.169c.38.718.757,1.44,1.183,2.13s.454.676,1.3.675Zm23.521-27.238q0,.059.005.118c1.368-.1,2.737-.2,4.1-.313.417-.034.454-.121.263-.5s-.371-.774-.582-1.147c-.424-.751-.657-.857-1.284-.73-.491.1-.993.147-1.491.21-.251.032-.505.035-.754.075-.691.111-1.378.241-2.069.352-.249.04-.513.014-.754.077a8.473,8.473,0,0,1-2.231.37,2.659,2.659,0,0,0-.7.086,3.94,3.94,0,0,1-2.727-.3,22.474,22.474,0,0,1-2.037-1.161c-.519-.311-1.026-.64-1.531-.974-.712-.471-1.411-.961-2.125-1.427a.565.565,0,0,0-.907.182c-.478.747-.939,1.5-1.431,2.242-.648.973-1.327,1.925-1.971,2.9-.091.138-.054.361-.076.545.173,0,.347.013.52.006.047,0,.089-.06.139-.078.635-.233,1.269-.466,1.906-.693a1.783,1.783,0,0,1,.269-.032c.44-.081.881-.159,1.318-.252a4.8,4.8,0,0,1,.455-.158c.807-.084,1.615-.181,2.425-.214a22.287,22.287,0,0,1,5.166.4c.3.058.594.159.9.187.97.091,1.941.181,2.913.227C-2005.1-287.435-2004.334-287.464-2003.573-287.464Zm22.382-2.154,0,.033c.435,0,.871.013,1.305-.008.143-.007.391-.09.4-.162a.847.847,0,0,0-.127-.526,1.688,1.688,0,0,0-1.406-.636,6.959,6.959,0,0,0-3.6.713,16.38,16.38,0,0,0-3.558,2.287,16.656,16.656,0,0,0-4.719,5.8,5.117,5.117,0,0,0-.533,2.6,2,2,0,0,0,.617,1.321c.8.769,1.757.58,2.7.505.054,0,.143-.128.137-.187s-.1-.146-.168-.171a4.154,4.154,0,0,1-.7-.214,1.805,1.805,0,0,1-1.02-1.887c.036-.3.045-.61.1-.909.013-.073.153-.123.235-.184a.878.878,0,0,1,.083.241,10.7,10.7,0,0,0,.028,1.086c.022.161.2.3.3.45.44-.329.534.155.748.33a5.332,5.332,0,0,1,.427.472.648.648,0,0,0,.859.134,3.078,3.078,0,0,1,.6-.22,9.832,9.832,0,0,0,1.176-.332,14.306,14.306,0,0,0,1.335-.73c.35-.2.708-.386,1.039-.613a13.309,13.309,0,0,0,1.536-1.139c.659-.61,1.257-1.285,1.868-1.946.066-.071.038-.228.054-.346a1.182,1.182,0,0,0-.341,0c-.554.165-1.007.619-1.648.56-.1-.009-.24.152-.3.267a1.449,1.449,0,0,0-.227.6c-.03.651-.5.966-.941,1.294a16.436,16.436,0,0,1-2.271,1.417,3.636,3.636,0,0,1-1.586.354.945.945,0,0,1-.913-.462c-.053-.085-.1-.175-.145-.263a1.122,1.122,0,0,1,.276.008,1.767,1.767,0,0,0,2.079-1.575,5.849,5.849,0,0,0,.044-1.647,2.357,2.357,0,0,0-.932-1.611c-.115-.093-.349-.041-.528-.055.075.122.146.246.226.365.028.042.094.062.116.1.044.089.124.237.092.272-.07.077-.228.163-.3.131-.379-.166-.622.085-.871.268a1.138,1.138,0,0,0-.534.945c0,.114-.211.226-.325.339-.066-.134-.224-.31-.185-.4.311-.682.456-1.475,1.2-1.891a.9.9,0,0,0,.248-.326,3.656,3.656,0,0,1,.291-.507,16.262,16.262,0,0,1,5.9-4.422.46.46,0,0,1,.415.045c.184.215-.107.176-.181.26a.3.3,0,0,0-.084.18c0,.029.1.085.152.083C-1982.232-289.548-1981.711-289.584-1981.191-289.618Zm-.632,2.88a3.1,3.1,0,0,0-.106-.963,3.417,3.417,0,0,0-1.274-1.586.807.807,0,0,0-.7-.015,4.63,4.63,0,0,0-.849.776.618.618,0,0,0-.14.325c-.011.073.054.157.085.237.078-.037.213-.062.224-.114.075-.353.414-.45.621-.671a.426.426,0,0,1,.7,0c.072.075.162.133.232.209.089.1.166.2.248.3-.123.05-.252.155-.367.141a1.1,1.1,0,0,0-.987.406,1.173,1.173,0,0,0-.381.732c-.011.1-.149.181-.229.27a1.546,1.546,0,0,1-.15-.291c-.029-.1.005-.223-.028-.322a1.8,1.8,0,0,0-.185-.321c-.07.111-.188.218-.2.335a8.729,8.729,0,0,0-.02.922c0,.289-.132.436-.427.436s-.616.009-.924.012c-.344,0-.69-.015-1.032.014-.151.013-.419.117-.42.183-.005.309.271.2.445.218a4.31,4.31,0,0,0,.488.008c.561.007,1.123.022,1.684.021a.638.638,0,0,1,.623.4,2.9,2.9,0,0,0,.689.79,1.379,1.379,0,0,0,1.458-.136A3.181,3.181,0,0,0-1981.822-286.738Zm-40.941,8.67a1.229,1.229,0,0,0,.315-.11c.556-.4,1.133-.775,1.649-1.222.623-.539,1.2-1.136,1.778-1.72.066-.067.058-.207.085-.314a1.478,1.478,0,0,0-.283.068,11.254,11.254,0,0,1-1.392.63c-.536.159-.73.3-.87.858a1.115,1.115,0,0,1-.3.52c-.34.316-.72.59-1.072.894a.393.393,0,0,0-.112.269C-2022.969-278.152-2022.836-278.11-2022.763-278.068Z" transform="translate(2046.021 321.8)"/>
        <path id="Path_36487" data-name="Path 36487" d="M-1805.558-240.611a5.825,5.825,0,0,1,4.464,1.833,4.384,4.384,0,0,1,1.164,2.874c.035.848.251,1.107,1.037,1.415a15.3,15.3,0,0,1,1.65.842c.211.114.434.308.317.554a1.733,1.733,0,0,1-.586.724,1,1,0,0,1-.738-.017c-.573-.2-1.123-.457-1.689-.676a2.3,2.3,0,0,0-.573-.129.6.6,0,0,0-.681.484,4.541,4.541,0,0,1-2.468,2.591,4.385,4.385,0,0,1-1.979.425,4.707,4.707,0,0,1-3.84-1.827,6.028,6.028,0,0,1-.921-2.02,5.939,5.939,0,0,1,.119-3.1,4.554,4.554,0,0,1,2.432-3.409A3.8,3.8,0,0,1-1805.558-240.611Z" transform="translate(1836.212 249.482)"/>
        <path id="Path_36488" data-name="Path 36488" d="M-1908.316,140.273c-.562,0-1.124,0-1.687,0-.844,0-.87.018-1.3-.675s-.8-1.412-1.183-2.13a3.273,3.273,0,0,1-.126-2.169,13.5,13.5,0,0,0,.283-1.754,17.663,17.663,0,0,1,.422-3.483,3.955,3.955,0,0,0,.041-.868.739.739,0,0,1,.425-.689,2.8,2.8,0,0,1,1.379-.4c1.433,0,2.866-.016,4.3-.056,2.388-.067,4.779-.1,7.162-.252,4.238-.268,8.478-.111,12.717-.158,2.375-.026,4.751.025,7.127.021a2.13,2.13,0,0,1,1.252.427,1.2,1.2,0,0,1,.536.937c.055.677.226,1.344.325,2.019a7.03,7.03,0,0,1,.067,1.03,13.373,13.373,0,0,0,.384,3.159,1.244,1.244,0,0,1,.027.379,3.274,3.274,0,0,0,.75,2.068c.349.529.685,1.069.991,1.624.183.333.034.543-.351.562-.235.012-.471,0-.707.005-2.1.047-4.2.1-6.3.143a1.235,1.235,0,0,1-1.327-.864,10.634,10.634,0,0,0-.576-1.062c-.242-.417-.644-.445-1.074-.442q-5.685.029-11.371.045c-.653,0-1.306,0-1.959.011q-3.583.084-7.166.181c-.662.018-.795.253-.556.889a6.486,6.486,0,0,1,.255.929c.075.352-.1.546-.534.555-.743.014-1.487,0-2.23,0Z" transform="translate(1927.244 -78.699)" fill="#e50019"/>
        <path id="Path_36489" data-name="Path 36489" d="M-1805.86-50.785c-.761,0-1.524.029-2.283-.007-.973-.046-1.943-.136-2.913-.227-.3-.029-.6-.129-.9-.187a22.286,22.286,0,0,0-5.166-.4c-.81.034-1.618.13-2.426.214a4.8,4.8,0,0,0-.455.158c-.437.094-.878.171-1.318.252a1.78,1.78,0,0,0-.269.032c-.637.226-1.271.459-1.906.693-.05.018-.092.077-.139.078-.173.007-.346,0-.52-.006.022-.184-.016-.406.076-.545.643-.976,1.322-1.928,1.971-2.9.491-.738.953-1.5,1.431-2.242a.565.565,0,0,1,.907-.182c.714.467,1.413.957,2.125,1.427.5.334,1.012.663,1.531.974a22.473,22.473,0,0,0,2.037,1.161,3.94,3.94,0,0,0,2.727.3,2.66,2.66,0,0,1,.7-.086,8.472,8.472,0,0,0,2.231-.37c.241-.064.5-.037.754-.077.691-.111,1.378-.241,2.069-.352.249-.04.5-.043.754-.075.5-.064,1-.111,1.491-.21.627-.127.86-.021,1.284.73.21.373.389.764.582,1.147s.154.466-.263.5c-1.368.111-2.736.21-4.1.313C-1805.857-50.706-1805.859-50.746-1805.86-50.785Z" transform="translate(1848.309 85.121)" fill="#fff"/>
        <path id="Path_36490" data-name="Path 36490" d="M-1550.816-37.059c-.521.034-1.041.07-1.562.1-.052,0-.152-.053-.152-.083a.3.3,0,0,1,.084-.18c.075-.084.366-.044.181-.26a.46.46,0,0,0-.415-.045,16.262,16.262,0,0,0-5.9,4.422,3.629,3.629,0,0,0-.291.507.9.9,0,0,1-.249.326c-.743.416-.887,1.209-1.2,1.891-.039.086.118.262.185.4.114-.113.325-.225.325-.339a1.138,1.138,0,0,1,.534-.945c.25-.183.492-.434.871-.268.073.032.231-.054.3-.131.032-.035-.048-.183-.092-.272-.021-.043-.087-.063-.116-.1-.08-.118-.151-.243-.226-.365.179.014.412-.038.528.055a2.358,2.358,0,0,1,.932,1.611,5.849,5.849,0,0,1-.044,1.647,1.768,1.768,0,0,1-2.079,1.575,1.12,1.12,0,0,0-.276-.008c.048.088.092.178.145.263a.945.945,0,0,0,.913.462,3.636,3.636,0,0,0,1.586-.354,16.44,16.44,0,0,0,2.271-1.417c.442-.328.911-.642.941-1.294a1.454,1.454,0,0,1,.228-.6c.064-.115.209-.276.3-.267.641.059,1.094-.394,1.649-.56a1.182,1.182,0,0,1,.341,0c-.016.117.012.274-.054.346-.61.661-1.209,1.336-1.868,1.946a13.291,13.291,0,0,1-1.536,1.139c-.33.227-.689.415-1.038.613a14.3,14.3,0,0,1-1.335.73,9.838,9.838,0,0,1-1.176.332,3.076,3.076,0,0,0-.6.22.647.647,0,0,1-.859-.133,5.33,5.33,0,0,0-.427-.472c-.214-.175-.308-.659-.748-.33-.106-.149-.281-.289-.3-.45a10.7,10.7,0,0,1-.028-1.086.877.877,0,0,0-.083-.241c-.082.061-.222.111-.235.184-.053.3-.063.606-.1.909a1.805,1.805,0,0,0,1.02,1.887,4.151,4.151,0,0,0,.7.214c.071.025.162.107.168.171s-.083.183-.137.187c-.944.075-1.9.264-2.7-.505a2,2,0,0,1-.617-1.321,5.12,5.12,0,0,1,.533-2.6,16.657,16.657,0,0,1,4.719-5.8,16.377,16.377,0,0,1,3.558-2.287,6.959,6.959,0,0,1,3.6-.713,1.688,1.688,0,0,1,1.406.636.848.848,0,0,1,.127.526c-.009.073-.257.155-.4.162-.434.021-.87.008-1.305.008Zm-.3-.591.434-.347c-.107-.06-.219-.176-.319-.167a1.7,1.7,0,0,0-.457.177Z" transform="translate(1615.647 69.241)" fill="#fff"/>
        <path id="Path_36491" data-name="Path 36491" d="M-1877.117,1.236c-.351-.046-.778.142-1-.335-.017-.038-.212-.037-.3,0a3.655,3.655,0,0,0-.788.451c-.831.714-1.656,1.438-2.448,2.194a9.108,9.108,0,0,0-1.054,1.257c-.1.139-.062.38-.087.574-.2.261-.412.519-.6.788-.028.038.019.129.031.2.06-.025.153-.034.173-.077.138-.3.26-.613.387-.92.351-.1.709-.189,1.05-.318.125-.047.316-.148.131-.369-.042-.051.043-.208.069-.316.11.037.271.04.322.117a2.621,2.621,0,0,1,.656,1.58,2.513,2.513,0,0,1-.712,1.892,1,1,0,0,1-.782.28c-.083,0-.17.089-.255.137.073.088.139.245.218.251.4.031.794.014,1.191.032a2.511,2.511,0,0,1,.443.1.4.4,0,0,1-.423.331c-.406,0-.812-.061-1.09.4-.1.168-.437.131-.6-.117a2.284,2.284,0,0,0-.815-.753c-.159-.088-.239-.376-.288-.589a4.73,4.73,0,0,1-.02-.65c-.006-.071-.086-.137-.132-.2-.067.05-.191.1-.193.149-.017.672-.22,1.383.326,1.955a4.117,4.117,0,0,0,.429.284,1.17,1.17,0,0,1,.184.254.924.924,0,0,1-.26.145A1.406,1.406,0,0,1-1885,8.634a4.692,4.692,0,0,1,.765-2.795,13.171,13.171,0,0,1,2.857-3.459,11.1,11.1,0,0,1,2.259-1.657c.4-.2.762-.491,1.153-.722a1.225,1.225,0,0,1,.369-.074c.123-.025.293-.013.359-.089.363-.419.847-.346,1.31-.359.326-.01.653.013.979,0a1.289,1.289,0,0,1,1.1.437c.174.193.265.395.164.567a.708.708,0,0,1-.51.291c-.833.03-1.669.024-2.5.009-.35-.007-.523.1-.436.47Z" transform="translate(1902.542 35.504)" fill="#fff"/>
        <path id="Path_36492" data-name="Path 36492" d="M-1508.013-21.353a3.181,3.181,0,0,1-.92,2.322,1.379,1.379,0,0,1-1.458.136,2.9,2.9,0,0,1-.689-.79.639.639,0,0,0-.623-.4c-.561,0-1.123-.013-1.684-.021a4.317,4.317,0,0,1-.488-.008c-.174-.022-.451.091-.445-.218,0-.066.269-.171.42-.183.342-.029.688-.011,1.032-.014.308,0,.616-.012.924-.012s.427-.146.427-.436a8.763,8.763,0,0,1,.02-.922c.012-.117.13-.224.2-.335a1.8,1.8,0,0,1,.185.321c.034.1,0,.22.028.322a1.554,1.554,0,0,0,.151.291c.08-.09.217-.173.229-.27a1.173,1.173,0,0,1,.381-.732,1.1,1.1,0,0,1,.988-.406c.114.015.244-.091.367-.141-.082-.1-.159-.209-.248-.3-.07-.076-.161-.134-.232-.209a.426.426,0,0,0-.7,0c-.207.221-.547.318-.622.671-.011.052-.146.077-.224.114-.031-.079-.1-.164-.085-.237a.619.619,0,0,1,.14-.325,4.626,4.626,0,0,1,.849-.776.807.807,0,0,1,.7.015,3.418,3.418,0,0,1,1.274,1.586A3.1,3.1,0,0,1-1508.013-21.353Z" transform="translate(1572.212 56.415)" fill="#fff"/>
        <path id="Path_36493" data-name="Path 36493" d="M-1831.934,15.657c.215-.016.322.069.46.264a2.528,2.528,0,0,1,.446,1.444,2.85,2.85,0,0,1-.5,1.608,1.07,1.07,0,0,1-1.729-.068c-.206-.309-.391-.647-.835-.671-.068,0-.13-.1-.2-.149.063-.074.112-.184.192-.218.681-.283.727-.384.533-1.127a1.125,1.125,0,0,1,.041-.385c.094.073.229.126.275.222.111.227.235.157.389.069a4.34,4.34,0,0,1,.686-.36c.358-.126.153-.439.256-.645Z" transform="translate(1857.344 21.098)" fill="#fff"/>
        <path id="Path_36494" data-name="Path 36494" d="M-1834.083,52.321c-.073-.042-.205-.084-.2-.125a.393.393,0,0,1,.112-.269c.352-.3.732-.578,1.072-.894a1.115,1.115,0,0,0,.3-.52c.14-.557.334-.7.87-.858a11.253,11.253,0,0,0,1.392-.63,1.479,1.479,0,0,1,.283-.068c-.026.106-.019.247-.085.314-.583.583-1.156,1.181-1.778,1.72-.516.447-1.093.823-1.649,1.222A1.229,1.229,0,0,1-1834.083,52.321Z" transform="translate(1857.341 -8.589)" fill="#fff"/>
        <path id="Path_36495" data-name="Path 36495" d="M-892.984-88.359c1.134.091,2.269.175,3.4.275.627.055,1.255.12,1.878.209.408.058.81.167,1.214.255.209.046.417.1.627.141.4.075.813.127,1.214.216,1.011.223,2.027.433,3.027.7.72.193,1.418.47,2.124.716.5.175,1,.357,1.5.542.58.216,1.162.427,1.736.661.54.22,1.079.446,1.6.706a17.737,17.737,0,0,1,1.625.9,21.413,21.413,0,0,1,1.762,1.248,9.412,9.412,0,0,1,.743.82,1.788,1.788,0,0,1,.378,1.67c-.078.483-.477.744-.9.967a10.2,10.2,0,0,1-2.152.627c-.979.271-1.981.46-2.971.693-.19.045-.367.151-.558.186-1.037.193-2.026.587-3.084.7-.3.03-.578.207-.876.253a3.8,3.8,0,0,1-1.226.078,24.821,24.821,0,0,0-3.328-.393c-.8-.036-1.6-.223-2.4-.336-.215-.03-.433-.036-.649-.054q-1.538-.129-3.075-.259c-.808-.069-1.617-.123-2.422-.219-.7-.083-1.384-.219-2.077-.326-.2-.03-.4-.045-.593-.062-1.061-.09-2.122-.177-3.183-.268-.789-.068-1.581-.12-2.367-.215-.713-.086-1.417-.238-2.129-.329a7.871,7.871,0,0,0-1.246-.053c-.273.009-.824.605-.865.873s.095.379.362.414c.635.083.813.49.511,1.053a.432.432,0,0,1-.5.23c-.608-.068-1.215-.154-1.823-.225-.643-.075-1.286-.164-1.932-.2a.77.77,0,0,1-.7-.563.8.8,0,0,1,.161-.622.721.721,0,0,1,.505-.17,4.257,4.257,0,0,1,.92.066,1.875,1.875,0,0,0,1.618-.647c.551-.468,1.119-.918,1.691-1.361a.484.484,0,0,1,.385-.109,4.813,4.813,0,0,0,2.085.09c.429.007.859-.1,1.29-.114,1.052-.026,2.1-.02,3.156-.035.475-.007.555-.067.557-.528s.115-.968-.251-1.393c-.227-.264-.541-.241-.814-.352a5.316,5.316,0,0,0-1.838-.372c-1.208-.044-2.414-.141-3.621-.212-.424-.025-.854-.032-1.037.466-.138.377-.4.729-.169,1.178a.593.593,0,0,1-.225.761c-.476.393-.95.79-1.435,1.173a.964.964,0,0,1-.785.219,10.283,10.283,0,0,0-1.465-.083,9.363,9.363,0,0,1-2.708-.433,1.419,1.419,0,0,1-.766-.774,2.187,2.187,0,0,1,.566-2.572,6.18,6.18,0,0,1,1.11-.514c.5-.192,1.016-.327,1.508-.528.524-.214,1.02-.5,1.543-.712.507-.209,1.035-.366,1.549-.559.363-.136.721-.289,1.077-.442.489-.21.969-.443,1.464-.636.61-.237,1.231-.444,1.848-.663.051-.018.108-.019.159-.037.588-.2,1.169-.427,1.765-.6a18.638,18.638,0,0,1,1.823-.435c.618-.114,1.247-.163,1.869-.255.747-.11,1.488-.265,2.238-.343a15.373,15.373,0,0,1,1.577-.01Z" transform="translate(1036.617 113.776)"/>
        <circle id="Ellipse_3151" data-name="Ellipse 3151" cx="16.349" cy="16.349" r="16.349" transform="translate(76.74 33.878)" fill="#fff"/>
        <ellipse id="Ellipse_3152" data-name="Ellipse 3152" cx="9.756" cy="11.409" rx="9.756" ry="11.409" transform="translate(156.869 43.441)" fill="#fff"/>
        <path id="Path_36496" data-name="Path 36496" d="M-1146.7,143.311a12.041,12.041,0,0,1,1.583.267.9.9,0,0,1,.613,1.276c-.017.051-.07.1-.069.145a8.4,8.4,0,0,1-.527,2.352,6.513,6.513,0,0,1-.508,1.342,16.106,16.106,0,0,1-1.3,2.239,22.949,22.949,0,0,1-2.07,2.346,11.445,11.445,0,0,1-2.826,2.026c-.473.252-.782.131-1.1-.312a4.963,4.963,0,0,1-.64-1.743,13.006,13.006,0,0,1-.7-3.41c0-.336-.144-.673-.15-1.01a4.895,4.895,0,0,1,1.643-3.952,4.383,4.383,0,0,1,2.5-1.1c.732-.075,1.454-.24,2.185-.334.447-.057.9-.055,1.354-.08Z" transform="translate(1251.473 -92.67)"/>
        <path id="Path_36497" data-name="Path 36497" d="M-1317.231,71.6a21.03,21.03,0,0,1,.414-3.054,20.2,20.2,0,0,1,.564-2.172,7.663,7.663,0,0,1,.846-1.7c.154-.263.392-.321.734-.155a9.293,9.293,0,0,1,2.315,1.745c.844.808,1.658,1.652,2.441,2.521a4.332,4.332,0,0,1,.759,1.629,4.592,4.592,0,0,1-.078,2.9,7.927,7.927,0,0,1-2.366,3.213,18.224,18.224,0,0,1-2.371,1.942c-.987.686-1.483.36-1.869-.624-.233-.592-.444-1.194-.639-1.8-.114-.355-.179-.725-.259-1.091-.083-.385-.177-.77-.23-1.16C-1317.071,73.063-1317.146,72.33-1317.231,71.6Z" transform="translate(1396.581 -22.374)"/>
        <path id="Path_36498" data-name="Path 36498" d="M-1270.567,192.468a16.145,16.145,0,0,1-2.782-.42c-.686-.147-1.336-.389-2.011-.554a4.937,4.937,0,0,1-1.113-.493,16.32,16.32,0,0,1-4.041-2.961,1.073,1.073,0,0,1-.019-1.441c.7-.539,1.387-1.085,2.106-1.592.517-.365,1.08-.665,1.613-1.008a5.6,5.6,0,0,1,4.039-.689,2.825,2.825,0,0,1,1.065.475,4.577,4.577,0,0,1,1.827,2.074c.18.44.464.836.658,1.27.23.514.416,1.048.616,1.576.031.083.028.18.056.264.246.724.488,1.449.746,2.169a.856.856,0,0,1-.684,1.044C-1269.173,192.324-1269.874,192.377-1270.567,192.468Z" transform="translate(1364.119 -128.225)"/>
        <path id="Path_36499" data-name="Path 36499" d="M-1146.868,27.142a9.315,9.315,0,0,1-2.978-.359,1.251,1.251,0,0,0-.27-.029,4.786,4.786,0,0,1-3.911-2.245,3.891,3.891,0,0,1-.653-1.5,4.935,4.935,0,0,1-.147-1.764,23.93,23.93,0,0,1,.526-3.127,15.654,15.654,0,0,0,.54-2.011.774.774,0,0,1,1.24-.587c.759.416,1.541.795,2.275,1.252a8.475,8.475,0,0,1,2.167,1.927,14.6,14.6,0,0,1,1.542,2.353,10.275,10.275,0,0,1,1.05,2.538c.037.172.143.329.182.5.154.679.314,1.358.43,2.045.073.432-.438.96-.944,1C-1146.216,27.164-1146.616,27.142-1146.868,27.142Z" transform="translate(1251.894 21.333)"/>
        <path id="Path_36500" data-name="Path 36500" d="M-1274.458,12.262c-.629-.255-1.313-.212-1.956-.523a28.151,28.151,0,0,1-3.207-1.94,13.535,13.535,0,0,1-1.34-1.123,1.083,1.083,0,0,1-.011-1.6,13.642,13.642,0,0,1,3.05-2.347,6.98,6.98,0,0,1,3.421-.955c1.376-.008,2.753-.018,4.129.01a6.5,6.5,0,0,1,1.378.214c.517.125.6.359.442.866-.2.645-.347,1.306-.543,1.952a6.4,6.4,0,0,1-.454,1.19,11.324,11.324,0,0,1-1.7,2.851,3.673,3.673,0,0,1-2.3,1.2A6.982,6.982,0,0,0-1274.458,12.262Z" transform="translate(1364.576 31.679)"/>
        <path id="Path_36501" data-name="Path 36501" d="M-563.087,217.454a4.631,4.631,0,0,1-1.919-.313,7.782,7.782,0,0,1-1.977-.979,8.529,8.529,0,0,1-1.934-1.944.928.928,0,0,1,.124-1,8.92,8.92,0,0,1,2.728-2.141,2.093,2.093,0,0,1,2.066.12,4.567,4.567,0,0,1,1.57,2.38c.287.683.4,1.4.643,2.087a3.885,3.885,0,0,1,.16,1.262c0,.332-.244.51-.572.524S-562.849,217.454-563.087,217.454Z" transform="translate(729.829 -152.866)"/>
        <path id="Path_36502" data-name="Path 36502" d="M-492.5,96.566a6.888,6.888,0,0,1-1.893-.335,2.529,2.529,0,0,1-1.743-1.288,5.518,5.518,0,0,1-.658-1.84,5.912,5.912,0,0,1,.322-2.66.811.811,0,0,0,.044-.267,4.764,4.764,0,0,1,.456-1.923c.15-.393.4-.476.737-.219a7.924,7.924,0,0,1,2.36,2.6,16.73,16.73,0,0,1,1.149,2.257,7.473,7.473,0,0,1,.582,3.043c-.045.537-.1.617-.648.629C-492.028,96.571-492.264,96.566-492.5,96.566Z" transform="translate(665.515 -43.28)"/>
        <path id="Path_36503" data-name="Path 36503" d="M-496.9,187.318a4.249,4.249,0,0,1,1.392-3.031,3.987,3.987,0,0,1,1.669-.639,11.406,11.406,0,0,1,2.006-.04c.524.005.729.3.7.838a11.437,11.437,0,0,1-.6,2.826,9.6,9.6,0,0,1-.941,1.954,8.178,8.178,0,0,1-1.579,1.975,11.745,11.745,0,0,1-.941.768c-.367.261-.681.119-.826-.293a17.679,17.679,0,0,1-.7-3.412C-496.769,187.944-496.844,187.63-496.9,187.318Z" transform="translate(665.571 -128.558)"/>
        <path id="Path_36504" data-name="Path 36504" d="M-561.6,78.1c-.073.236-.149.471-.218.708-.24.819-.417,1.663-.733,2.451a3.6,3.6,0,0,1-1.489,2.057,1.95,1.95,0,0,1-1.374.242A7.076,7.076,0,0,1-568.6,81.4c-.249-.237-.51-.476-.437-.859a1.554,1.554,0,0,1,.252-.67,7.1,7.1,0,0,1,2.181-1.9,3.662,3.662,0,0,1,1.457-.607c.569-.037,1.127-.221,1.7-.261a2.718,2.718,0,0,1,1.215.141C-561.6,77.506-561.652,77.366-561.6,78.1Z" transform="translate(729.861 -33.652)"/>
        <path id="Path_36505" data-name="Path 36505" d="M-588.858,131.418c0-.671-.017-1.343.008-2.013a3.766,3.766,0,0,1,.177-.782c.14-.534.285-1.067.429-1.6a.524.524,0,0,1,.04-.1c.333-.65.569-.7,1.109-.2a9.774,9.774,0,0,1,2.375,2.962,4.269,4.269,0,0,1,.305,2.775c-.374,1.717-1.611,2.786-2.764,3.929-.316.313-.614.175-.882-.194-.427-.587-.344-1.306-.6-1.934A8.135,8.135,0,0,1-588.858,131.418Z" transform="translate(747.536 -77.589)"/>
        <path id="Path_36506" data-name="Path 36506" d="M-738.978,186.476q-3.965-.076-7.93-.156a3.776,3.776,0,0,1-.522-.082,2.5,2.5,0,0,1,.466-.186,5.547,5.547,0,0,1,1.011-.128,12.788,12.788,0,0,0,3.264-.41,1.169,1.169,0,0,1,.324-.027,5.562,5.562,0,0,0,1.892-.371,8.624,8.624,0,0,0,1.37-.42,4.565,4.565,0,0,0,1.513-1.378c.53-.686,1.023-1.4,1.512-2.117.259-.379.47-.79.719-1.177a1.049,1.049,0,0,1,.277-.213c.048.1.15.215.134.307-.091.529-.208,1.053-.32,1.577-.037.174-.093.343-.127.517-.09.457-.172.915-.257,1.373-.065.351-.123.7-.195,1.054a8.939,8.939,0,0,1-.251,1.1c-.229.672-.858.691-1.413.756a12.83,12.83,0,0,1-1.468.012Z" transform="translate(888.819 -125.195)"/>
        <path id="Path_36507" data-name="Path 36507" d="M-1204.635,117.595a1.706,1.706,0,0,1,1.677-1.761,1.851,1.851,0,0,1,1.782,1.861,1.781,1.781,0,0,1-1.723,1.759A1.789,1.789,0,0,1-1204.635,117.595Z" transform="translate(1296.247 -68.185)"/>
        <path id="Path_36508" data-name="Path 36508" d="M-1005.759,75.742c-.115.543-.231,1.086-.344,1.629-.051.245-.094.492-.142.738-.118.6-.239,1.192-.353,1.789-.034.177-.044.358-.078.535-.12.633-.249,1.264-.367,1.9-.036.2-.038.4-.075.592-.111.6-.24,1.192-.345,1.791-.053.3-.065.61-.1.915a5.42,5.42,0,0,0-.11,1.016,2.241,2.241,0,0,0,.325,1.322c.385.481.777.957,1.157,1.443a1.045,1.045,0,0,1,.11.294,1.66,1.66,0,0,1-.274-.1,3.85,3.85,0,0,1-1.357-1.076,2.536,2.536,0,0,1-.568-2.3,8.163,8.163,0,0,0,.281-1.921,17.833,17.833,0,0,1,.376-2.169c.134-.78.341-1.54.478-2.313a8.229,8.229,0,0,1,.4-1.666.842.842,0,0,0,.058-.319,2.973,2.973,0,0,1,.342-1.346,2.363,2.363,0,0,0,.113-.689,1.042,1.042,0,0,1,.022-.269c.09-.2.2-.394.307-.59.032.187.067.373.094.561a1.536,1.536,0,0,1,0,.217Z" transform="translate(1121.351 -31.754)"/>
        <path id="Path_36509" data-name="Path 36509" d="M-687.551,43.421q1.8.209,3.59.417a4.535,4.535,0,0,0,.488.028.649.649,0,0,1,.724.568c.09.416.061.6-.246.761a.712.712,0,0,1-.864-.133.914.914,0,0,0-.454-.3q-1.833-.155-3.671-.249a6.439,6.439,0,0,0-.726.114.436.436,0,0,1-.342-.119.685.685,0,0,1,.571-1.043c.307-.011.616,0,.923,0Z" transform="translate(836.891 -3.656)"/>
        <path id="Path_36510" data-name="Path 36510" d="M-616.8,39.717a5.674,5.674,0,0,1,.3-2.118,6.186,6.186,0,0,0-.042-2.938,19.09,19.09,0,0,0-.669-2.311c-.216-.5-.019-.726.44-.71.236.009.39.1.377.351a3.379,3.379,0,0,0,.382,1.5.38.38,0,0,1,.027.1,13.825,13.825,0,0,1,.216,2.089,6.683,6.683,0,0,1-.549,2.984,1.009,1.009,0,0,0-.073.425.606.606,0,0,1-.426.613Z" transform="translate(772.852 6.842)"/>
        <path id="Path_36511" data-name="Path 36511" d="M-524.792,164.613c-.1-.9.526-1.4,1.2-1.22a.779.779,0,0,1,.318.167,1.544,1.544,0,0,1,.3,1.382,1.938,1.938,0,0,1-.29.6.722.722,0,0,1-.88.22,1.131,1.131,0,0,1-.651-.863A1.632,1.632,0,0,1-524.792,164.613Z" transform="translate(690.431 -110.534)"/>
        <path id="Path_36512" data-name="Path 36512" d="M-1195.678,93.68a.911.911,0,0,1-.821-.82.992.992,0,0,1,.848-.882,1.166,1.166,0,0,1,.834.924A.913.913,0,0,1-1195.678,93.68Z" transform="translate(1288.994 -46.926)"/>
        <path id="Path_36513" data-name="Path 36513" d="M-1165.481,116.844a.776.776,0,0,1-.8.81.794.794,0,0,1-.743-.871.881.881,0,0,1,.747-.834A.9.9,0,0,1-1165.481,116.844Z" transform="translate(1262.727 -68.288)"/>
        <path id="Path_36514" data-name="Path 36514" d="M-1213.346,151.027a.789.789,0,0,1-.751.807.89.89,0,0,1-.781-.864.917.917,0,0,1,.722-.812A.807.807,0,0,1-1213.346,151.027Z" transform="translate(1305.372 -98.772)"/>
        <path id="Path_36515" data-name="Path 36515" d="M-1224.871,114.644c0-.509.251-.806.7-.826a.94.94,0,0,1,.805.853.932.932,0,0,1-.739.787C-1224.606,115.473-1224.87,115.193-1224.871,114.644Z" transform="translate(1314.277 -66.388)"/>
        <path id="Path_36516" data-name="Path 36516" d="M-1176.9,152.362c0,.537-.232.812-.7.814a.9.9,0,0,1-.81-.837.74.74,0,0,1,.793-.742C-1177.064,151.6-1176.9,151.778-1176.9,152.362Z" transform="translate(1272.87 -100.055)"/>
        <path id="Path_36517" data-name="Path 36517" d="M-536.772,162.345c0-.277.076-.5.4-.519.256-.012.443.242.435.56-.008.29-.2.509-.442.484C-536.686,162.837-536.782,162.626-536.772,162.345Z" transform="translate(701.098 -109.169)"/>
        <path id="Path_36518" data-name="Path 36518" d="M-503.038,165c-.208-.308-.437-.5-.455-.713a.422.422,0,0,1,.463-.472.506.506,0,0,1,.36.559A3.444,3.444,0,0,1-503.038,165Z" transform="translate(671.443 -110.936)"/>
        <path id="Path_36519" data-name="Path 36519" d="M-530.422,187.955c.194-.005.48.3.413.519a.972.972,0,0,1-.38.5c-.145.091-.426-.241-.439-.488A.5.5,0,0,1-530.422,187.955Z" transform="translate(695.802 -132.454)"/>
        <path id="Path_36520" data-name="Path 36520" d="M-509.76,188.625c.126-.159.222-.375.386-.46s.528.368.527.574a.592.592,0,0,1-.483.485C-509.711,189.221-509.66,188.93-509.76,188.625Z" transform="translate(677.026 -132.633)"/>
        <path id="Path_36521" data-name="Path 36521" d="M-519.593,146.844c-.083.3-.07.551-.419.546a.517.517,0,0,1-.493-.463c0-.2.357-.613.5-.536A1.9,1.9,0,0,1-519.593,146.844Z" transform="translate(686.602 -95.407)"/>
        <path id="Path_36522" data-name="Path 36522" d="M-984.825,61.45c.061-.124.148-.3.242-.479.008-.014.093-.006.093,0a2.258,2.258,0,0,1,.038.627c-.029.149-.182.274-.28.409Z" transform="translate(1100.367 -19.288)"/>
        <path id="Path_36523" data-name="Path 36523" d="M-616.165,105.7c-.021.229-.029.46-.071.685-.011.059-.128.1-.2.147-.044-.066-.12-.129-.127-.2-.035-.313.052-.559.409-.618Z" transform="translate(772.204 -59.151)"/>
        <path id="Path_36524" data-name="Path 36524" d="M-1456.147-35.859l-.343-.337a1.7,1.7,0,0,1,.457-.177c.1-.009.213.107.319.167Z" transform="translate(1520.678 67.451)"/>
        <path id="Path_36525" data-name="Path 36525" d="M-1869.594,53.6c-.127.308-.25.617-.387.92-.019.043-.113.052-.173.077-.012-.067-.059-.158-.031-.2.193-.269.4-.526.6-.788Z" transform="translate(1889.338 -12.722)"/>
      </g>
    </g>
  </g>
</svg>
