<svg xmlns="http://www.w3.org/2000/svg" xmlns:xlink="http://www.w3.org/1999/xlink" width="146" height="146" viewBox="0 0 146 146">
  <defs>
    <clipPath id="clip-path">
      <rect id="Rectangle_8075" data-name="Rectangle 8075" width="146" height="146" rx="43" transform="translate(0.118 -0.015)" fill="#fff" stroke="#707070" stroke-width="1"/>
    </clipPath>
  </defs>
  <g id="Mask_Group_448" data-name="Mask Group 448" transform="translate(-0.118 0.015)" clip-path="url(#clip-path)">
    <rect id="Rectangle_8074" data-name="Rectangle 8074" width="176" height="185" transform="translate(-16.882 -20.015)" fill="#fff"/>
    <path id="Rectangle_8074_-_Outline" data-name="Rectangle 8074 - Outline" d="M1,1V184H175V1H1M0,0H176V185H0Z" transform="translate(-16.882 -20.015)" fill="#707070"/>
    <g id="Group_13244" data-name="Group 13244" transform="translate(952.918 4419.367)">
      <path id="Path_36483" data-name="Path 36483" d="M-828.82-4348.427a10.135,10.135,0,0,1,.261,2.189c.042,4.1.136,8.211-.135,12.3a6.593,6.593,0,0,1-5.646,5.749c-1,.173-1.3.6-1.424,1.546a11.807,11.807,0,0,1-12.171,10.372,11.953,11.953,0,0,1-11.354-10.873,1.217,1.217,0,0,0-.836-.812q-22.046-.062-44.092,0c-.3,0-.822.542-.864.873-.6,4.791-3.068,8.21-7.561,9.948-4.568,1.769-8.738.845-12.344-2.474a11.456,11.456,0,0,1-3.634-7.348,1.624,1.624,0,0,0-.938-1.134c-3.031-.659-5.068-2.462-5.357-5.544a45.867,45.867,0,0,1,.046-8.511,5.753,5.753,0,0,1,4.61-5.108c6.88-1.878,13.792-3.634,20.647-5.591a8.482,8.482,0,0,0,3.582-2.189c3.194-3.235,6.081-6.782,9.355-9.928,3.787-3.64,8.579-5.12,13.768-5.157,9.406-.066,18.816-.093,28.227,0a20.462,20.462,0,0,1,16.285,7.861c2.541,3.1,5.1,6.186,7.636,9.3.093.116.187.244.276.369a9.772,9.772,0,0,1,1.485,3.4Z" transform="translate(0 0)" fill="#e50019"/>
      <g id="Group_13243" data-name="Group 13243" transform="translate(-891.759 -4365.532)">
        <path id="Path_36484" data-name="Path 36484" d="M-911.245-4358.256a8.263,8.263,0,0,1-1.632,2.657,7.536,7.536,0,0,1-2.518,1.795,7.873,7.873,0,0,1-3.238.65,7.739,7.739,0,0,1-3.217-.65,7.806,7.806,0,0,1-2.494-1.772,7.693,7.693,0,0,1-1.6-2.632,9.206,9.206,0,0,1-.562-3.24,9.072,9.072,0,0,1,.585-3.262,8.167,8.167,0,0,1,1.628-2.68,7.468,7.468,0,0,1,2.518-1.794,7.855,7.855,0,0,1,3.237-.652,7.724,7.724,0,0,1,3.218.652,7.739,7.739,0,0,1,2.494,1.771,7.768,7.768,0,0,1,1.608,2.631,9.337,9.337,0,0,1,.558,3.243A9.088,9.088,0,0,1-911.245-4358.256Zm-6.455,21.417h-5.55l23.819-32.627h5.546Zm1.3-27.524a2.586,2.586,0,0,0-2.238-1.233,2.45,2.45,0,0,0-2.237,1.211,5.32,5.32,0,0,0-.747,2.846,5.062,5.062,0,0,0,.838,2.909,2.582,2.582,0,0,0,2.237,1.236,2.448,2.448,0,0,0,2.237-1.213,5.294,5.294,0,0,0,.747-2.841A5.082,5.082,0,0,0-916.395-4364.364Zm25.19,22.792a8.272,8.272,0,0,1-1.628,2.656,7.421,7.421,0,0,1-2.522,1.794,7.88,7.88,0,0,1-3.237.653,7.716,7.716,0,0,1-3.213-.653,7.641,7.641,0,0,1-2.494-1.77,7.636,7.636,0,0,1-1.609-2.633,9.221,9.221,0,0,1-.561-3.238,9.061,9.061,0,0,1,.585-3.263,8.209,8.209,0,0,1,1.632-2.681,7.6,7.6,0,0,1,2.514-1.795,7.906,7.906,0,0,1,3.241-.653,7.766,7.766,0,0,1,3.218.653,7.844,7.844,0,0,1,2.49,1.775,7.644,7.644,0,0,1,1.608,2.633,9.281,9.281,0,0,1,.562,3.237A9.072,9.072,0,0,1-891.2-4341.572Zm-5.15-6.106a2.586,2.586,0,0,0-2.238-1.234,2.463,2.463,0,0,0-2.237,1.214,5.3,5.3,0,0,0-.743,2.841,5.043,5.043,0,0,0,.838,2.914,2.586,2.586,0,0,0,2.237,1.237,2.455,2.455,0,0,0,2.237-1.214,5.345,5.345,0,0,0,.743-2.843A5.062,5.062,0,0,0-896.355-4347.678Z" transform="translate(926.51 4369.837)" fill="#fff"/>
      </g>
    </g>
  </g>
</svg>
