<svg xmlns="http://www.w3.org/2000/svg" width="25.753" height="22.264" viewBox="0 0 25.753 22.264">
  <g id="heart_1_" data-name="heart (1)" transform="translate(0.5 0.5)">
    <path id="heart_1_2" data-name="heart (1)" d="M12.377,21.764A1.983,1.983,0,0,1,11.1,21.3c-1-.843-1.961-1.635-2.81-2.334a51.968,51.968,0,0,1-6.211-5.633A9.2,9.2,0,0,1-.5,7.183,7.821,7.821,0,0,1,1.6,1.736,7.264,7.264,0,0,1,6.915-.5,6.859,6.859,0,0,1,11.1.9a8.118,8.118,0,0,1,1.273,1.19A8.123,8.123,0,0,1,13.65.9,6.86,6.86,0,0,1,17.839-.5a7.264,7.264,0,0,1,5.313,2.236,7.82,7.82,0,0,1,2.1,5.447,9.2,9.2,0,0,1-2.575,6.149,51.911,51.911,0,0,1-6.207,5.63l-.022.018c-.845.7-1.8,1.483-2.793,2.32A1.982,1.982,0,0,1,12.377,21.764ZM6.915.5a6.273,6.273,0,0,0-4.59,1.926A6.827,6.827,0,0,0,.5,7.183a8.264,8.264,0,0,0,2.334,5.5,51.353,51.353,0,0,0,6.084,5.509c.855.7,1.821,1.5,2.824,2.345a.992.992,0,0,0,1.268,0c1-.841,1.956-1.631,2.8-2.328l.022-.018a51.329,51.329,0,0,0,6.083-5.509,8.263,8.263,0,0,0,2.334-5.5,6.826,6.826,0,0,0-1.825-4.756A6.273,6.273,0,0,0,17.839.5a5.88,5.88,0,0,0-3.59,1.2,7.327,7.327,0,0,0-1.471,1.484l-.4.534-.4-.534A7.321,7.321,0,0,0,10.505,1.7,5.879,5.879,0,0,0,6.915.5Z" transform="translate(0)" fill="#fff"/>
  </g>
</svg>
