<svg xmlns="http://www.w3.org/2000/svg" width="21.031" height="17.517" viewBox="0 0 21.031 17.517">
  <g id="iconfinder_icons_home_1564508" transform="translate(0.026 -2.025)">
    <path id="home" d="M20.693,9.282l-9.12-6.928a1.99,1.99,0,0,0-2.192,0L.348,9.282a.813.813,0,0,0,.526,1.491h.877v5.349a3.5,3.5,0,0,0,3.508,3.42H7.012a.829.829,0,0,0,.877-.877v-4.3a1.836,1.836,0,0,1,1.754-1.842H11.4a1.836,1.836,0,0,1,1.754,1.842v4.3a.879.879,0,0,0,.877.877h1.754a3.5,3.5,0,0,0,3.508-3.42V10.772h.877A.837.837,0,0,0,20.693,9.282Z" fill="#fff"/>
  </g>
</svg>
