<svg xmlns="http://www.w3.org/2000/svg" width="27.764" height="24.679" viewBox="0 0 27.764 24.679">
  <path id="Icon_metro-shop" data-name="Icon metro-shop" d="M12.015,12.725l1.22-8.1H6.889L4.238,11.568a2.433,2.433,0,0,0-.125.771c0,1.7,1.774,3.085,3.966,3.085,2.021,0,3.691-1.178,3.936-2.7Zm5.98,2.7c2.19,0,3.966-1.382,3.966-3.085,0-.063,0-.126-.008-.187l-.785-7.526H14.822l-.787,7.519c0,.063-.006.126-.006.193,0,1.7,1.775,3.085,3.966,3.085Zm7.712,1.613v6.1H10.283v-6.09a6.49,6.49,0,0,1-2.2.383,6.36,6.36,0,0,1-.881-.076v9.793a2.164,2.164,0,0,0,2.156,2.159H26.633a2.167,2.167,0,0,0,2.159-2.159V17.355a6.627,6.627,0,0,1-.881.076A6.41,6.41,0,0,1,25.707,17.038Zm6.046-5.469L29.1,4.627H22.755l1.219,8.085c.238,1.527,1.908,2.712,3.938,2.712,2.19,0,3.966-1.382,3.966-3.085a2.477,2.477,0,0,0-.123-.771Z" transform="translate(-4.113 -4.627)" fill="#e50019"/>
</svg>
