<svg xmlns="http://www.w3.org/2000/svg" width="11.45" height="12.672" viewBox="0 0 11.45 12.672">
  <g id="Group_16738" data-name="Group 16738" transform="translate(0 0)">
    <path id="Path_50056" data-name="Path 50056" d="M758.4-271.035a.83.83,0,0,0-.836.824.83.83,0,0,0,.824.836.822.822,0,0,0,.826-.819v-.005l0-.005A.823.823,0,0,0,758.4-271.035Zm0,0a.83.83,0,0,0-.836.824.83.83,0,0,0,.824.836.822.822,0,0,0,.826-.819v-.005l0-.005A.823.823,0,0,0,758.4-271.035Zm7.718-5.17a6.96,6.96,0,0,0-1.193-1.477,6.751,6.751,0,0,0-2.812-1.567.8.8,0,0,0-.215-.031.668.668,0,0,0-.544.286l-1.009,1.32-1.452,1.906a.607.607,0,0,0,.086.855l.026.02c.115.091.232.18.346.266l.125.093a.538.538,0,0,0,.329.117.567.567,0,0,0,.307-.1l.082-.053c.056-.037.11-.069.164-.1l.04.029-.406.474c-.415.484-.849.988-1.27,1.484-.014.017-.016.017-.036.017a.519.519,0,0,1-.057-.005,3.28,3.28,0,0,0-.49-.039,2.555,2.555,0,0,0-2.059,1c-.306.378-.6.771-.886,1.153l-.286.382a.59.59,0,0,0,.1.824c.035.029.069.055.1.079s.065.048.091.07a.8.8,0,0,0,.521.23.576.576,0,0,0,.36-.13.58.58,0,0,0,.165.687c.339.269.655.508.969.734a.559.559,0,0,0,.712-.028.6.6,0,0,0,.232.755c.037.027.069.055.107.082.054.041.108.084.164.125a.667.667,0,0,0,.385.134.611.611,0,0,0,.485-.257l.272-.351c.288-.374.587-.761.868-1.152a2.583,2.583,0,0,0,.271-2.711.129.129,0,0,1,.01-.159c.254-.369.507-.746.754-1.112l.317-.471.309-.457.037-.053.036.023c-.007.039-.031.115-.052.183l-.007.022c-.008.022-.014.043-.021.065a.538.538,0,0,0,.194.643c.154.122.306.239.453.346a.663.663,0,0,0,.386.132.62.62,0,0,0,.5-.261c.819-1.072,1.645-2.157,2.457-3.226A.67.67,0,0,0,766.115-276.2Zm-7.722,7.251h-.014a1.251,1.251,0,0,1-1.241-1.245,1.25,1.25,0,0,1,1.245-1.255,1.25,1.25,0,0,1,1.255,1.245A1.25,1.25,0,0,1,758.392-268.954Zm4.009-5.62a.909.909,0,0,1-.9-.915.909.909,0,0,1,.915-.9h.008a.907.907,0,0,1,.9.915A.91.91,0,0,1,762.4-274.574Zm2.9-.845-3.73-2.841c.1-.127.179-.246.277-.356a.145.145,0,0,1,.125-.023,6.011,6.011,0,0,1,3.38,2.4c.011.016.022.031.033.048C765.651-275.793,765.651-275.793,765.3-275.42Zm-2.882-.553h-.02a.491.491,0,0,0-.485.491.5.5,0,0,0,.491.485.493.493,0,0,0,.495-.491h0A.485.485,0,0,0,762.418-275.972Zm-4.021,4.937a.83.83,0,0,0-.836.824.83.83,0,0,0,.824.836.822.822,0,0,0,.826-.819v-.005l0-.005A.823.823,0,0,0,758.4-271.035Z" transform="translate(-754.778 279.28)" fill="#e50019"/>
  </g>
</svg>
