<svg xmlns="http://www.w3.org/2000/svg" width="12.02" height="13.755" viewBox="0 0 12.02 13.755">
  <g id="Group_16783" data-name="Group 16783" transform="translate(-683.754 -370.074)">
    <path id="Path_50177" data-name="Path 50177" d="M714.576,371.791v.44c.211,0,.416-.006.62,0a1.139,1.139,0,0,1,1.073.675c.084.178.171.354.252.533a11.247,11.247,0,0,1,.87,3.251,25.776,25.776,0,0,1,.185,3.214,1.314,1.314,0,0,1-1.1,1.323,1.526,1.526,0,0,1-.384-.037,1.146,1.146,0,0,0,.059-.133,2.355,2.355,0,0,0,.14-.553,19.427,19.427,0,0,0-.318-4.127,10.019,10.019,0,0,0-.558-1.789.963.963,0,0,0-.978-.651c-.765.006-1.531.008-2.3,0a.982.982,0,0,0-1,.668,10.624,10.624,0,0,0-.713,2.77,24.855,24.855,0,0,0-.163,2.88,1.6,1.6,0,0,0,.2.9.6.6,0,0,1-.491.059,1.329,1.329,0,0,1-.988-1.313,24.549,24.549,0,0,1,.216-3.44,10.484,10.484,0,0,1,.99-3.326c.022-.044.041-.089.06-.135a1.164,1.164,0,0,1,1.137-.766c.2,0,.392,0,.6,0v-.438c-.162,0-.321,0-.481,0-.3,0-.417-.134-.352-.424a5.22,5.22,0,0,1,.238-.82.712.712,0,0,1,.745-.474c.792.019,1.585.009,2.377,0a.619.619,0,0,1,.547.281,2.282,2.282,0,0,1,.361,1.137c.016.182-.1.286-.308.294C714.939,371.8,714.761,371.791,714.576,371.791Zm-2.15.429h1.712V371.8h-1.712Z" transform="translate(-23.519 0)" fill="#e50019"/>
    <path id="Path_50178" data-name="Path 50178" d="M736.917,433.311h1.141a.543.543,0,0,1,.586.394,10.076,10.076,0,0,1,.654,2.454,23.069,23.069,0,0,1,.188,3.186,1.008,1.008,0,0,1-.142.523.184.184,0,0,1-.234.089,10.07,10.07,0,0,0-2.222-.247,9.613,9.613,0,0,0-2.222.245c-.083.02-.147.01-.177-.068a1.468,1.468,0,0,1-.15-.464,17.3,17.3,0,0,1,.4-4.384c.114-.453.283-.893.437-1.336a.55.55,0,0,1,.587-.394C736.147,433.317,736.532,433.311,736.917,433.311Z" transform="translate(-47.144 -58.934)" fill="#e50019"/>
    <path id="Path_50179" data-name="Path 50179" d="M689.75,525.288c-1.343,0-2.685-.007-4.028,0a1.587,1.587,0,0,1-1.33-.655,3.06,3.06,0,0,1-.584-1.508,6.165,6.165,0,0,1-.054-.762.464.464,0,0,1,.624-.486.611.611,0,0,1,.5.4,1.84,1.84,0,0,0,.194.382,1.275,1.275,0,0,0,1.371.656,9.817,9.817,0,0,0,1.279-.287,6.818,6.818,0,0,1,4.144.019,5.207,5.207,0,0,0,1.442.285,1.187,1.187,0,0,0,1.022-.491,3.881,3.881,0,0,0,.368-.651.689.689,0,0,1,.882-.255.44.44,0,0,1,.2.378,4.07,4.07,0,0,1-.4,1.951,1.745,1.745,0,0,1-1.116.975,1.634,1.634,0,0,1-.4.045Q691.8,525.29,689.75,525.288Z" transform="translate(0 -141.462)" fill="#e50019"/>
  </g>
</svg>
