<svg xmlns="http://www.w3.org/2000/svg" width="17.013" height="17.013" viewBox="0 0 17.013 17.013">
  <path id="Icon_awesome-gas-pump" data-name="Icon awesome-gas-pump" d="M11.165,14.887H.532A.533.533,0,0,0,0,15.418v1.063a.533.533,0,0,0,.532.532H11.165a.533.533,0,0,0,.532-.532V15.418A.533.533,0,0,0,11.165,14.887ZM16.389,3.565,13.7.874a.533.533,0,0,0-.751,0l-.375.375a.533.533,0,0,0,0,.751l1.253,1.253V5.317a1.858,1.858,0,0,0,1.595,1.834v5.343a.8.8,0,0,1-1.595,0V11.431A2.924,2.924,0,0,0,10.9,8.507h-.266V2.127A2.129,2.129,0,0,0,8.507,0H3.19A2.129,2.129,0,0,0,1.063,2.127v11.7h9.57V10.1H10.9a1.329,1.329,0,0,1,1.329,1.329v.924a2.492,2.492,0,0,0,2.143,2.522,2.4,2.4,0,0,0,2.642-2.383V5.071a2.131,2.131,0,0,0-.625-1.505ZM8.507,6.38H3.19V2.127H8.507Z" fill="#e50019"/>
</svg>
