<svg xmlns="http://www.w3.org/2000/svg" width="17.28" height="17.811" viewBox="0 0 17.28 17.811">
  <g id="noun-price-1209447" transform="translate(0 0)">
    <path id="Path_50052" data-name="Path 50052" d="M204.006,112.347a.538.538,0,1,0-1.015.356c.828,2.375-.813,4.156-2.078,5.106l-.5-.724a1.187,1.187,0,0,0-.846-.448h-2.838a1.927,1.927,0,0,0-.977.3l-8.357,5.881a.891.891,0,0,0-.22,1.25l3.8,5.439c.3.4.739.356,1.146.074l8.369-5.866a1.974,1.974,0,0,0,.618-.817l.891-2.8h0a1.188,1.188,0,0,0-.13-.95l-.3-.442c1.665-1.289,3.411-3.566,2.44-6.353Zm-3.892,8.337a1.434,1.434,0,1,1,.021-2.339c-.244.145-.41.232-.439.246a.538.538,0,1,0,.46.974,6.015,6.015,0,0,0,.552-.3h0a1.44,1.44,0,0,1-.594,1.416Z" transform="translate(-187.004 -111.986)" fill="#e50019"/>
  </g>
</svg>
