<svg xmlns="http://www.w3.org/2000/svg" width="11.841" height="12.722" viewBox="0 0 11.841 12.722">
  <g id="noun-birthday-2938680" transform="translate(0)">
    <path id="Path_50058" data-name="Path 50058" d="M163.934,380.428v2.748a.558.558,0,0,1-.558.558h-7.84a.558.558,0,0,1-.558-.558v-2.75a1.478,1.478,0,0,0,.937.329,1.5,1.5,0,0,0,1.179-.571,1.5,1.5,0,0,0,2.358,0,1.5,1.5,0,0,0,2.358,0,1.513,1.513,0,0,0,2.124.243Z" transform="translate(-153.03 -371.852)" fill="#e50019"/>
    <path id="Path_50059" data-name="Path 50059" d="M155.463,372.373V374.7c0,.144.005.291,0,.435,0,.005-.006.061,0,.018a.253.253,0,0,1-.006.033.529.529,0,0,1-.024.079c.013-.036-.016.031-.024.043l-.023.034c-.008.011-.006.009.005-.006-.006.009-.014.016-.021.025a.485.485,0,0,1-.059.055c.026-.023.005,0,0,0l-.041.025-.029.015c-.044.024.033-.008-.016.006a.774.774,0,0,1-.089.023c-.03.005.044,0-.009,0,.031,0-.066,0-.035,0H147.25l-.051,0c.034,0,0,0-.016,0a.523.523,0,0,1-.079-.024c.035.013,0,0-.008,0s-.024-.013-.035-.02l-.028-.018c-.043-.026.023.024-.014-.01a.881.881,0,0,1-.068-.069c.024.03-.015-.025-.021-.035l-.019-.036c-.024-.045.006.021,0-.008s-.016-.053-.023-.08c0-.01,0-.046,0-.009,0-.018,0-.034,0-.051v-2.751l-.321.133a1.688,1.688,0,0,0,2.381-.242h-.266a1.707,1.707,0,0,0,2.131.415,1.685,1.685,0,0,0,.493-.414h-.266a1.71,1.71,0,0,0,2.132.415,1.686,1.686,0,0,0,.493-.414h-.266a1.68,1.68,0,0,0,1.066.606,1.713,1.713,0,0,0,1.286-.335.2.2,0,0,0,.068-.257.189.189,0,0,0-.257-.068,1.66,1.66,0,0,1-.252.162l-.054.026-.036.016q.021-.009-.011,0c-.044.016-.089.031-.134.045a1.181,1.181,0,0,1-.275.048c-.048,0-.1,0-.145,0l-.06,0c-.006,0-.079-.009-.048,0a1.461,1.461,0,0,1-.263-.063c-.024-.008-.048-.018-.072-.026s-.024-.01-.008,0l-.026-.011c-.043-.02-.085-.041-.125-.065a1.331,1.331,0,0,1-.385-.337.188.188,0,0,0-.266,0,1.708,1.708,0,0,1-.166.178c-.024.021-.07.06-.082.069s-.066.046-.1.065-.07.041-.107.06c-.016.009-.034.018-.051.025l-.026.011c-.029.013.023-.009-.008,0a1.439,1.439,0,0,1-.247.075l-.058.011-.029.005h-.009c-.043.005-.085.008-.129.009s-.087,0-.13,0l-.059-.005-.024,0-.024,0a1.468,1.468,0,0,1-.243-.061,1.017,1.017,0,0,1-.206-.094c-.041-.023-.08-.049-.119-.075l-.03-.021-.05-.041a1.5,1.5,0,0,1-.2-.208.188.188,0,0,0-.266,0,1.708,1.708,0,0,1-.166.178c-.024.021-.07.061-.082.069s-.066.046-.1.065-.07.041-.107.06c-.016.009-.034.018-.051.025l-.026.011c-.029.013.023-.009-.008,0a1.435,1.435,0,0,1-.247.075l-.058.011-.029.005h-.009c-.043.005-.085.008-.129.009s-.087,0-.13,0l-.059-.005-.024,0-.024,0a1.465,1.465,0,0,1-.243-.061,1.049,1.049,0,0,1-.206-.094c-.041-.023-.08-.049-.119-.075l-.03-.021-.05-.041a1.5,1.5,0,0,1-.2-.208.188.188,0,0,0-.266,0,1.33,1.33,0,0,1-.384.337,1.29,1.29,0,0,1-.117.061l-.034.016-.008,0-.054.02a1.454,1.454,0,0,1-.271.068,1.394,1.394,0,0,1-.519-.034c-.045-.013-.09-.026-.135-.043l-.038-.015-.01-.005c-.018-.009-.036-.016-.054-.026q-.062-.032-.12-.068c-.023-.014-.044-.029-.065-.044l-.031-.023-.008-.006a.192.192,0,0,0-.206-.039.189.189,0,0,0-.115.172v2.359a3.192,3.192,0,0,0,.014.526.756.756,0,0,0,.758.611h7.685a1.06,1.06,0,0,0,.376-.043.752.752,0,0,0,.49-.61,1.386,1.386,0,0,0,.008-.191v-2.652a.19.19,0,0,0-.188-.188.193.193,0,0,0-.184.189Z" transform="translate(-144.747 -363.796)" fill="#e50019"/>
    <path id="Path_50060" data-name="Path 50060" d="M123.738,259.352a1.755,1.755,0,0,1-.013.2c.005-.034.009-.066.014-.1a1.582,1.582,0,0,1-.105.388l.038-.09a1.61,1.61,0,0,1-.133.247c-.014.021-.029.041-.043.061-.038.053.059-.07.013-.018-.03.035-.06.07-.094.1a1.215,1.215,0,0,1-.1.094c-.023.019-.074.048.016-.011-.023.014-.043.031-.064.046a1.516,1.516,0,0,1-.262.142l.09-.038a1.582,1.582,0,0,1-.371.1l.1-.014a1.588,1.588,0,0,1-.408,0l.1.014a1.565,1.565,0,0,1-.39-.107l.09.038a1.521,1.521,0,0,1-.169-.085c-.024-.014-.049-.029-.072-.045l-.039-.026c-.013-.009-.06-.045-.008,0l-.006-.005-.029-.024c-.024-.02-.046-.041-.069-.064a1.455,1.455,0,0,1-.125-.139.371.371,0,0,0-.266-.11.364.364,0,0,0-.266.11,1.458,1.458,0,0,1-.125.139c-.02.02-.04.039-.061.058l-.035.03c-.011.01-.059.046-.006.005s0,0-.008,0l-.031.021c-.026.018-.053.034-.08.05a1.641,1.641,0,0,1-.169.085l.09-.038a1.55,1.55,0,0,1-.39.107l.1-.014a1.623,1.623,0,0,1-.4,0l.1.014a1.565,1.565,0,0,1-.39-.107l.09.038a1.521,1.521,0,0,1-.169-.085c-.024-.014-.049-.029-.071-.045l-.039-.026c-.013-.009-.06-.045-.008,0l-.006-.005-.029-.024c-.024-.02-.046-.041-.069-.064a1.458,1.458,0,0,1-.125-.139.371.371,0,0,0-.266-.11.363.363,0,0,0-.266.11,1.456,1.456,0,0,1-.125.139c-.02.02-.04.039-.061.058l-.035.03-.006.005c.054-.043,0,0-.008,0l-.031.021c-.026.018-.053.034-.08.05a1.642,1.642,0,0,1-.169.085l.09-.038a1.55,1.55,0,0,1-.39.107l.1-.014a1.623,1.623,0,0,1-.4,0l.1.014a1.565,1.565,0,0,1-.39-.107l.09.038a1.521,1.521,0,0,1-.169-.085c-.024-.014-.049-.029-.071-.045l-.039-.026c-.013-.009-.06-.045-.008,0l-.006-.005-.029-.024c-.024-.02-.046-.041-.069-.064a1.458,1.458,0,0,1-.125-.139.371.371,0,0,0-.266-.11.363.363,0,0,0-.266.11,1.458,1.458,0,0,1-.125.139c-.02.02-.04.039-.061.058l-.035.03c-.011.01-.059.046-.006.005s0,0-.008,0l-.031.021c-.026.018-.053.034-.08.05a1.644,1.644,0,0,1-.169.085l.09-.038a1.564,1.564,0,0,1-.39.107l.1-.014a1.588,1.588,0,0,1-.408,0l.1.014a1.582,1.582,0,0,1-.371-.1l.09.038a1.608,1.608,0,0,1-.262-.142.588.588,0,0,1-.064-.046l.045.035-.029-.024c-.035-.03-.07-.062-.1-.1s-.063-.069-.094-.1c-.046-.054.054.075.013.018-.014-.02-.029-.04-.043-.061a1.435,1.435,0,0,1-.133-.248l.038.09a1.6,1.6,0,0,1-.105-.388c.005.034.009.066.014.1a1.633,1.633,0,0,1,0-.406c-.005.034-.009.067-.014.1a1.546,1.546,0,0,1,.1-.374l-.038.09a1.418,1.418,0,0,1,.133-.247c.014-.02.028-.04.043-.06.043-.06-.056.068-.009.011.031-.038.064-.074.1-.109s.068-.064.1-.094c0,0,.021-.021.025-.02s-.079.059-.038.029l.06-.043a1.5,1.5,0,0,1,.255-.137l-.09.038a1.547,1.547,0,0,1,.374-.1l-.1.014a3.122,3.122,0,0,1,.406-.014h2.242l3.738,0h.652a3.726,3.726,0,0,1,.458.014l-.1-.014a1.6,1.6,0,0,1,.374.1l-.09-.038a1.5,1.5,0,0,1,.247.132l.06.043c.06.043-.068-.056-.011-.009.038.031.074.064.109.1s.064.067.094.1c0,0,.021.023.02.025s-.059-.079-.029-.038l.043.06a1.547,1.547,0,0,1,.137.253l-.038-.09a1.551,1.551,0,0,1,.1.373c-.005-.034-.009-.066-.014-.1a1.205,1.205,0,0,1,.018.211.376.376,0,1,0,.753,0,1.925,1.925,0,0,0-.217-.877,1.9,1.9,0,0,0-.564-.646,1.763,1.763,0,0,0-.724-.317,2.943,2.943,0,0,0-.546-.039l-3.454,0-3.344,0a2.315,2.315,0,0,0-.6.065,1.92,1.92,0,0,0-.766.419,1.882,1.882,0,0,0-.3,2.451,1.881,1.881,0,0,0,2.66.467,1.847,1.847,0,0,0,.342-.321h-.532a1.836,1.836,0,0,0,1.041.636,1.926,1.926,0,0,0,1.318-.192,1.8,1.8,0,0,0,.532-.444H118.8a1.836,1.836,0,0,0,1.041.636,1.926,1.926,0,0,0,1.318-.192,1.8,1.8,0,0,0,.532-.444h-.532a1.868,1.868,0,0,0,1.54.679,1.878,1.878,0,0,0,1.786-1.876.381.381,0,0,0-.376-.376.385.385,0,0,0-.376.378Z" transform="translate(-112.65 -251.95)" fill="#e50019"/>
    <path id="Path_50061" data-name="Path 50061" d="M315.778,171.065v2.092h-1.656v-2.091a.275.275,0,0,1,.276-.276h1.1a.276.276,0,0,1,.276.276Z" transform="translate(-308.524 -167.259)" fill="#e50019"/>
    <path id="Path_50062" data-name="Path 50062" d="M307.577,163.025v2.092l.188-.188h-1.656l.188.188v-1.523c0-.188.008-.379,0-.567,0-.014,0-.033,0,0a.323.323,0,0,1,.009-.033c-.009.036,0-.006.009-.015s.021-.025,0,0c0,0,.038-.035.016-.019s.023-.013.021-.013c.019-.01.02-.01,0,0l.016-.005.016,0c-.021,0-.021,0,0,0h.985c.039,0,.078,0,.118,0,.01,0,.038.005,0,0,.005,0,.058.018.019,0a.28.28,0,0,1,.043.024c-.03-.021,0,0,.005.008s.008.008,0-.006a.314.314,0,0,1,.018.028c.006.01.008.03,0,0a.294.294,0,0,1,.009.033c-.005-.021-.005-.021,0,0a.188.188,0,0,0,.376,0,.474.474,0,0,0-.489-.464h-.906a.748.748,0,0,0-.411.066.494.494,0,0,0-.226.443v2.046a.191.191,0,0,0,.188.188h1.656a.191.191,0,0,0,.188-.188v-2.092a.188.188,0,1,0-.376,0Z" transform="translate(-300.511 -159.219)" fill="#e50019"/>
    <path id="Path_50063" data-name="Path 50063" d="M309.824,26.64a.966.966,0,0,1-1.932,0c0-.533.966-1.593.966-1.593S309.824,26.106,309.824,26.64Z" transform="translate(-302.437 -24.859)" fill="#e50019"/>
    <path id="Path_50064" data-name="Path 50064" d="M301.637,18.651c0,.024,0,.046,0,.07s-.01.074,0,.035a.967.967,0,0,1-.036.147c-.006.019-.013.036-.02.055s.013-.025,0,0c-.005.01-.009.02-.014.03a1.034,1.034,0,0,1-.071.119l-.019.026c.021-.028,0-.005,0,0l-.044.049a.52.52,0,0,1-.046.045l-.024.021s-.045.035-.013.011a.968.968,0,0,1-.1.068c-.019.011-.039.02-.058.03s-.036.016-.015.008-.019.008-.024.009a1.151,1.151,0,0,1-.128.038c-.009,0-.074.013-.034.008q-.043.006-.087.008a1.034,1.034,0,0,1-.139-.005c-.008,0-.036-.006,0,0l-.025-.005a.705.705,0,0,1-.074-.018l-.064-.02c-.009,0-.068-.028-.033-.011a.987.987,0,0,1-.129-.07.524.524,0,0,1-.054-.038c.03.023-.019-.016-.025-.023a1.071,1.071,0,0,1-.092-.093l-.021-.025c.021.026,0,.005,0,0s-.025-.035-.036-.054-.023-.038-.033-.056l-.015-.029s-.024-.054-.008-.015a.94.94,0,0,1-.041-.127c-.005-.021-.01-.044-.014-.066,0-.008-.006-.036,0,0a.246.246,0,0,1,0-.043,1,1,0,0,1,0-.107c0-.006,0-.013,0-.019,0-.033,0,.021,0,.02a.2.2,0,0,1,.01-.051,1.3,1.3,0,0,1,.06-.183c.009-.024-.015.033,0,.01a.189.189,0,0,0,.01-.024l.023-.048c.018-.035.035-.069.054-.1.038-.069.079-.137.12-.2.085-.133.177-.262.273-.389l.016-.021c.014-.019-.023.029,0,0l.04-.051.069-.087c.04-.05.082-.1.123-.148s.078-.09.118-.134h-.266c.11.122.216.25.317.379l.033.041,0-.006c0,.008.011.014.016.021l.072.1c.048.064.093.129.138.2a3.379,3.379,0,0,1,.24.405l.023.048.011.024c.019.04-.015-.039,0,0s.026.068.036.1a.835.835,0,0,1,.025.1l0,.02c.007.036,0-.046,0-.01a.255.255,0,0,0,0,.044.188.188,0,1,0,.376,0,1.7,1.7,0,0,0-.344-.852,7.14,7.14,0,0,0-.554-.733c-.04-.048-.081-.1-.123-.142a.189.189,0,0,0-.266,0c-.128.142-.25.29-.366.44a4.033,4.033,0,0,0-.571.917.963.963,0,0,0-.08.455,1.186,1.186,0,0,0,.253.637,1.153,1.153,0,0,0,2.051-.725.19.19,0,0,0-.188-.188.192.192,0,0,0-.188.189Z" transform="translate(-294.439 -16.871)" fill="#e50019"/>
    <g id="Group_16646" data-name="Group 16646" transform="translate(0.002 12.599)">
      <path id="Path_50065" data-name="Path 50065" d="M.179-1.987l-.007,0H.165A.026.026,0,0,1,.147-1.99a.024.024,0,0,1-.006-.018.023.023,0,0,1,.006-.017.025.025,0,0,1,.018-.006H.172l.007,0v.009l-.006,0H.166a.012.012,0,0,0-.01,0,.015.015,0,0,0,0,.011A.017.017,0,0,0,.156-2a.012.012,0,0,0,.01,0H.173L.179-2Z" transform="translate(-0.141 2.031)" fill="#e50019"/>
    </g>
    <g id="Group_16647" data-name="Group 16647" transform="translate(0.05 12.611)">
      <path id="Path_50066" data-name="Path 50066" d="M.26-1.521H.254a.009.009,0,0,0-.007,0,.011.011,0,0,0,0,.008V-1.5H.234v-.034H.245v.006l0,0,.007,0h0Z" transform="translate(-0.234 1.531)" fill="#e50019"/>
    </g>
    <g id="Group_16648" data-name="Group 16648" transform="translate(0.079 12.611)">
      <path id="Path_50067" data-name="Path 50067" d="M.162-1.513v0H.136a.009.009,0,0,0,0,.006l.007,0H.153l.008,0V-1.5l-.008,0H.144a.02.02,0,0,1-.014,0,.017.017,0,0,1-.005-.013A.017.017,0,0,1,.13-1.526a.019.019,0,0,1,.014-.005.017.017,0,0,1,.013.005.017.017,0,0,1,.005.013Zm-.011,0a.007.007,0,0,0,0-.005l-.005,0-.005,0a.008.008,0,0,0,0,.005Z" transform="translate(-0.125 1.531)" fill="#e50019"/>
    </g>
    <g id="Group_16649" data-name="Group 16649" transform="translate(0.121 12.611)">
      <path id="Path_50068" data-name="Path 50068" d="M.143-1.512H.138a0,0,0,0,0,0,0,0,0,0,0,0,0,0h0l.005,0a.008.008,0,0,0,0-.006H.143Zm.016,0v.02H.148V-1.5l-.005,0H.137a.012.012,0,0,1-.009,0,.011.011,0,0,1,0-.008.009.009,0,0,1,0-.009.024.024,0,0,1,.013,0H.148a0,0,0,0,0,0,0H.133l-.005,0v-.008H.142a.02.02,0,0,1,.013,0,.015.015,0,0,1,0,.012Z" transform="translate(-0.125 1.531)" fill="#e50019"/>
    </g>
    <g id="Group_16650" data-name="Group 16650" transform="translate(0.161 12.602)">
      <path id="Path_50069" data-name="Path 50069" d="M.048-1.922v.01H.059V-1.9H.048v.015a.005.005,0,0,0,0,0h.01v.008H.049a.014.014,0,0,1-.009,0,.014.014,0,0,1,0-.009V-1.9H.031v-.008H.037v-.01Z" transform="translate(-0.031 1.922)" fill="#e50019"/>
    </g>
    <g id="Group_16651" data-name="Group 16651" transform="translate(0.193 12.611)">
      <path id="Path_50070" data-name="Path 50070" d="M.162-1.513v0H.136a.009.009,0,0,0,0,.006l.007,0H.153l.008,0V-1.5l-.008,0H.144a.02.02,0,0,1-.014,0,.017.017,0,0,1-.005-.013A.017.017,0,0,1,.13-1.526a.019.019,0,0,1,.014-.005.017.017,0,0,1,.013.005.017.017,0,0,1,.005.013Zm-.011,0a.007.007,0,0,0,0-.005l-.005,0-.005,0a.008.008,0,0,0,0,.005Z" transform="translate(-0.125 1.531)" fill="#e50019"/>
    </g>
    <g id="Group_16652" data-name="Group 16652" transform="translate(0.236 12.598)">
      <path id="Path_50071" data-name="Path 50071" d="M.151-2.06v-.018H.162v.048H.151v-.005l-.005,0H.139a.013.013,0,0,1-.01-.005.02.02,0,0,1,0-.013.02.02,0,0,1,0-.013.013.013,0,0,1,.01-.005H.145l.005,0Zm-.007.022a.006.006,0,0,0,.005,0,.011.011,0,0,0,0-.008.011.011,0,0,0,0-.007.006.006,0,0,0-.005,0,.006.006,0,0,0-.005,0,.012.012,0,0,0,0,.007.012.012,0,0,0,0,.008A.006.006,0,0,0,.144-2.038Z" transform="translate(-0.125 2.078)" fill="#e50019"/>
    </g>
    <g id="Group_16653" data-name="Group 16653" transform="translate(0.305 12.598)">
      <path id="Path_50072" data-name="Path 50072" d="M.253-2.038a.006.006,0,0,0,.005,0,.011.011,0,0,0,0-.008.011.011,0,0,0,0-.007.006.006,0,0,0-.005,0,.007.007,0,0,0-.006,0,.012.012,0,0,0,0,.007.012.012,0,0,0,0,.008A.007.007,0,0,0,.253-2.038ZM.245-2.06l.005,0H.257a.013.013,0,0,1,.01.005.021.021,0,0,1,0,.013.02.02,0,0,1,0,.013.012.012,0,0,1-.01.005H.25l-.005,0v.005H.234v-.048H.245Z" transform="translate(-0.234 2.078)" fill="#e50019"/>
    </g>
    <g id="Group_16654" data-name="Group 16654" transform="translate(0.345 12.611)">
      <path id="Path_50073" data-name="Path 50073" d="M.031-1.5H.042l.009.023L.059-1.5H.07l-.014.038a.016.016,0,0,1-.005.008.012.012,0,0,1-.008,0H.037v-.007H.044l0,0h0Z" transform="translate(-0.031 1.5)" fill="#e50019"/>
    </g>
    <g id="Group_16655" data-name="Group 16655" transform="translate(0.411 12.611)">
      <path id="Path_50074" data-name="Path 50074" d="M.169-1.529v.009l-.007,0H.152v0H.157a.024.024,0,0,1,.011,0,.009.009,0,0,1,0,.008.009.009,0,0,1,0,.008.022.022,0,0,1-.012,0H.141v-.008l.006,0H.16a0,0,0,0,0,0,0v0H.154a.018.018,0,0,1-.01,0,.009.009,0,0,1,0-.008.009.009,0,0,1,0-.008.019.019,0,0,1,.011,0H.169Z" transform="translate(-0.141 1.531)" fill="#e50019"/>
    </g>
    <g id="Group_16656" data-name="Group 16656" transform="translate(0.45 12.598)">
      <path id="Path_50075" data-name="Path 50075" d="M.269-2.051v.021H.258v-.016a.039.039,0,0,0,0-.006.012.012,0,0,0,0,0h0a.007.007,0,0,0-.006,0,.012.012,0,0,0,0,.007v.017H.234v-.048H.245v.018l.005,0H.257a.011.011,0,0,1,.009,0,.016.016,0,0,1,0,.011Z" transform="translate(-0.234 2.078)" fill="#e50019"/>
    </g>
    <g id="Group_16657" data-name="Group 16657" transform="translate(0.492 12.611)">
      <path id="Path_50076" data-name="Path 50076" d="M.143-1.512H.138a0,0,0,0,0,0,0,0,0,0,0,0,0,0h0l.005,0a.008.008,0,0,0,0-.006H.143Zm.016,0v.02H.148V-1.5l-.005,0H.137a.012.012,0,0,1-.009,0,.011.011,0,0,1,0-.008.009.009,0,0,1,0-.009.024.024,0,0,1,.013,0H.148a0,0,0,0,0,0,0H.133l-.005,0v-.008H.142a.02.02,0,0,1,.013,0,.015.015,0,0,1,0,.012Z" transform="translate(-0.125 1.531)" fill="#e50019"/>
    </g>
    <g id="Group_16658" data-name="Group 16658" transform="translate(0.535 12.611)">
      <path id="Path_50077" data-name="Path 50077" d="M.169-1.529v.009l-.007,0H.152v0H.157a.024.024,0,0,1,.011,0,.009.009,0,0,1,0,.008.009.009,0,0,1,0,.008.022.022,0,0,1-.012,0H.141v-.008l.006,0H.16a0,0,0,0,0,0,0v0H.154a.018.018,0,0,1-.01,0,.009.009,0,0,1,0-.008.009.009,0,0,1,0-.008.019.019,0,0,1,.011,0H.169Z" transform="translate(-0.141 1.531)" fill="#e50019"/>
    </g>
    <g id="Group_16659" data-name="Group 16659" transform="translate(0.574 12.598)">
      <path id="Path_50078" data-name="Path 50078" d="M.269-2.051v.021H.258v-.016a.039.039,0,0,0,0-.006.012.012,0,0,0,0,0h0a.007.007,0,0,0-.006,0,.012.012,0,0,0,0,.007v.017H.234v-.048H.245v.018l.005,0H.257a.011.011,0,0,1,.009,0,.016.016,0,0,1,0,.011Z" transform="translate(-0.234 2.078)" fill="#e50019"/>
    </g>
    <g id="Group_16660" data-name="Group 16660" transform="translate(0.617 12.611)">
      <path id="Path_50079" data-name="Path 50079" d="M.143-1.512H.138a0,0,0,0,0,0,0,0,0,0,0,0,0,0h0l.005,0a.008.008,0,0,0,0-.006H.143Zm.016,0v.02H.148V-1.5l-.005,0H.137a.012.012,0,0,1-.009,0,.011.011,0,0,1,0-.008.009.009,0,0,1,0-.009.024.024,0,0,1,.013,0H.148a0,0,0,0,0,0,0H.133l-.005,0v-.008H.142a.02.02,0,0,1,.013,0,.015.015,0,0,1,0,.012Z" transform="translate(-0.125 1.531)" fill="#e50019"/>
    </g>
    <g id="Group_16661" data-name="Group 16661" transform="translate(0.661 12.611)">
      <path id="Path_50080" data-name="Path 50080" d="M.269-1.517V-1.5H.258v-.016a.035.035,0,0,0,0-.006.012.012,0,0,0,0,0h0a.007.007,0,0,0-.006,0,.012.012,0,0,0,0,.007V-1.5H.234v-.034H.245v.005l.005,0H.257a.011.011,0,0,1,.009,0,.016.016,0,0,1,0,.011Z" transform="translate(-0.234 1.531)" fill="#e50019"/>
    </g>
    <g id="Group_16662" data-name="Group 16662" transform="translate(0.706 12.598)">
      <path id="Path_50081" data-name="Path 50081" d="M.234-2.078H.245v.026l.013-.013H.271l-.017.016.018.019H.259L.245-2.045v.014H.234Z" transform="translate(-0.234 2.078)" fill="#e50019"/>
    </g>
    <g id="Group_16663" data-name="Group 16663" transform="translate(0.767 12.611)">
      <path id="Path_50082" data-name="Path 50082" d="M.169-1.529v.009l-.007,0H.152v0H.157a.024.024,0,0,1,.011,0,.009.009,0,0,1,0,.008.009.009,0,0,1,0,.008.022.022,0,0,1-.012,0H.141v-.008l.006,0H.16a0,0,0,0,0,0,0v0H.154a.018.018,0,0,1-.01,0,.009.009,0,0,1,0-.008.009.009,0,0,1,0-.008.019.019,0,0,1,.011,0H.169Z" transform="translate(-0.141 1.531)" fill="#e50019"/>
    </g>
    <g id="Group_16664" data-name="Group 16664" transform="translate(0.807 12.598)">
      <path id="Path_50083" data-name="Path 50083" d="M.234-2.065H.245v.034H.234Zm0-.013H.245v.009H.234Z" transform="translate(-0.234 2.078)" fill="#e50019"/>
    </g>
    <g id="Group_16665" data-name="Group 16665" transform="translate(0.828 12.611)">
      <path id="Path_50084" data-name="Path 50084" d="M.269-1.517V-1.5H.258v-.016a.035.035,0,0,0,0-.006.012.012,0,0,0,0,0h0a.007.007,0,0,0-.006,0,.012.012,0,0,0,0,.007V-1.5H.234v-.034H.245v.005l.005,0H.257a.011.011,0,0,1,.009,0,.016.016,0,0,1,0,.011Z" transform="translate(-0.234 1.531)" fill="#e50019"/>
    </g>
    <g id="Group_16666" data-name="Group 16666" transform="translate(0.871 12.611)">
      <path id="Path_50085" data-name="Path 50085" d="M.151-1.5l-.005,0H.139A.013.013,0,0,1,.129-1.5a.019.019,0,0,1,0-.013.019.019,0,0,1,0-.013.013.013,0,0,1,.01-.005H.145l.005,0v-.005H.162V-1.5a.015.015,0,0,1-.005.013.023.023,0,0,1-.015,0H.129v-.009l.005,0H.14a.011.011,0,0,0,.008,0,.01.01,0,0,0,0-.008ZM.144-1.523a.006.006,0,0,0-.005,0,.012.012,0,0,0,0,.007.012.012,0,0,0,0,.007.006.006,0,0,0,.005,0,.006.006,0,0,0,.005,0,.011.011,0,0,0,0-.007.011.011,0,0,0,0-.007A.006.006,0,0,0,.144-1.523Z" transform="translate(-0.125 1.531)" fill="#e50019"/>
    </g>
    <g id="Group_16667" data-name="Group 16667" transform="translate(0.918 12.598)">
      <path id="Path_50086" data-name="Path 50086" d="M.269-2.051v.021H.258v-.016a.039.039,0,0,0,0-.006.012.012,0,0,0,0,0h0a.007.007,0,0,0-.006,0,.012.012,0,0,0,0,.007v.017H.234v-.048H.245v.018l.005,0H.257a.011.011,0,0,1,.009,0,.016.016,0,0,1,0,.011Z" transform="translate(-0.234 2.078)" fill="#e50019"/>
    </g>
    <g id="Group_16668" data-name="Group 16668" transform="translate(0 12.661)">
      <path id="Path_50087" data-name="Path 50087" d="M.074-2.078v.007H.064a0,0,0,0,0,0,0v0H.073v.008H.063v.027H.053v-.027H.047v-.008H.053v0a.01.01,0,0,1,0-.008.014.014,0,0,1,.01,0Z" transform="translate(-0.047 2.078)" fill="#e50019"/>
    </g>
    <g id="Group_16669" data-name="Group 16669" transform="translate(0.031 12.673)">
      <path id="Path_50088" data-name="Path 50088" d="M.26-1.521H.254a.009.009,0,0,0-.007,0,.011.011,0,0,0,0,.008V-1.5H.234v-.034H.245v.006l0,0,.007,0h0Z" transform="translate(-0.234 1.531)" fill="#e50019"/>
    </g>
    <g id="Group_16670" data-name="Group 16670" transform="translate(0.06 12.673)">
      <path id="Path_50089" data-name="Path 50089" d="M.144-1.523a.007.007,0,0,0-.006,0,.013.013,0,0,0,0,.008.014.014,0,0,0,0,.008.007.007,0,0,0,.006,0,.006.006,0,0,0,.005,0,.013.013,0,0,0,0-.008.011.011,0,0,0,0-.008A.006.006,0,0,0,.144-1.523Zm0-.008a.019.019,0,0,1,.014.005.017.017,0,0,1,.005.013A.017.017,0,0,1,.158-1.5a.02.02,0,0,1-.014,0,.02.02,0,0,1-.014,0,.018.018,0,0,1,0-.013.017.017,0,0,1,0-.013A.019.019,0,0,1,.144-1.531Z" transform="translate(-0.125 1.531)" fill="#e50019"/>
    </g>
    <g id="Group_16671" data-name="Group 16671" transform="translate(0.105 12.673)">
      <path id="Path_50090" data-name="Path 50090" d="M.266-1.525l.005,0,.006,0a.012.012,0,0,1,.009,0,.016.016,0,0,1,0,.011V-1.5H.278v-.018h0a.009.009,0,0,0,0-.005l0,0a.006.006,0,0,0,0,0,.013.013,0,0,0,0,.008V-1.5H.256v-.018a.015.015,0,0,0,0-.007l0,0a.006.006,0,0,0-.005,0,.012.012,0,0,0,0,.007V-1.5H.234v-.034H.245v.005l0,0H.256l.006,0,0,0Z" transform="translate(-0.234 1.531)" fill="#e50019"/>
    </g>
    <g id="Group_16672" data-name="Group 16672" transform="translate(0.188 12.664)">
      <path id="Path_50091" data-name="Path 50091" d="M.048-1.922v.01H.059V-1.9H.048v.015a.005.005,0,0,0,0,0h.01v.008H.049a.014.014,0,0,1-.009,0,.014.014,0,0,1,0-.009V-1.9H.031v-.008H.037v-.01Z" transform="translate(-0.031 1.922)" fill="#e50019"/>
    </g>
    <g id="Group_16673" data-name="Group 16673" transform="translate(0.223 12.661)">
      <path id="Path_50092" data-name="Path 50092" d="M.269-2.051v.021H.258v-.016a.039.039,0,0,0,0-.006.012.012,0,0,0,0,0h0a.007.007,0,0,0-.006,0,.012.012,0,0,0,0,.007v.017H.234v-.048H.245v.018l.005,0H.257a.011.011,0,0,1,.009,0,.016.016,0,0,1,0,.011Z" transform="translate(-0.234 2.078)" fill="#e50019"/>
    </g>
    <g id="Group_16674" data-name="Group 16674" transform="translate(0.265 12.673)">
      <path id="Path_50093" data-name="Path 50093" d="M.162-1.513v0H.136a.009.009,0,0,0,0,.006l.007,0H.153l.008,0V-1.5l-.008,0H.144a.02.02,0,0,1-.014,0,.017.017,0,0,1-.005-.013A.017.017,0,0,1,.13-1.526a.019.019,0,0,1,.014-.005.017.017,0,0,1,.013.005.017.017,0,0,1,.005.013Zm-.011,0a.007.007,0,0,0,0-.005l-.005,0-.005,0a.008.008,0,0,0,0,.005Z" transform="translate(-0.125 1.531)" fill="#e50019"/>
    </g>
    <g id="Group_16675" data-name="Group 16675" transform="translate(0.332 12.663)">
      <path id="Path_50094" data-name="Path 50094" d="M.25-2H.263l.016.032V-2H.291v.046H.278L.261-1.986v.032H.25Z" transform="translate(-0.25 2)" fill="#e50019"/>
    </g>
    <g id="Group_16676" data-name="Group 16676" transform="translate(0.382 12.673)">
      <path id="Path_50095" data-name="Path 50095" d="M.144-1.523a.007.007,0,0,0-.006,0,.013.013,0,0,0,0,.008.014.014,0,0,0,0,.008.007.007,0,0,0,.006,0,.006.006,0,0,0,.005,0,.013.013,0,0,0,0-.008.011.011,0,0,0,0-.008A.006.006,0,0,0,.144-1.523Zm0-.008a.019.019,0,0,1,.014.005.017.017,0,0,1,.005.013A.017.017,0,0,1,.158-1.5a.02.02,0,0,1-.014,0,.02.02,0,0,1-.014,0,.018.018,0,0,1,0-.013.017.017,0,0,1,0-.013A.019.019,0,0,1,.144-1.531Z" transform="translate(-0.125 1.531)" fill="#e50019"/>
    </g>
    <g id="Group_16677" data-name="Group 16677" transform="translate(0.427 12.674)">
      <path id="Path_50096" data-name="Path 50096" d="M.219-1.479V-1.5H.23v.025l0,0h0a.006.006,0,0,0,.005,0,.011.011,0,0,0,0-.007V-1.5H.253v.034H.242v-.005l-.005,0H.231a.012.012,0,0,1-.009,0,.016.016,0,0,1,0-.01Z" transform="translate(-0.219 1.5)" fill="#e50019"/>
    </g>
    <g id="Group_16678" data-name="Group 16678" transform="translate(0.472 12.673)">
      <path id="Path_50097" data-name="Path 50097" d="M.269-1.517V-1.5H.258v-.016a.035.035,0,0,0,0-.006.012.012,0,0,0,0,0h0a.007.007,0,0,0-.006,0,.012.012,0,0,0,0,.007V-1.5H.234v-.034H.245v.005l.005,0H.257a.011.011,0,0,1,.009,0,.016.016,0,0,1,0,.011Z" transform="translate(-0.234 1.531)" fill="#e50019"/>
    </g>
    <g id="Group_16679" data-name="Group 16679" transform="translate(0.539 12.663)">
      <path id="Path_50098" data-name="Path 50098" d="M.25-2H.27A.02.02,0,0,1,.283-2a.014.014,0,0,1,0,.011.014.014,0,0,1,0,.011.02.02,0,0,1-.013,0H.262v.016H.25Zm.012.009v.013H.274a.007.007,0,0,0,0-.005.006.006,0,0,0,0,0l-.005,0Z" transform="translate(-0.25 2)" fill="#e50019"/>
    </g>
    <g id="Group_16680" data-name="Group 16680" transform="translate(0.584 12.673)">
      <path id="Path_50099" data-name="Path 50099" d="M.26-1.521H.254a.009.009,0,0,0-.007,0,.011.011,0,0,0,0,.008V-1.5H.234v-.034H.245v.006l0,0,.007,0h0Z" transform="translate(-0.234 1.531)" fill="#e50019"/>
    </g>
    <g id="Group_16681" data-name="Group 16681" transform="translate(0.613 12.673)">
      <path id="Path_50100" data-name="Path 50100" d="M.144-1.523a.007.007,0,0,0-.006,0,.013.013,0,0,0,0,.008.014.014,0,0,0,0,.008.007.007,0,0,0,.006,0,.006.006,0,0,0,.005,0,.013.013,0,0,0,0-.008.011.011,0,0,0,0-.008A.006.006,0,0,0,.144-1.523Zm0-.008a.019.019,0,0,1,.014.005.017.017,0,0,1,.005.013A.017.017,0,0,1,.158-1.5a.02.02,0,0,1-.014,0,.02.02,0,0,1-.014,0,.018.018,0,0,1,0-.013.017.017,0,0,1,0-.013A.019.019,0,0,1,.144-1.531Z" transform="translate(-0.125 1.531)" fill="#e50019"/>
    </g>
    <g id="Group_16682" data-name="Group 16682" transform="translate(0.651 12.661)">
      <path id="Path_50101" data-name="Path 50101" d="M-.086-2.065h.011v.034a.016.016,0,0,1,0,.011.013.013,0,0,1-.01,0H-.094v-.007h.006a.009.009,0,0,0,0-.006Zm0-.013h.011v.009H-.086Z" transform="translate(0.094 2.078)" fill="#e50019"/>
    </g>
    <g id="Group_16683" data-name="Group 16683" transform="translate(0.677 12.673)">
      <path id="Path_50102" data-name="Path 50102" d="M.162-1.513v0H.136a.009.009,0,0,0,0,.006l.007,0H.153l.008,0V-1.5l-.008,0H.144a.02.02,0,0,1-.014,0,.017.017,0,0,1-.005-.013A.017.017,0,0,1,.13-1.526a.019.019,0,0,1,.014-.005.017.017,0,0,1,.013.005.017.017,0,0,1,.005.013Zm-.011,0a.007.007,0,0,0,0-.005l-.005,0-.005,0a.008.008,0,0,0,0,.005Z" transform="translate(-0.125 1.531)" fill="#e50019"/>
    </g>
    <g id="Group_16684" data-name="Group 16684" transform="translate(0.72 12.673)">
      <path id="Path_50103" data-name="Path 50103" d="M.155-1.529v.009l0,0h0a.01.01,0,0,0-.007,0,.01.01,0,0,0,0,.007.011.011,0,0,0,0,.008.01.01,0,0,0,.007,0H.151l0,0V-1.5H.145a.021.021,0,0,1-.015,0,.017.017,0,0,1-.005-.013A.017.017,0,0,1,.13-1.526a.021.021,0,0,1,.015-.005h.01Z" transform="translate(-0.125 1.531)" fill="#e50019"/>
    </g>
    <g id="Group_16685" data-name="Group 16685" transform="translate(0.755 12.664)">
      <path id="Path_50104" data-name="Path 50104" d="M.048-1.922v.01H.059V-1.9H.048v.015a.005.005,0,0,0,0,0h.01v.008H.049a.014.014,0,0,1-.009,0,.014.014,0,0,1,0-.009V-1.9H.031v-.008H.037v-.01Z" transform="translate(-0.031 1.922)" fill="#e50019"/>
    </g>
  </g>
</svg>
