<svg xmlns="http://www.w3.org/2000/svg" width="20.122" height="10.548" viewBox="0 0 20.122 10.548">
  <g id="Group_16782" data-name="Group 16782" transform="translate(394.198 -480.872) rotate(90)">
    <path id="Path_50176" data-name="Path 50176" d="M491.311,380.332a1.111,1.111,0,0,0-.38-.282c-.228-.08-.227-.226-.212-.418.044-.557.1-1.115.1-1.674a1.808,1.808,0,0,0-.146-.733c-.213-.486-.471-.952-.712-1.425a2.7,2.7,0,0,0-1.456-1.3,6.838,6.838,0,0,0-4.727,0,2.7,2.7,0,0,0-1.456,1.3c-.241.473-.5.939-.712,1.425a1.808,1.808,0,0,0-.146.733c.009.558.06,1.117.1,1.674.016.191.016.337-.212.418a1.109,1.109,0,0,0-.38.282.356.356,0,0,0-.049.458.213.213,0,0,0,.3.118l.35-.142a.275.275,0,0,1,.4.286c-.055.6-.13,1.191-.174,1.789-.07.969-.14,1.939-.174,2.91-.017.468.076.94.067,1.409-.017.832-.109,1.662-.106,2.493a7.515,7.515,0,0,0,.472,2.836,1.792,1.792,0,0,0,1.025,1.052,8.926,8.926,0,0,0,2.5.631q.283.027.56.027t.56-.027a8.925,8.925,0,0,0,2.5-.631,1.792,1.792,0,0,0,1.025-1.052,7.512,7.512,0,0,0,.471-2.836c0-.831-.089-1.661-.106-2.493-.01-.469.084-.941.067-1.409-.034-.971-.1-1.941-.174-2.91-.044-.6-.119-1.192-.174-1.789a.275.275,0,0,1,.4-.286l.35.142a.213.213,0,0,0,.3-.118A.356.356,0,0,0,491.311,380.332Zm-2.543,10.3a3.091,3.091,0,0,1-1.369.451,9.106,9.106,0,0,1-2.5,0,3.091,3.091,0,0,1-1.369-.451.7.7,0,0,1-.353-.663c.026-.519.008-1.04.008-1.559v-.972a12.963,12.963,0,0,0,5.933,0v.972c0,.52-.018,1.041.008,1.559A.7.7,0,0,1,488.768,390.636Zm-5.383-5.521v-1.094a.734.734,0,0,1,.734-.734h4.161a.734.734,0,0,1,.734.734v1.094a.734.734,0,0,1-.734.734h-4.161A.734.734,0,0,1,483.385,385.115Zm6.3-5.1c-.135.724-.205,1.46-.3,2.191-.007.052-.023.1-.04.172a12.765,12.765,0,0,0-6.39,0c-.016-.069-.033-.12-.039-.172-.1-.731-.169-1.467-.3-2.191a.86.86,0,0,1,.317-.879,4.23,4.23,0,0,1,.934-.667,5.613,5.613,0,0,1,4.575,0,4.232,4.232,0,0,1,.934.667A.86.86,0,0,1,489.685,380.015Z" transform="translate(0 0)" fill="#e50019"/>
  </g>
</svg>
