<svg xmlns="http://www.w3.org/2000/svg" width="13.156" height="13.156" viewBox="0 0 13.156 13.156">
  <path id="Icon_awesome-phone-alt" data-name="Icon awesome-phone-alt" d="M12.781,9.3,9.9,8.064a.617.617,0,0,0-.719.177L7.909,9.8A9.525,9.525,0,0,1,3.356,5.245L4.913,3.971a.615.615,0,0,0,.177-.719L3.857.373A.621.621,0,0,0,3.15.016L.478.633a.617.617,0,0,0-.478.6A11.922,11.922,0,0,0,11.923,13.157a.617.617,0,0,0,.6-.478l.617-2.672a.624.624,0,0,0-.36-.709Z" transform="translate(0 0)" fill="#e50019"/>
</svg>
