<svg xmlns="http://www.w3.org/2000/svg" width="10.775" height="14.007" viewBox="0 0 10.775 14.007">
  <g id="Group_16784" data-name="Group 16784" transform="translate(-964.06 -402.775)">
    <path id="Path_50180" data-name="Path 50180" d="M1064.24,463.886a14.992,14.992,0,0,0-.8-3.376v.946a.593.593,0,0,1-.592.592h-.788a11.148,11.148,0,0,1,.4,1.446,24.383,24.383,0,0,1,.4,5.178,2.934,2.934,0,0,1-.176.694,1.685,1.685,0,0,1-.074.167,1.9,1.9,0,0,0,.481.046,1.649,1.649,0,0,0,1.383-1.66A32.318,32.318,0,0,0,1064.24,463.886Z" transform="translate(-89.637 -52.808)" fill="#e50019"/>
    <path id="Path_50181" data-name="Path 50181" d="M965.868,464.772a13.535,13.535,0,0,1,.605-2.7h-.791a.593.593,0,0,1-.592-.592v-.943a14.506,14.506,0,0,0-.759,3.079,30.8,30.8,0,0,0-.271,4.317,1.667,1.667,0,0,0,1.24,1.647.748.748,0,0,0,.616-.074,2,2,0,0,1-.252-1.123A31.185,31.185,0,0,1,965.868,464.772Z" transform="translate(0 -52.835)" fill="#e50019"/>
    <path id="Path_50182" data-name="Path 50182" d="M1004.7,403.132a.778.778,0,0,0-.687-.352c-.994.007-1.988.02-2.982,0a.887.887,0,0,0-.872.459h4.607Q1004.737,403.182,1004.7,403.132Z" transform="translate(-33.019)" fill="#e50019"/>
    <path id="Path_50183" data-name="Path 50183" d="M995.028,478.53h-4.772c-.129.364-.253.73-.346,1.1a21.741,21.741,0,0,0-.5,5.5,1.844,1.844,0,0,0,.189.582c.038.1.117.11.222.086a12.017,12.017,0,0,1,2.787-.307,12.616,12.616,0,0,1,2.789.309.231.231,0,0,0,.294-.111,1.262,1.262,0,0,0,.177-.657,28.975,28.975,0,0,0-.236-4A12.816,12.816,0,0,0,995.028,478.53Z" transform="translate(-23.184 -69.29)" fill="#e50019"/>
    <path id="Path_50184" data-name="Path 50184" d="M980.943,416.612h6.9a.543.543,0,0,0,.543-.543v-4.417a.543.543,0,0,0-.543-.543h-6.9a.543.543,0,0,0-.543.543v4.417A.543.543,0,0,0,980.943,416.612Zm.3-4.2a.482.482,0,0,1,.482-.481h5.325a.482.482,0,0,1,.482.481v2.9a.481.481,0,0,1-.482.481H981.73a.481.481,0,0,1-.482-.481v-2.9Z" transform="translate(-14.946 -7.623)" fill="#e50019"/>
  </g>
</svg>
