<svg xmlns="http://www.w3.org/2000/svg" width="36.664" height="20" viewBox="0 0 36.664 20">
  <g id="Group_16734" data-name="Group 16734" transform="translate(-245.996 -27.291)">
    <path id="Path_50105" data-name="Path 50105" d="M270.217,40.682a1.659,1.659,0,0,1-1.66-1.66V28.951a1.66,1.66,0,1,1,3.319,0V39.022A1.66,1.66,0,0,1,270.217,40.682Z" transform="translate(-17.212)" fill="#707070"/>
    <g id="Group_16687" data-name="Group 16687" transform="translate(245.995 38.643)">
      <path id="Path_50106" data-name="Path 50106" d="M252.984,95.185a1.653,1.653,0,0,1-1.173-.486l-5.329-5.329a1.66,1.66,0,0,1,2.347-2.347l5.329,5.329a1.66,1.66,0,0,1-1.174,2.833Z" transform="translate(-245.996 -86.536)" fill="#707070"/>
      <path id="Path_50107" data-name="Path 50107" d="M270.3,95.185a1.66,1.66,0,0,1-1.174-2.833l5.329-5.329A1.66,1.66,0,0,1,276.8,89.37L271.476,94.7A1.655,1.655,0,0,1,270.3,95.185Z" transform="translate(-263.273 -86.536)" fill="#707070"/>
    </g>
    <path id="Path_50108" data-name="Path 50108" d="M337.627,38.17H320.3a1.66,1.66,0,0,1,0-3.319h17.327a1.66,1.66,0,0,1,0,3.319Z" transform="translate(-56.627 -5.768)" fill="#707070"/>
    <path id="Path_50109" data-name="Path 50109" d="M333.286,63.37H320.167a1.665,1.665,0,0,1,0-3.319h13.119a1.665,1.665,0,0,1,0,3.319Z" transform="translate(-56.241 -26.073)" fill="#707070"/>
    <path id="Path_50110" data-name="Path 50110" d="M327.384,88.57H320.3a1.66,1.66,0,0,1,0-3.319h7.084a1.66,1.66,0,0,1,0,3.319Z" transform="translate(-56.241 -46.129)" fill="#707070"/>
    <path id="Path_50112" data-name="Path 50112" d="M323.419,88.57H320.3a1.66,1.66,0,0,1,0-3.319h3.12a1.66,1.66,0,0,1,0,3.319Z" transform="translate(-56.241 -41.279)" fill="#707070"/>
  </g>
</svg>
