<svg xmlns="http://www.w3.org/2000/svg" width="27.64" height="27.64" viewBox="0 0 27.64 27.64">
  <path id="Icon_awesome-street-view" data-name="Icon awesome-street-view" d="M19.861,17.8a3.452,3.452,0,0,1-.858.737v1.238c3.591.5,6.046,1.514,6.046,2.68,0,1.67-5.027,3.023-11.229,3.023S2.591,24.127,2.591,22.458c0-1.166,2.455-2.176,6.046-2.68V18.539a3.452,3.452,0,0,1-.858-.737C3.178,18.643,0,20.409,0,22.458,0,25.32,6.188,27.64,13.82,27.64s13.82-2.32,13.82-5.183C27.64,20.409,24.462,18.643,19.861,17.8ZM13.82,6.91a3.455,3.455,0,1,0-3.455-3.455A3.455,3.455,0,0,0,13.82,6.91ZM10.365,17.275v5.183a1.728,1.728,0,0,0,1.728,1.728h3.455a1.728,1.728,0,0,0,1.728-1.728V17.275A1.728,1.728,0,0,0,19,15.548V10.365a2.591,2.591,0,0,0-2.591-2.591h-.637a4.637,4.637,0,0,1-3.908,0h-.637a2.591,2.591,0,0,0-2.591,2.591v5.183A1.728,1.728,0,0,0,10.365,17.275Z" fill="#fff"/>
</svg>
