<svg id="Layer_1" data-name="Layer 1" xmlns="http://www.w3.org/2000/svg" viewBox="0 0 196.55 157.17"><path d="M46.65,83.77a7,7,0,0,1-7-7V34.29a7,7,0,0,1,14,0V76.77A7,7,0,0,1,46.65,83.77Z"/><path d="M46.56,123a7,7,0,0,1-5-2.05L19.14,98.49a7,7,0,1,1,9.9-9.9l22.47,22.47a7,7,0,0,1-4.95,12Z"/><path d="M46.74,123a7,7,0,0,1-5-12L64.26,88.59a7,7,0,1,1,9.9,9.9L51.69,121A7,7,0,0,1,46.74,123Z"/><path d="M169.81,48.85H96.73a7,7,0,0,1,0-14h73.08a7,7,0,0,1,0,14Z"/><path d="M156.85,74.05H96.73a7,7,0,0,1,0-14h60.12a7,7,0,0,1,0,14Z"/><path d="M126.61,99.25H96.73a7,7,0,0,1,0-14h29.88a7,7,0,1,1,0,14Z"/></svg>