<svg id="Layer_1" data-name="Layer 1" xmlns="http://www.w3.org/2000/svg" viewBox="0 0 223.43 165.81"><path d="M63.16,66.53a7,7,0,0,1,7,7V116a7,7,0,1,1-14,0V73.53A7,7,0,0,1,63.16,66.53Z"/><path d="M63.24,27.29a6.94,6.94,0,0,1,4.95,2.05L90.67,51.82a7,7,0,0,1-9.9,9.9L58.29,39.24a7,7,0,0,1,5-12Z"/><path d="M63.07,27.29a7,7,0,0,1,4.95,12L45.55,61.72a7,7,0,0,1-9.9-9.9L58.12,29.34A7,7,0,0,1,63.07,27.29Z"/><path d="M186.32,48.85H113.24a7,7,0,0,1,0-14h73.08a7,7,0,0,1,0,14Z"/><path d="M173.36,74.05H113.24a7,7,0,0,1,0-14h60.12a7,7,0,0,1,0,14Z"/><path d="M143.12,99.25H113.24a7,7,0,0,1,0-14h29.88a7,7,0,0,1,0,14Z"/></svg>