<svg xmlns="http://www.w3.org/2000/svg" xmlns:xlink="http://www.w3.org/1999/xlink" width="67.509" height="63.707" viewBox="0 0 67.509 63.707">
  <defs>
    <linearGradient id="linear-gradient" x1="0.503" y1="0.213" x2="0.496" y2="0.966" gradientUnits="objectBoundingBox">
      <stop offset="0" stop-color="#e50019"/>
      <stop offset="1" stop-color="#69000f"/>
    </linearGradient>
  </defs>
  <g id="Group_16627" data-name="Group 16627" transform="translate(-63.01 -121.32)">
    <rect id="Rectangle_8054" data-name="Rectangle 8054" width="67.509" height="63.707" rx="17" transform="translate(63.01 121.32)" fill="url(#linear-gradient)"/>
    <g id="Group_16624" data-name="Group 16624" transform="translate(-40.704 5)">
      <g id="Group_13212" data-name="Group 13212" transform="translate(117.555 124.369)">
        <path id="Path_36471" data-name="Path 36471" d="M-756.121,304.467a4.711,4.711,0,0,1-3.239-1.365,4.708,4.708,0,0,1-1.487-2.963l0-.006a2.724,2.724,0,0,1-2.29-2.477,17.165,17.165,0,0,1,.017-3.2,2.628,2.628,0,0,1,2.074-2.33c.96-.262,1.938-.522,2.883-.774,1.516-.4,3.084-.821,4.616-1.257a2.571,2.571,0,0,0,1.063-.655c.5-.507.992-1.049,1.467-1.573.62-.684,1.262-1.391,1.944-2.046A7.547,7.547,0,0,1-743.7,283.8c2.123-.015,3.878-.022,5.523-.022,1.7,0,3.251.007,4.746.022a7.97,7.97,0,0,1,6.334,3.058q.532.648,1.065,1.294c.563.683,1.145,1.389,1.712,2.088.043.054.084.108.124.166a4.063,4.063,0,0,1,.623,1.422l.065.279a4.265,4.265,0,0,1,.109.914l.006.54c.016,1.3.032,2.644-.055,3.97a2.937,2.937,0,0,1-2.5,2.593.5.5,0,0,0-.056.011.8.8,0,0,0-.014.082,4.829,4.829,0,0,1-4.839,4.247l-.137,0a4.92,4.92,0,0,1-4.636-4.247c-2.779-.008-5.568-.012-8.295-.012-2.443,0-4.9,0-7.308.01a4.7,4.7,0,0,1-3.069,3.9A5.029,5.029,0,0,1-756.121,304.467Z" transform="translate(763.207 -283.779)" fill="#fff"/>
      </g>
      <g id="_7893854021582962141" data-name="7893854021582962141" transform="translate(115.255 147.454)">
        <path id="Path_50031" data-name="Path 50031" d="M57.533,78.2c-5.207,3.4-17.092,10.107-17.092,10.107l-.026.015a7.758,7.758,0,0,1-5.549.823c-.194-.034-12.041-1.484-13.8-1.7l-.049-1.092V73.27c.939-.086,2.712-.158,2.909-.171,5.053-.326,9.924.837,14.845,1.8a2.215,2.215,0,0,1,1.787,2.174,2.039,2.039,0,0,1-.016.263,2.214,2.214,0,0,1-2.2,1.952H29.533a.7.7,0,0,0-.721.679.672.672,0,0,0,.325.568.558.558,0,0,0,.349.123h7.779c.239-.016,1.617-.044,2.564-.095a5.78,5.78,0,0,0,1.287-.219l1.18-.341,13.245-5.56A2.133,2.133,0,0,1,57.532,78.2Z" transform="translate(-14.073 -71.744)" fill="#fff"/>
        <rect id="Rectangle_12675" data-name="Rectangle 12675" width="4.776" height="15.714" fill="#fff"/>
      </g>
    </g>
  </g>
</svg>
