<svg xmlns="http://www.w3.org/2000/svg" width="15.686" height="15.69" viewBox="0 0 15.686 15.69">
  <g id="Group_16781" data-name="Group 16781" transform="translate(-72.5 -378.376)">
    <path id="Path_50169" data-name="Path 50169" d="M80.336,378.376a7.845,7.845,0,1,1-7.836,7.851A7.859,7.859,0,0,1,80.336,378.376Zm-5.6,7.854a5.609,5.609,0,1,0,5.609-5.619A5.616,5.616,0,0,0,74.734,386.23Z" fill="#e50019"/>
    <path id="Path_50170" data-name="Path 50170" d="M150.656,520.292c.449-.547.882-1.079,1.324-1.6a.258.258,0,0,1,.225-.071,2.273,2.273,0,0,0,1.9-.126l1.362,1.741A4.321,4.321,0,0,1,150.656,520.292Z" transform="translate(-72.682 -130.302)" fill="#e50019"/>
    <path id="Path_50171" data-name="Path 50171" d="M121.859,477.53a4.51,4.51,0,0,1-1.054-4.269c.668.281,1.312.546,1.948.828a.306.306,0,0,1,.121.244,2.3,2.3,0,0,0,.43,1.441Z" transform="translate(-44.777 -88.239)" fill="#e50019"/>
    <path id="Path_50172" data-name="Path 50172" d="M214.106,477.488c-.463-.591-.9-1.137-1.318-1.7-.049-.066-.017-.206,0-.307q.106-.543.233-1.082c.023-.1.051-.249.12-.28.636-.285,1.281-.549,1.949-.83A4.493,4.493,0,0,1,214.106,477.488Z" transform="translate(-130.438 -88.268)" fill="#e50019"/>
    <path id="Path_50173" data-name="Path 50173" d="M196.041,429.213c-.67.284-1.308.559-1.952.82a.308.308,0,0,1-.241-.054c-.358-.249-.708-.51-1.1-.8v-2.16A4.529,4.529,0,0,1,196.041,429.213Z" transform="translate(-111.824 -45.24)" fill="#e50019"/>
    <path id="Path_50174" data-name="Path 50174" d="M132.486,429.185c-.406.3-.748.549-1.1.792a.311.311,0,0,1-.24.059c-.644-.261-1.283-.535-1.955-.819a4.517,4.517,0,0,1,3.291-2.191Z" transform="translate(-52.724 -45.242)" fill="#e50019"/>
    <path id="Path_50175" data-name="Path 50175" d="M169.645,474.447a1.116,1.116,0,1,1-1.1,1.13A1.123,1.123,0,0,1,169.645,474.447Z" transform="translate(-89.316 -89.342)" fill="#e50019"/>
  </g>
</svg>
