<svg id="_7787542_lock_security_protection_secure_shield_icon" data-name="7787542_lock_security_protection_secure_shield_icon" xmlns="http://www.w3.org/2000/svg" width="14.884" height="15.009" viewBox="0 0 14.884 15.009">
  <path id="_7787542_lock_security_protection_secure_shield_icon-2" data-name="7787542_lock_security_protection_secure_shield_icon" d="M36.907,25.629H29.465V23.752a1.938,1.938,0,0,1,1.985-1.876h2.233a1.712,1.712,0,0,1,1.736,1.642.994.994,0,0,0,1.985,0A3.65,3.65,0,0,0,33.682,20H31.45a3.877,3.877,0,0,0-3.969,3.752v1.923A2.873,2.873,0,0,0,25,28.443V32.2a2.908,2.908,0,0,0,2.977,2.814h8.93A2.908,2.908,0,0,0,39.884,32.2V28.443A2.908,2.908,0,0,0,36.907,25.629ZM37.9,32.2a.966.966,0,0,1-.992.938h-8.93a.966.966,0,0,1-.992-.938V28.443a.966.966,0,0,1,.992-.938h8.93a.966.966,0,0,1,.992.938Z" transform="translate(-25 -20)" fill="#1d1d1d"/>
</svg>
