<svg xmlns="http://www.w3.org/2000/svg" width="48" height="48" viewBox="0 0 48 48">
  <g id="Group_16557" data-name="Group 16557" transform="translate(-318 -153)">
    <g id="Ellipse_3987" data-name="Ellipse 3987" transform="translate(318 153)" fill="#fff" stroke="#707070" stroke-width="1">
      <circle cx="24" cy="24" r="24" stroke="none"/>
      <circle cx="24" cy="24" r="23.5" fill="none"/>
    </g>
    <path id="Icon_awesome-list" data-name="Icon awesome-list" d="M2.813,14.625H.563A.562.562,0,0,0,0,15.188v2.25A.563.563,0,0,0,.563,18h2.25a.563.563,0,0,0,.563-.562v-2.25A.562.562,0,0,0,2.813,14.625Zm0-11.25H.563A.562.562,0,0,0,0,3.938v2.25a.562.562,0,0,0,.563.563h2.25a.562.562,0,0,0,.563-.562V3.938A.563.563,0,0,0,2.813,3.375ZM2.813,9H.563A.563.563,0,0,0,0,9.563v2.25a.562.562,0,0,0,.563.563h2.25a.562.562,0,0,0,.563-.562V9.563A.562.562,0,0,0,2.813,9Zm14.625,6.188H6.188a.562.562,0,0,0-.562.563v1.125a.562.562,0,0,0,.563.563h11.25A.562.562,0,0,0,18,16.875V15.75A.563.563,0,0,0,17.438,15.188Zm0-11.25H6.188a.562.562,0,0,0-.562.563V5.625a.562.562,0,0,0,.563.563h11.25A.563.563,0,0,0,18,5.625V4.5A.563.563,0,0,0,17.438,3.938Zm0,5.625H6.188a.562.562,0,0,0-.562.563V11.25a.562.562,0,0,0,.563.563h11.25A.563.563,0,0,0,18,11.25V10.125A.563.563,0,0,0,17.438,9.563Z" transform="translate(333 166.313)" fill="#e50019"/>
  </g>
</svg>
