<svg xmlns="http://www.w3.org/2000/svg" width="21.897" height="21.895" viewBox="0 0 21.897 21.895">
  <path id="Icon_ionic-ios-call" data-name="Icon ionic-ios-call" d="M25.754,21.647a18.391,18.391,0,0,0-3.842-2.571c-1.151-.553-1.573-.542-2.388.046-.678.49-1.117.946-1.9.775a11.323,11.323,0,0,1-3.813-2.822,11.242,11.242,0,0,1-2.822-3.813c-.165-.787.291-1.22.775-1.9.587-.815.6-1.237.046-2.388A18.028,18.028,0,0,0,9.241,5.133C8.4,4.3,8.215,4.478,7.753,4.643a8.466,8.466,0,0,0-1.362.724A4.11,4.11,0,0,0,4.755,7.094c-.325.7-.7,2.006,1.214,5.415a30.216,30.216,0,0,0,5.313,7.085h0l.006.006.006.006h0a30.334,30.334,0,0,0,7.085,5.313c3.409,1.915,4.714,1.539,5.415,1.214A4.04,4.04,0,0,0,25.52,24.5a8.466,8.466,0,0,0,.724-1.362C26.41,22.673,26.6,22.485,25.754,21.647Z" transform="translate(-4.49 -4.502)" fill="#fff"/>
</svg>
