<svg xmlns="http://www.w3.org/2000/svg" width="21.889" height="20" viewBox="0 0 21.889 20">
  <g id="Icon_feather-book-open" data-name="Icon feather-book-open" transform="translate(-1.5 -3)">
    <path id="Path_36477" data-name="Path 36477" d="M3,3H8.667a5.284,5.284,0,0,1,5.278,5.278V21.5a1.5,1.5,0,0,1-3,0,1.335,1.335,0,0,0-1.333-1.333H3a1.5,1.5,0,0,1-1.5-1.5V4.5A1.5,1.5,0,0,1,3,3Zm7.944,14.376v-9.1A2.28,2.28,0,0,0,8.667,6H4.5V17.167H9.611A4.319,4.319,0,0,1,10.944,17.376Z" fill="#fff"/>
    <path id="Path_36478" data-name="Path 36478" d="M21.778,3h5.667a1.5,1.5,0,0,1,1.5,1.5V18.667a1.5,1.5,0,0,1-1.5,1.5H20.833A1.335,1.335,0,0,0,19.5,21.5a1.5,1.5,0,0,1-3,0V8.278A5.284,5.284,0,0,1,21.778,3Zm4.167,3H21.778A2.28,2.28,0,0,0,19.5,8.278v9.1a4.319,4.319,0,0,1,1.333-.21h5.111Z" transform="translate(-5.556)" fill="#fff"/>
  </g>
</svg>
