<svg xmlns="http://www.w3.org/2000/svg" width="18.744" height="20.252" viewBox="0 0 18.744 20.252">
  <path id="share" d="M23.38,12.61a3.814,3.814,0,0,0-2.94,1.383L15.878,11.4a3.813,3.813,0,0,0,0-2.552L20.44,6.259A3.817,3.817,0,1,0,19.779,5.1L15.216,7.688a3.821,3.821,0,1,0,0,4.876l4.563,2.591a3.82,3.82,0,1,0,3.6-2.545Zm0-11.273A2.484,2.484,0,1,1,20.9,3.821,2.486,2.486,0,0,1,23.38,1.337ZM12.277,12.61a2.484,2.484,0,1,1,2.483-2.484A2.487,2.487,0,0,1,12.277,12.61Zm11.1,6.305a2.484,2.484,0,1,1,2.483-2.484A2.487,2.487,0,0,1,23.38,18.915Z" transform="translate(-8.456)" fill="#1d1d1d"/>
</svg>
