<svg id="fi-rr-shopping-cart-add" xmlns="http://www.w3.org/2000/svg" width="15.019" height="15.041" viewBox="0 0 15.019 15.041">
  <circle id="Ellipse_3086" data-name="Ellipse 3086" cx="1" cy="1" r="1" transform="translate(3.351 13.041)" fill="#fff"/>
  <circle id="Ellipse_3087" data-name="Ellipse 3087" cx="1" cy="1" r="1" transform="translate(9.351 13.041)" fill="#fff"/>
  <path id="Path_36155" data-name="Path 36155" d="M20.381,1.877H19.129V.626a.626.626,0,0,0-1.252,0V1.877H16.626a.626.626,0,0,0,0,1.252h1.252V4.381a.626.626,0,0,0,1.252,0V3.129h1.252a.626.626,0,1,0,0-1.252Z" transform="translate(-5.987)" fill="#fff"/>
  <path id="Path_36156" data-name="Path 36156" d="M13.624,6.086a.622.622,0,0,0-.727.5A1.877,1.877,0,0,1,11.05,8.135H3.391L2.8,3.129H8.135a.626.626,0,0,0,0-1.252H2.655l-.026-.22A1.877,1.877,0,0,0,.765,0H.626a.626.626,0,0,0,0,1.252H.765a.626.626,0,0,1,.621.552l.861,7.322A3.129,3.129,0,0,0,5.355,11.89H11.89a.626.626,0,0,0,0-1.252H5.355a1.877,1.877,0,0,1-1.77-1.252H11.05a3.129,3.129,0,0,0,3.08-2.574.626.626,0,0,0-.505-.727Z" fill="#fff"/>
</svg>
