<svg xmlns="http://www.w3.org/2000/svg" width="10.718" height="10.717" viewBox="0 0 10.718 10.717">
  <g transform="translate(-23.189 -5.061)">
    <path id="iconfinder_-_Star-Favorite-Featured-Famous-Super_3844428" d="M11.68,5.651a.674.674,0,0,0-.538-.458l-2.537-.38L7.464,2.389a.667.667,0,0,0-1.213,0L5.127,4.8l-2.553.389a.675.675,0,0,0-.538.458.7.7,0,0,0,.161.71l1.847,1.89-.436,2.664a.689.689,0,0,0,.281.68.656.656,0,0,0,.7.04l2.252-1.258,2.284,1.258a.657.657,0,0,0,.7-.04.688.688,0,0,0,.281-.68L9.672,8.247l1.847-1.887A.7.7,0,0,0,11.68,5.651Z" transform="translate(21.69 3.561)" fill="#e50019"/>
    <path id="iconfinder_-_Star-Favorite-Featured-Famous-Super_3844428_-_Outline" data-name="iconfinder_-_Star-Favorite-Featured-Famous-Super_3844428 - Outline" d="M6.858,1.5a1.163,1.163,0,0,1,1.058.676L8.945,4.358l2.272.34a1.173,1.173,0,0,1,.938.794,1.194,1.194,0,0,1-.278,1.218l-1.67,1.706.4,2.418A1.184,1.184,0,0,1,10.115,12a1.157,1.157,0,0,1-1.23.069L6.844,10.948l-2.01,1.122a1.168,1.168,0,0,1-.563.146A1.154,1.154,0,0,1,3.6,12a1.184,1.184,0,0,1-.486-1.168l.4-2.415L1.84,6.71a1.193,1.193,0,0,1-.278-1.218A1.174,1.174,0,0,1,2.5,4.7L4.787,4.35,5.8,2.178A1.164,1.164,0,0,1,6.858,1.5Zm2.587,9.717a.162.162,0,0,0,.093-.031A.189.189,0,0,0,9.615,11L9.137,8.078l2.024-2.067a.2.2,0,0,0,.044-.2.174.174,0,0,0-.139-.122l-2.8-.419L7.012,2.6a.167.167,0,0,0-.308,0L5.467,5.258l-2.818.429a.175.175,0,0,0-.139.122.2.2,0,0,0,.044.2L4.578,8.082,4.1,11a.19.19,0,0,0,.076.19.157.157,0,0,0,.172.01L6.84,9.8,9.367,11.2A.161.161,0,0,0,9.445,11.217Z" transform="translate(21.69 3.561)" fill="#fff"/>
  </g>
</svg>
