<svg xmlns="http://www.w3.org/2000/svg" width="19.812" height="19.811" viewBox="0 0 19.812 19.811">
  <g id="Group_11157" data-name="Group 11157" transform="translate(-275.549 -762.5)">
    <g id="profile-user" transform="translate(276.049 763)">
      <path id="Path_23422" data-name="Path 23422" d="M9.406,0a9.405,9.405,0,1,0,9.406,9.405A9.406,9.406,0,0,0,9.406,0Zm0,2.812A3.111,3.111,0,1,1,6.3,5.924,3.111,3.111,0,0,1,9.406,2.813Zm0,13.539a6.9,6.9,0,0,1-4.5-1.658,1.326,1.326,0,0,1-.465-1.008A3.137,3.137,0,0,1,7.6,10.551h3.62a3.133,3.133,0,0,1,3.148,3.137,1.322,1.322,0,0,1-.465,1.007A6.9,6.9,0,0,1,9.4,16.353Z" transform="translate(0 -0.001)" fill="none" stroke="#fff" stroke-width="1"/>
    </g>
  </g>
</svg>
