<svg xmlns="http://www.w3.org/2000/svg" width="26.367" height="22.118" viewBox="0 0 26.367 22.118">
  <g id="Icon_feather-user-plus" data-name="Icon feather-user-plus" transform="translate(0 -3)">
    <path id="Path_36473" data-name="Path 36473" d="M17.432,30.373a1.5,1.5,0,0,1-1.5-1.5V26.748A2.752,2.752,0,0,0,13.183,24H5.748A2.748,2.748,0,0,0,3,26.748v2.124a1.5,1.5,0,0,1-3,0V26.748A5.748,5.748,0,0,1,5.748,21h7.435a5.755,5.755,0,0,1,5.748,5.748v2.124A1.5,1.5,0,0,1,17.432,30.373Z" transform="translate(0 -5.255)" fill="#e50019"/>
    <path id="Path_36474" data-name="Path 36474" d="M11,3A5.748,5.748,0,1,1,5.25,8.748,5.755,5.755,0,0,1,11,3Zm0,8.5A2.748,2.748,0,1,0,8.25,8.748,2.752,2.752,0,0,0,11,11.5Z" transform="translate(-1.533)" fill="#e50019"/>
    <path id="Path_36475" data-name="Path 36475" d="M30,19.873a1.5,1.5,0,0,1-1.5-1.5V12a1.5,1.5,0,1,1,3,0v6.373A1.5,1.5,0,0,1,30,19.873Z" transform="translate(-8.32 -2.189)" fill="#e50019"/>
    <path id="Path_36476" data-name="Path 36476" d="M31.873,18H25.5a1.5,1.5,0,0,1,0-3h6.373a1.5,1.5,0,0,1,0,3Z" transform="translate(-7.006 -3.503)" fill="#e50019"/>
  </g>
</svg>
