<svg xmlns="http://www.w3.org/2000/svg" width="19.812" height="19.811" viewBox="0 0 19.812 19.811">
  <g id="Group_11157" data-name="Group 11157" transform="translate(-275.549 -762.5)">
    <g id="profile-user" transform="translate(276.049 763)">
      <path id="Path_23422" data-name="Path 23422" d="M9.406-.5A9.905,9.905,0,1,1-.5,9.406,9.917,9.917,0,0,1,9.406-.5Zm0,18.811A8.905,8.905,0,1,0,.5,9.406,8.916,8.916,0,0,0,9.406,18.312Zm0-16A3.611,3.611,0,1,1,5.8,5.924,3.615,3.615,0,0,1,9.406,2.313Zm0,6.222A2.611,2.611,0,1,0,6.8,5.924,2.614,2.614,0,0,0,9.406,8.535ZM7.6,10.051h3.62a3.633,3.633,0,0,1,3.648,3.637,1.82,1.82,0,0,1-.641,1.388,7.424,7.424,0,0,1-9.639,0,1.822,1.822,0,0,1-.641-1.388A3.649,3.649,0,0,1,7.6,10.051Zm1.808,5.8a6.428,6.428,0,0,0,4.171-1.538.822.822,0,0,0,.289-.627,2.645,2.645,0,0,0-2.648-2.637H7.6a2.648,2.648,0,0,0-2.653,2.637.823.823,0,0,0,.29.627A6.431,6.431,0,0,0,9.4,15.853Z" transform="translate(0 -0.001)" fill="#fff"/>
    </g>
  </g>
</svg>
