<svg xmlns="http://www.w3.org/2000/svg" width="27.18" height="27.18" viewBox="0 0 27.18 27.18">
  <path id="Icon_awesome-whatsapp" data-name="Icon awesome-whatsapp" d="M23.109,6.2a13.473,13.473,0,0,0-21.2,16.254L0,29.43l7.141-1.875a13.428,13.428,0,0,0,6.437,1.638h.006a13.6,13.6,0,0,0,13.6-13.469A13.522,13.522,0,0,0,23.109,6.2ZM13.584,26.925a11.175,11.175,0,0,1-5.7-1.559l-.406-.243L3.24,26.233,4.368,22.1,4.1,21.677a11.216,11.216,0,1,1,20.8-5.952,11.32,11.32,0,0,1-11.321,11.2Zm6.14-8.385c-.334-.17-1.99-.983-2.3-1.092s-.534-.17-.758.17S15.8,18.71,15.6,18.94s-.394.255-.728.085a9.161,9.161,0,0,1-4.581-4c-.346-.595.346-.552.989-1.838a.624.624,0,0,0-.03-.589c-.085-.17-.758-1.826-1.037-2.5-.273-.655-.552-.564-.758-.576s-.419-.012-.643-.012a1.247,1.247,0,0,0-.9.419,3.782,3.782,0,0,0-1.177,2.809,6.593,6.593,0,0,0,1.371,3.482A15.039,15.039,0,0,0,13.857,21.3c2.136.922,2.973,1,4.041.843a3.447,3.447,0,0,0,2.269-1.6,2.815,2.815,0,0,0,.194-1.6C20.282,18.789,20.057,18.7,19.724,18.54Z" transform="translate(0 -2.25)" fill="#26b03c"/>
</svg>
